<?xml version="1.0" encoding="iso-8859-1"?><!-- Generator: Adobe Illustrator 16.0.0, SVG Export Plug-In . SVG Version: 6.00 Build 0) --><!DOCTYPE svg PUBLIC "-//W3C//DTD SVG 1.1//EN" "http://www.w3.org/Graphics/SVG/1.1/DTD/svg11.dtd"><svg version="1.1" id="Layer_1" xmlns="http://www.w3.org/2000/svg" xmlns:xlink="http://www.w3.org/1999/xlink" x="0px" y="0px" width="192.756px" height="192.756px" viewBox="0 0 192.756 192.756" style="enable-background:new 0 0 192.756 192.756;" xml:space="preserve"><g><polygon style="fill-rule:evenodd;clip-rule:evenodd;fill:#FFFFFF;" points="0,0 192.756,0 192.756,192.756 0,192.756 0,0	"/><path style="fill-rule:evenodd;clip-rule:evenodd;fill:#CC2229;" d="M55.945,93.471c-0.877,3.371-1.347,6.904-1.347,10.55	c0,19.232,13.006,35.42,30.697,40.275c1.713-3.631,2.793-7.529,3.208-11.525c-12.644-3.453-21.941-15.014-21.941-28.75	c0-2.619,0.341-5.158,0.975-7.578C63.868,94.804,59.946,93.801,55.945,93.471L55.945,93.471z"/><path style="fill-rule:evenodd;clip-rule:evenodd;fill:#CC2229;" d="M75.411,82.831c5.385-5.327,12.789-8.618,20.96-8.618	c8.191,0,15.609,3.305,20.998,8.652c3.254-2.354,6.084-5.244,8.373-8.541c-7.545-7.463-17.918-12.074-29.371-12.074	c-11.425,0-21.777,4.593-29.32,12.027C69.336,77.577,72.162,80.472,75.411,82.831L75.411,82.831z"/><path style="fill-rule:evenodd;clip-rule:evenodd;fill:#CC2229;" d="M104.244,132.77c0.408,3.998,1.486,7.896,3.195,11.529	c17.697-4.852,30.705-21.041,30.705-40.277c0-3.631-0.465-7.152-1.334-10.509c-4.004,0.331-7.924,1.333-11.594,2.972	c0.627,2.408,0.963,4.934,0.963,7.537C126.18,117.758,116.887,129.316,104.244,132.77L104.244,132.77z"/><path style="fill-rule:evenodd;clip-rule:evenodd;fill:#CC2229;" d="M34.176,96.492c17.554-10.135,39.877-4.507,50.604,12.486	l2.318-1.34c-0.44-1.121-0.682-2.342-0.682-3.619c0-4.957,3.657-9.089,8.411-9.833V91.51c-20.038-0.828-36.035-17.333-36.035-37.58	c0-15.61,9.51-28.996,23.049-34.688c-21.64,6.302-37.462,26.27-37.462,49.946c0,1.655,0.077,3.293,0.227,4.908	c-1.495,0.685-2.972,1.444-4.426,2.284c-20.503,11.838-29.885,35.524-24.522,57.42C13.818,119.229,20.657,104.297,34.176,96.492	L34.176,96.492z"/><path style="fill-rule:evenodd;clip-rule:evenodd;fill:#CC2229;" d="M152.572,76.421c-1.432-0.827-2.889-1.578-4.363-2.254	c0.154-1.639,0.232-3.299,0.232-4.979c0-23.675-15.818-43.644-37.463-49.946c13.541,5.693,23.051,19.08,23.051,34.689	c0,20.27-16.037,36.792-36.115,37.583v2.673c4.756,0.746,8.412,4.875,8.412,9.832c0,1.256-0.236,2.461-0.666,3.568l2.359,1.361	c10.734-16.939,33.027-22.542,50.561-12.418c13.52,7.807,20.357,22.736,18.518,37.307	C182.461,111.947,173.078,88.259,152.572,76.421L152.572,76.421z"/><path style="fill-rule:evenodd;clip-rule:evenodd;fill:#CC2229;" d="M120.963,161.688c-17.557-10.135-23.846-32.281-14.49-50.066	l-2.355-1.361c-1.828,2.262-4.623,3.717-7.746,3.717c-3.105,0-5.885-1.436-7.713-3.674l-2.339,1.35	c9.303,17.77,3.009,39.875-14.525,50c-13.52,7.803-29.867,6.26-41.567-2.619c16.278,15.588,41.482,19.309,61.985,7.469	c1.436-0.826,2.812-1.713,4.136-2.652c1.342,0.955,2.741,1.855,4.194,2.693c20.504,11.838,45.707,8.119,61.986-7.473	C150.828,167.951,134.48,169.492,120.963,161.688L120.963,161.688z"/></g></svg>