<?xml version="1.0" encoding="iso-8859-1"?><!-- Generator: Adobe Illustrator 16.0.0, SVG Export Plug-In . SVG Version: 6.00 Build 0) --><!DOCTYPE svg PUBLIC "-//W3C//DTD SVG 1.1//EN" "http://www.w3.org/Graphics/SVG/1.1/DTD/svg11.dtd"><svg version="1.1" id="Layer_1" xmlns="http://www.w3.org/2000/svg" xmlns:xlink="http://www.w3.org/1999/xlink" x="0px" y="0px" width="192.756px" height="192.756px" viewBox="0 0 192.756 192.756" style="enable-background:new 0 0 192.756 192.756;" xml:space="preserve"><g><polygon style="fill-rule:evenodd;clip-rule:evenodd;fill:#FFFFFF;" points="0,0 192.756,0 192.756,192.756 0,192.756 0,0	"/><path style="fill-rule:evenodd;clip-rule:evenodd;" d="M49.391,81.354h7.482c5.449,0,7.852,2.771,7.852,7.852	c0,2.494-1.109,5.081-3.511,6.097c2.586,1.108,4.064,3.141,4.064,6.928c0,4.895-2.125,8.498-7.852,8.498h-8.036V81.354	L49.391,81.354z M54.471,93.455h1.848c1.939,0,3.325-1.293,3.325-3.788c0-2.679-1.016-4.157-3.233-4.157h-1.94V93.455	L54.471,93.455z M54.471,106.572h2.125c2.679,0,3.694-1.479,3.694-4.436c0-3.047-1.201-4.525-4.156-4.525h-1.663V106.572	L54.471,106.572z"/><polygon style="fill-rule:evenodd;clip-rule:evenodd;" points="67.311,81.354 71.837,81.354 71.837,110.729 67.311,110.729	67.311,81.354	"/><path style="fill-rule:evenodd;clip-rule:evenodd;" d="M88.556,88.836v21.892h-4.249v-2.125c-1.94,1.57-2.956,2.586-5.542,2.586	c-2.402,0-3.88-1.754-3.88-4.617V88.836h4.619v16.996c0,1.109,0.646,1.57,1.57,1.57c1.016,0,1.939-0.555,2.956-1.385V88.836H88.556	L88.556,88.836z"/><path style="fill-rule:evenodd;clip-rule:evenodd;" d="M105.553,100.66h-9.607v3.141c0,2.586,0.924,3.602,2.494,3.602	c1.664,0,2.586-1.016,2.586-3.602v-0.463h4.527c-0.092,4.619-2.033,7.852-7.113,7.852c-5.172,0-7.02-3.324-7.02-8.129v-6.465	c0-4.803,1.848-8.129,7.02-8.129c5.266,0,7.113,3.326,7.113,8.129V100.66L105.553,100.66z M101.025,96.965v-1.201	c0-2.494-0.922-3.51-2.586-3.51c-1.57,0-2.494,1.016-2.494,3.51v1.201H101.025L101.025,96.965z"/><path style="fill-rule:evenodd;clip-rule:evenodd;" d="M107.031,92.624v-3.787h2.586v-5.819h4.525v5.819h3.049v3.787h-3.049v12.562	c0,1.201,0.463,1.848,1.57,1.848h1.479v3.879c-0.646,0.186-1.109,0.277-2.311,0.277c-3.416,0-5.264-1.57-5.264-4.988V92.624	H107.031L107.031,92.624z"/><path style="fill-rule:evenodd;clip-rule:evenodd;" d="M119.131,96.596c0-4.803,1.848-8.129,7.02-8.129	c5.174,0,7.113,3.326,7.113,8.129v6.465c0,4.805-1.939,8.129-7.113,8.129c-5.172,0-7.02-3.324-7.02-8.129V96.596L119.131,96.596z M128.645,95.764c0-2.494-0.83-3.51-2.494-3.51c-1.57,0-2.494,1.016-2.494,3.51v8.037c0,2.586,0.924,3.602,2.494,3.602	c1.664,0,2.494-1.016,2.494-3.602V95.764L128.645,95.764z"/><path style="fill-rule:evenodd;clip-rule:evenodd;" d="M135.666,96.596c0-4.803,1.848-8.129,7.02-8.129	c5.266,0,7.113,3.326,7.113,8.129v6.465c0,4.805-1.848,8.129-7.113,8.129c-5.172,0-7.02-3.324-7.02-8.129V96.596L135.666,96.596z M145.271,95.764c0-2.494-0.924-3.51-2.586-3.51c-1.57,0-2.494,1.016-2.494,3.51v8.037c0,2.586,0.924,3.602,2.494,3.602	c1.662,0,2.586-1.016,2.586-3.602V95.764L145.271,95.764z"/><path style="fill-rule:evenodd;clip-rule:evenodd;" d="M151.184,92.624v-3.787h2.494v-5.819h4.525v5.819h3.141v3.787h-3.141v12.562	c0,1.201,0.555,1.848,1.57,1.848h1.57v3.879c-0.646,0.186-1.201,0.277-2.309,0.277c-3.418,0-5.357-1.57-5.357-4.988V92.624H151.184	L151.184,92.624z"/><path style="fill-rule:evenodd;clip-rule:evenodd;" d="M164.115,110.729V81.354h4.619v9.515c1.662-1.386,2.586-2.402,5.264-2.402	c2.402,0,3.789,1.755,3.789,4.619v17.643h-4.527V93.825c0-1.109-0.646-1.571-1.662-1.571c-0.924,0-1.848,0.554-2.863,1.386v17.089	H164.115L164.115,110.729z"/><path style="fill-rule:evenodd;clip-rule:evenodd;" d="M28.331,85.326l3.51,3.51l-3.51,3.51V85.326L28.331,85.326z M28.331,106.848	l3.51-3.51l-3.51-3.51V106.848L28.331,106.848z M24.543,96.041l-7.574-7.574l2.217-2.217l6.004,6.096V77.752l11.084,11.084	l-7.297,7.205l7.297,7.297L25.19,114.33V99.828l-6.004,6.098l-2.217-2.219L24.543,96.041L24.543,96.041z M26.576,117.379	c9.33,0,15.703-4.434,15.703-21.338c0-16.812-6.374-21.245-15.703-21.245c-9.237,0-15.703,4.434-15.703,21.245	C10.873,112.945,17.338,117.379,26.576,117.379L26.576,117.379z"/><polygon style="fill-rule:evenodd;clip-rule:evenodd;" points="180.004,81.354 180.004,82.001 179.172,82.001 179.172,85.141	178.432,85.141 178.432,82.001 177.602,82.001 177.602,81.354 180.004,81.354	"/><polygon style="fill-rule:evenodd;clip-rule:evenodd;" points="180.928,85.141 180.928,81.354 181.943,81.354 182.59,83.848	182.59,83.848 183.236,81.354 184.252,81.354 184.252,85.141 183.605,85.141 183.605,82.186 183.605,82.186 182.867,85.141	182.312,85.141 181.574,82.186 181.574,82.186 181.574,85.141 180.928,85.141	"/></g></svg>