<?xml version="1.0" encoding="iso-8859-1"?><!-- Generator: Adobe Illustrator 16.0.0, SVG Export Plug-In . SVG Version: 6.00 Build 0) --><!DOCTYPE svg PUBLIC "-//W3C//DTD SVG 1.1//EN" "http://www.w3.org/Graphics/SVG/1.1/DTD/svg11.dtd"><svg version="1.1" id="Layer_1" xmlns="http://www.w3.org/2000/svg" xmlns:xlink="http://www.w3.org/1999/xlink" x="0px" y="0px" width="192.756px" height="192.756px" viewBox="0 0 192.756 192.756" style="enable-background:new 0 0 192.756 192.756;" xml:space="preserve"><g><polygon style="fill-rule:evenodd;clip-rule:evenodd;fill:#FFFFFF;" points="0,0 192.756,0 192.756,192.756 0,192.756 0,0	"/><path style="fill-rule:evenodd;clip-rule:evenodd;fill:#B44C56;" d="M104.93,64.699c-1.963,0,0.373,1.028,2.896,1.401	c0.748-0.561,1.309-1.121,1.963-1.588C108.199,64.885,106.518,64.885,104.93,64.699L104.93,64.699z"/><path style="fill-rule:evenodd;clip-rule:evenodd;fill:#B44C56;" d="M115.395,62.082c1.121-1.588,1.963-3.271,2.244-5.14	c-0.281,1.309-0.936,2.43-1.59,3.645c-3.645,2.243-0.373-1.401,0-2.803C112.125,62.736,115.488,60.774,115.395,62.082	L115.395,62.082z"/><path style="fill-rule:evenodd;clip-rule:evenodd;fill:#B44C56;" d="M119.227,52.083c0.188-3.458-0.748-2.336-1.027-1.027	C118.572,51.242,118.854,53.484,119.227,52.083L119.227,52.083z"/><path style="fill-rule:evenodd;clip-rule:evenodd;fill:#B44C56;" d="M97.547,4.423c1.121,0.187,2.242,0.28,2.148,0.561	C100.816,4.704,101.004,4.517,97.547,4.423L97.547,4.423z"/><polygon style="fill-rule:evenodd;clip-rule:evenodd;fill:#B44C56;" points="99.695,4.984 98.947,5.078 99.602,5.078 99.695,4.984	"/><path style="fill-rule:evenodd;clip-rule:evenodd;fill:#B44C56;" d="M131.936,53.484c0.094,3.084-0.934,4.579-1.869,7.29	l-1.682,0.841c-1.309,2.71,0.188,1.682-0.842,3.832c-2.148,1.869-6.447,5.981-7.85,6.354c-1.027-0.093,0.654-1.215,0.936-1.682	c-2.896,1.962-2.336,2.99-6.729,4.112l-0.094-0.28c-10.84,5.14-25.886-4.953-25.699-18.69c-0.094,0.841-0.28,0.654-0.561,0.935	c-0.561-7.009,3.271-14.111,9.719-17.008c6.355-3.178,13.736-1.869,18.223,2.336c-2.43-3.271-7.383-6.729-13.27-6.354	c-5.701,0.094-11.121,3.738-12.896,7.663c-2.897,1.869-3.271,7.102-4.579,8.13c-1.682,12.616,3.271,18.129,11.681,24.578	c1.308,0.841,0.374,1.028,0.561,1.682c-2.804-1.309-5.327-3.271-7.477-5.701c1.122,1.682,2.336,3.271,3.925,4.486	c-2.71-0.935-6.167-6.355-7.195-6.635c4.485,8.13,18.41,14.298,25.605,11.214c-3.363,0.093-7.568,0.093-11.4-1.309	c-1.59-0.841-3.738-2.523-3.363-2.804c9.998,3.645,20.184,2.804,28.781-4.111c2.148-1.683,4.58-4.579,5.234-4.579	c-1.029,1.495,0.186,0.747-0.654,2.056c2.242-3.458-0.936-1.401,2.242-5.98l1.215,1.588c-0.467-2.897,3.645-6.448,3.178-11.027	c0.934-1.402,1.027,1.495,0.092,4.766c1.402-3.645,0.375-4.205,0.748-7.195c0.375,1.027,0.842,2.056,1.121,3.177	c-0.934-3.551,0.842-5.887,1.309-7.943c-0.467-0.187-1.4,1.589-1.588-2.523c0.094-1.775,0.561-0.934,0.654-1.402	c-0.281-0.187-1.215-1.495-1.775-4.111c0.373-0.654,1.027,1.588,1.588,1.682c-0.279-2.149-0.934-3.738-0.934-5.326	c-1.59-3.364-0.561,0.467-1.869-1.402c-1.775-5.327,1.4-1.309,1.588-3.645c2.617,3.738,4.111,9.532,4.766,11.962	c-0.561-2.99-1.309-5.794-2.336-8.597c0.748,0.374-1.309-5.981,1.027-1.776c-2.521-9.064-10.559-17.475-17.941-21.4	c0.934,0.841,2.057,1.869,1.682,2.056c-3.738-2.243-3.084-2.43-3.551-3.271c-2.99-1.215-3.178,0.093-5.232,0	c-5.607-2.991-6.729-2.71-11.869-4.579l0.188,1.121c-3.738-1.309-4.299,0.467-8.411,0c-0.187-0.187,1.309-0.748,2.616-0.935	c-3.644,0.467-3.457-0.654-7.008,0.187c0.841-0.654,1.775-1.028,2.71-1.588c-2.896,0.187-7.008,1.776-5.793,0.374	c-4.766,2.149-13.27,5.14-18.129,9.625l-0.094-1.028c-2.242,2.617-9.625,7.943-10.186,11.308l-0.561,0.187	c-1.215,1.869-1.963,4.112-2.804,6.074c-1.495,2.523-2.243,0.935-1.962,1.402c-2.991,5.981-4.486,10.934-5.701,15.045	c0.935,1.309,0,8.13,0.374,13.457c-1.495,26.727,18.689,52.613,40.744,58.593c3.271,1.121,8.037,1.121,12.148,1.215	c-4.859-1.402-5.42-0.748-10.186-2.336c-3.364-1.682-4.112-3.459-6.542-5.514l1.028,1.682c-4.766-1.682-2.803-2.148-6.635-3.271	l1.028-1.4c-1.495-0.094-4.019-2.523-4.766-3.926l-1.588,0.094c-2.056-2.523-3.084-4.299-2.991-5.701l-0.561,1.029	c-0.654-1.029-7.382-9.346-3.925-7.383c-0.654-0.561-1.496-0.935-2.43-2.71l0.748-0.841c-1.682-2.149-3.177-4.953-3.084-5.888	c0.935,1.215,1.589,1.495,2.149,1.683c-4.205-10.56-4.485-0.561-7.663-10.747l0.654-0.094c-0.561-0.748-0.841-1.682-1.309-2.523	l0.374-2.897c-3.083-3.551-0.935-15.139-0.467-21.493c0.28-2.523,2.616-5.327,4.298-9.625l-1.028-0.187	c1.962-3.458,11.401-14.018,15.793-13.457c2.056-2.617-0.467,0-0.841-0.654c4.673-4.859,6.075-3.458,9.252-4.299	c3.364-1.962-2.897,0.748-1.309-0.748c5.794-1.495,4.112-3.364,11.775-4.112c0.748,0.374-1.869,0.654-2.523,1.215	c4.86-2.336,15.327-1.776,22.241,1.402c7.943,3.645,16.822,14.671,17.195,24.951l0.373,0.094c-0.186,4.111,0.654,8.877-0.84,13.27	L131.936,53.484L131.936,53.484z"/><path style="fill-rule:evenodd;clip-rule:evenodd;fill:#B44C56;" d="M83.809,67.409l-0.28,1.309	c1.215,1.775,2.243,3.645,3.925,4.952C86.239,71.427,85.398,70.493,83.809,67.409L83.809,67.409z"/><path style="fill-rule:evenodd;clip-rule:evenodd;fill:#B44C56;" d="M86.799,67.222c-0.654-0.748-1.121-1.589-1.495-2.523	c0.374,1.588,1.308,2.99,2.056,4.299L86.799,67.222L86.799,67.222z"/><path style="fill-rule:evenodd;clip-rule:evenodd;fill:#B44C56;" d="M140.066,55.634l-0.281,0.747	c-0.467,3.738-1.588,7.383-3.363,10.747C138.385,63.577,139.6,59.652,140.066,55.634L140.066,55.634z"/><path style="fill-rule:evenodd;clip-rule:evenodd;fill:#B44C56;" d="M98.014,3.489c1.309-0.467,3.178-0.28,4.578-0.654	c-1.775,0.187-3.645,0.281-5.42,0.467L98.014,3.489L98.014,3.489z"/><path style="fill-rule:evenodd;clip-rule:evenodd;fill:#B44C56;" d="M51.943,27.973c0.28,2.803-2.149,3.832,0.561,1.962	C53.905,26.758,51.943,29.094,51.943,27.973L51.943,27.973z"/><path style="fill-rule:evenodd;clip-rule:evenodd;fill:#B44C56;" d="M48.859,40.869c0.561-1.869,0.654-2.99,0.935-4.018	C48.111,39,49.045,39.467,48.859,40.869L48.859,40.869z"/><path style="fill-rule:evenodd;clip-rule:evenodd;" d="M43.251,165.811c-0.093,0-0.093,9.719-0.187,12.242	c-0.094,2.057-0.28,6.449-4.579,6.449c-4.485,0-5.607-5.141-5.981-7.383c-0.374-2.43-0.374-4.486-0.374-5.42	c0-2.898,0.187-10.934,7.009-10.934c2.056,0,3.177,0.654,4.019,1.121L43.251,165.811L43.251,165.811z M25.777,172.914	c0,16.914,9.064,16.914,10.373,16.914c3.738,0,6.168-2.057,7.196-5.607l0.094,5.326c1.121,0,2.243-0.092,4.111-0.092	c0.654,0,1.215,0,1.682,0c0.561,0,1.028,0.092,1.496,0.092c-0.935-1.867-1.683-6.166-1.683-15.605c0-9.158,0-24.578,0.841-29.25	c-2.149,1.027-4.019,1.682-8.13,2.057c1.589,1.682,1.589,2.615,1.589,10.559c-1.121-0.373-2.523-0.84-5.046-0.84	C27.552,156.467,25.777,165.904,25.777,172.914L25.777,172.914z"/><path style="fill-rule:evenodd;clip-rule:evenodd;" d="M58.391,169.83c0.093-5.047,1.122-9.439,5.42-9.439	c4.672,0,5.046,5.141,4.859,9.439H58.391L58.391,169.83z M74.651,170.391c0-7.008-1.401-13.924-10.279-13.924	c-12.242,0-12.242,13.549-12.242,16.447c0,12.242,5.42,17.008,14.672,17.008c4.112,0,6.074-0.561,7.102-0.842	c0-2.242,0.28-3.551,0.654-5.42c-1.308,0.748-2.897,1.775-6.542,1.775c-9.345,0-9.438-8.504-9.438-11.494h15.98L74.651,170.391	L74.651,170.391z"/><path style="fill-rule:evenodd;clip-rule:evenodd;" d="M94.275,173.008c0,5.605-1.028,13.082-8.037,13.082	c-0.935,0-2.149-0.188-2.99-0.373c-0.094-2.15-0.094-5.889-0.094-10.188c0-5.232,0.561-7.85,0.935-9.25	c1.309-4.205,4.112-4.299,4.673-4.299C93.341,161.98,94.275,168.334,94.275,173.008L94.275,173.008z M76.987,179.549	c0,4.486,0,7.008-0.747,8.877c2.523,1.029,5.514,1.496,9.251,1.496c2.337,0,9.065,0,12.802-7.477	c1.684-3.457,2.338-8.223,2.338-11.775c0-2.148-0.281-6.914-1.963-9.904c-1.682-2.805-4.393-4.299-7.29-4.299	c-5.794,0-7.476,4.859-8.411,7.289c0-2.99,0.094-13.738,0.561-19.252c-3.925,1.869-6.354,2.15-8.878,2.432	c2.336,0.934,2.336,4.857,2.336,17.848V179.549L76.987,179.549z"/><path style="fill-rule:evenodd;clip-rule:evenodd;" d="M112.125,189.547c-1.123-0.092-1.963-0.279-3.738-0.279	c-1.963,0-3.271,0.188-4.674,0.279c0.654-1.121,0.842-1.682,1.029-5.512c0.279-5.422,0.373-19.719-0.094-22.709	c-0.281-2.336-0.842-2.617-1.682-3.271c4.953-0.467,6.354-0.84,8.598-1.869c-0.469,2.617-0.562,3.926-0.562,7.943	C110.91,184.875,110.816,187.117,112.125,189.547L112.125,189.547z"/><path style="fill-rule:evenodd;clip-rule:evenodd;" d="M131.469,172.539c-0.188,3.832-0.188,6.449-1.215,8.598	c-1.309,2.711-3.365,3.459-4.953,3.459c-3.645,0-4.393-2.992-4.393-5.982c0-5.605,5.047-6.074,7.289-6.074H131.469L131.469,172.539	z M114.928,179.922c0,3.832,1.121,7.664,4.486,9.252c1.494,0.654,2.99,0.654,3.457,0.654c5.514,0,7.383-4.111,8.598-6.635	c-0.094,2.709,0,4.299,0.188,6.354c1.027,0,2.148-0.092,3.924-0.092c1.027,0,1.963,0.092,2.99,0.092	c-0.654-0.934-1.027-1.588-1.215-3.924c-0.094-2.242-0.094-4.58-0.094-7.756l0.094-12.242c0-4.58-1.215-9.158-10.279-9.158	c-5.887,0-9.438,1.869-11.121,2.709c0.654,1.402,1.309,2.523,1.777,5.141c2.428-2.057,5.42-3.178,8.596-3.178	c4.953,0,4.953,3.271,4.953,8.037c-1.121-0.094-2.055-0.188-3.738-0.188C119.975,168.988,114.928,171.887,114.928,179.922	L114.928,179.922z"/><path style="fill-rule:evenodd;clip-rule:evenodd;" d="M166.045,183.66c0.094,2.057,0.094,4.205,0.934,5.887	c-1.307-0.092-2.148-0.279-4.578-0.279c-1.402,0-2.242,0.188-3.363,0.279c0.279-0.746,0.373-1.027,0.467-2.055	c0.188-1.402,0.279-5.98,0.279-7.664v-6.447c0-2.896,0-6.916-0.186-8.41c-0.094-1.027-0.375-3.738-3.832-3.738	s-4.578,2.523-5.047,4.578c-0.467,2.057-0.467,4.393-0.467,13.271c0.094,7.662,0.094,8.41,0.654,10.465	c-1.027-0.092-2.242-0.186-4.111-0.186c-1.402,0-2.338,0.094-3.551,0.186c0.373-0.934,0.652-1.4,0.746-4.766	c0.094-3.27,0.375-19.531-0.186-23.361c-0.281-2.43-0.936-2.898-1.59-3.551c4.953-0.188,6.449-1.029,7.943-1.777v6.355	c0.748-1.869,2.242-5.98,8.316-5.98c7.477,0,7.57,5.42,7.57,9.064V183.66L166.045,183.66z"/><polygon style="fill-rule:evenodd;clip-rule:evenodd;fill:#B44C56;" points="112.686,147.682 107.732,152.635 102.686,147.682	107.732,142.637 112.686,147.682	"/></g></svg>