<?xml version="1.0" encoding="iso-8859-1"?><!-- Generator: Adobe Illustrator 16.0.0, SVG Export Plug-In . SVG Version: 6.00 Build 0) --><!DOCTYPE svg PUBLIC "-//W3C//DTD SVG 1.1//EN" "http://www.w3.org/Graphics/SVG/1.1/DTD/svg11.dtd"><svg version="1.1" id="Layer_1" inkscape:version="0.48.4 r9939" sodipodi:docname="normal.svg" xmlns:rdf="http://www.w3.org/1999/02/22-rdf-syntax-ns#" xmlns:sodipodi="http://sodipodi.sourceforge.net/DTD/sodipodi-0.dtd" xmlns:dc="http://purl.org/dc/elements/1.1/" xmlns:inkscape="http://www.inkscape.org/namespaces/inkscape" xmlns:svg="http://www.w3.org/2000/svg" xmlns:cc="http://creativecommons.org/ns#" xmlns="http://www.w3.org/2000/svg" xmlns:xlink="http://www.w3.org/1999/xlink" x="0px" y="0px" width="204.872px" height="161.73px" viewBox="22.754 18.688 204.872 161.73" style="enable-background:new 22.754 18.688 204.872 161.73;" xml:space="preserve"><sodipodi:namedview id="namedview112" inkscape:window-y="0" inkscape:window-width="640" inkscape:pageshadow="2" inkscape:window-maximized="0" inkscape:window-x="0" inkscape:window-height="480" inkscape:pageopacity="0" inkscape:current-layer="Layer_1" objecttolerance="10" bordercolor="#666666" guidetolerance="10" inkscape:cx="125" showgrid="false" borderopacity="1" pagecolor="#ffffff" inkscape:cy="115.54799" inkscape:zoom="1.38" gridtolerance="10"></sodipodi:namedview><path id="path3038" sodipodi:rx="56.555824" sodipodi:cy="77.17086" sodipodi:cx="136.62799" sodipodi:type="arc" sodipodi:ry="59.859772" style="fill:#FFFFFF;" d="	M183.855,77.948c0,32.201-25.321,58.306-56.557,58.306c-31.234,0-56.555-26.104-56.555-58.306s25.321-58.305,56.555-58.305	C158.534,19.644,183.855,45.747,183.855,77.948z"/><g id="g3"><linearGradient id="path10_1_" gradientUnits="userSpaceOnUse" x1="-768.4121" y1="2382.833" x2="-768.4121" y2="2263.5137" gradientTransform="matrix(1 0 0 1 895.9302 -2244.8252)"><stop offset="0" style="stop-color:#D14427"/><stop offset="1" style="stop-color:#E55225"/></linearGradient><path id="path10" style="fill:url(#path10_1_);" d="M179.717,78.348c0,28.828-23.369,52.201-52.199,52.201	c-28.83,0-52.199-23.373-52.199-52.201c0-28.828,23.369-52.199,52.199-52.199C156.348,26.149,179.717,49.52,179.717,78.348z M187.178,78.348c0,32.947-26.713,59.66-59.66,59.66c-32.947,0-59.66-26.713-59.66-59.66c0-32.947,26.713-59.66,59.66-59.66	C160.465,18.688,187.178,45.4,187.178,78.348z M182.256,78.348c0-30.229-24.51-54.736-54.738-54.736	c-30.227,0-54.738,24.508-54.738,54.736s24.512,54.736,54.738,54.736C157.746,133.084,182.256,108.576,182.256,78.348z"/><g id="g12"><g id="g14"><g id="g16"><g id="g18"><g id="g20"><g><defs><path id="SVGID_1_" d="M179.922,78.207c0,28.895-23.506,52.4-52.404,52.4c-28.893,0-52.396-23.508-52.396-52.4	c0-28.891,23.506-52.396,52.396-52.396C156.416,25.81,179.922,49.316,179.922,78.207z"/></defs><clipPath id="SVGID_2_"><use xlink:href="#SVGID_1_" style="overflow:visible;"/></clipPath><g id="g28" style="clip-path:url(#SVGID_2_);"><path id="path30" style="fill:#D5D7D8;" d="M148.482,154.541c-1.801-8.285-12.262-27.039-16.229-34.969	c-3.965-7.93-7.939-19.11-6.129-26.322c0.327-1.312-3.436-11.307-2.354-12.014c8.416-5.49,10.632,0.598,14.001-1.863	c1.738-1.273,4.09,1.047,4.693-1.059c2.158-7.568-3.006-20.76-8.768-26.527c-1.885-1.879-4.773-3.059-8.031-3.686	c-1.254-1.713-3.275-3.361-6.138-4.879c-3.188-1.697-10.121-3.938-13.717-4.535c-2.492-0.41-3.055,0.287-4.119,0.461	c0.992,0.088,5.699,2.414,6.615,2.549c-0.916,0.619-3.607-0.029-5.324,0.742c-0.865,0.391-1.512,1.877-1.506,2.58	c4.91-0.496,12.574-0.016,17.1,2c-3.602,0.41-9.08,0.867-11.436,2.105c-6.848,3.609-9.873,12.035-8.07,22.133	c1.804,10.075,9.738,46.849,12.262,59.129c2.525,12.263-5.408,20.189-10.455,22.354l5.408,0.363l-1.801,3.967	c6.484,0.719,13.695-1.441,13.695-1.441c-1.438,3.965-11.176,5.412-11.176,5.412s4.691,1.438,12.258-1.447	c7.575-2.883,12.261-4.688,12.261-4.688l3.604,9.373l6.854-6.846l2.883,7.211	C144.875,164.643,150.285,162.836,148.482,154.541z"/><path id="path32" style="fill:#FFFFFF;" d="M150.66,152.859c-1.795-8.289-12.256-27.043-16.227-34.976	c-3.969-7.935-7.934-19.112-6.129-26.321c0.334-1.309,0.34-6.668,1.428-7.379c8.41-5.494,7.812-0.184,11.186-2.645	c1.74-1.27,3.133-2.805,3.738-4.912c2.164-7.572-3.006-20.76-8.773-26.529c-1.879-1.879-4.768-3.062-8.025-3.686	c-1.252-1.717-3.271-3.361-6.131-4.881c-5.391-2.863-12.074-4.006-18.266-2.883c0.99,0.09,3.256,2.137,4.168,2.273	c-1.381,0.936-5.053,0.816-5.029,2.896c4.916-0.492,10.303,0.285,14.834,2.297c-3.602,0.41-6.955,1.299-9.311,2.543	c-6.854,3.602-8.656,10.812-6.854,20.914c1.807,10.096,9.742,46.868,12.256,59.127c2.527,12.258-5.402,20.188-10.449,22.352	l5.408,0.359l-1.801,3.973c6.484,0.718,13.695-1.442,13.695-1.442c-1.438,3.972-11.176,5.405-11.176,5.405	s4.686,1.443,12.258-1.444c7.578-2.883,12.268-4.685,12.268-4.685l3.602,9.373l6.854-6.85l2.889,7.211	C147.064,162.955,152.469,161.15,150.66,152.859z"/><path id="path34" style="fill:#2D4F8E;" d="M109.211,70.074c0-2.092,1.693-3.787,3.789-3.787	c2.09,0,3.785,1.695,3.785,3.787c0,2.094-1.695,3.787-3.785,3.787C110.904,73.861,109.211,72.168,109.211,70.074z"/><path id="path36" style="fill:#FFFFFF;" d="M113.697,68.812c0-0.545,0.441-0.984,0.98-0.984	c0.543,0,0.984,0.439,0.984,0.984c0,0.543-0.441,0.984-0.984,0.984C114.139,69.797,113.697,69.355,113.697,68.812z"/><path id="path38" style="fill:#2D4F8E;" d="M135.057,67.828c0-1.793,1.461-3.25,3.252-3.25c1.801,0,3.256,1.457,3.256,3.25	c0,1.801-1.455,3.258-3.256,3.258C136.518,71.086,135.057,69.629,135.057,67.828z"/><path id="path40" style="fill:#FFFFFF;" d="M138.914,66.746c0-0.463,0.379-0.842,0.838-0.842	c0.477,0,0.844,0.379,0.844,0.842c0,0.469-0.367,0.842-0.844,0.842C139.293,67.588,138.914,67.215,138.914,66.746z"/><linearGradient id="path47_1_" gradientUnits="userSpaceOnUse" x1="-790.4219" y1="2305.1885" x2="-781.854" y2="2305.1885" gradientTransform="matrix(1 0 0 1 895.9302 -2244.8252)"><stop offset="0.0056" style="stop-color:#6176B9"/><stop offset="0.691" style="stop-color:#394A9F"/></linearGradient><path id="path47" style="fill:url(#path47_1_);" d="M114.076,59.101c0,0-2.854-1.291-5.629,0.453	c-2.77,1.742-2.668,3.523-2.668,3.523s-1.473-3.283,2.453-4.891C112.162,56.576,114.076,59.101,114.076,59.101z"/><linearGradient id="path54_1_" gradientUnits="userSpaceOnUse" x1="-763.4673" y1="2302.5791" x2="-755.6626" y2="2302.5791" gradientTransform="matrix(1 0 0 1 895.9302 -2244.8252)"><stop offset="0.0056" style="stop-color:#6176B9"/><stop offset="0.691" style="stop-color:#394A9F"/></linearGradient><path id="path54" style="fill:url(#path54_1_);" d="M140.268,58.841c0,0-2.051-1.172-3.643-1.152	c-3.268,0.043-4.162,1.488-4.162,1.488s0.549-3.445,4.734-2.754C139.463,56.8,140.268,58.841,140.268,58.841z"/></g></g></g></g></g></g><path id="path56" style="fill:#FDD20A;" d="M124.59,84.678c0.379-2.291,6.299-6.625,10.49-6.887	c4.201-0.264,5.51-0.205,9.01-1.043c3.508-0.838,12.535-3.088,15.033-4.242c2.504-1.156,13.102,0.572,5.631,4.738	c-3.234,1.809-11.945,5.131-18.172,6.988c-6.219,1.861-9.99-1.777-12.059,1.281c-1.646,2.432-0.334,5.762,7.098,6.453	c10.037,0.93,19.66-4.52,20.719-1.625c1.064,2.895-8.625,6.508-14.527,6.623c-5.891,0.111-17.775-3.896-19.553-5.137	C126.475,90.588,124.096,87.697,124.59,84.678z"/></g></g><g id="g58"><g id="g60"><path id="path62" style="fill:#4C4C4C;" d="M22.754,179.957v-24.598h8.914c8.487,0,12.352,6.235,12.352,12.033	c0,6.254-3.819,12.562-12.352,12.562L22.754,179.957L22.754,179.957z M25.588,177.123h6.08c6.575,0,9.518-4.904,9.518-9.766	c0-4.465-2.979-9.271-9.518-9.271h-6.08V177.123z"/></g><g id="g64"><path id="path66" style="fill:#4C4C4C;" d="M55.245,180.24c-4.554,0-7.497-3.137-7.497-7.992v-9.551h2.657v9.516	c0,3.496,2.034,5.584,5.442,5.584c3.195-0.035,5.513-2.488,5.513-5.832v-9.268h2.657v17.26h-2.414l-0.152-3.002l-0.412,0.518	C59.607,179.273,57.658,180.205,55.245,180.24z"/></g><g id="g68"><path id="path70" style="fill:#4C4C4C;" d="M76.976,180.275c-4.49,0-9.02-2.771-9.02-8.949c0-5.354,3.625-8.949,9.02-8.949	c2.361,0,4.436,0.842,6.168,2.502l-1.67,1.734c-1.175-1.096-2.781-1.721-4.427-1.721c-3.768,0-6.399,2.646-6.399,6.434	c0,4.445,3.196,6.436,6.364,6.436c1.782,0,3.4-0.636,4.573-1.791l1.736,1.736C81.574,179.412,79.44,180.275,76.976,180.275z"/></g><g id="g72"><polygon id="polygon74" style="fill:#4C4C4C;" points="97.873,179.957 89.438,171.521 89.438,179.957 86.816,179.957	86.816,155.395 89.438,155.395 89.438,170.252 96.811,162.697 100.248,162.697 92.114,170.831 101.241,179.922 101.241,179.957	"/></g><g id="g76"><path id="path78" style="fill:#4C4C4C;" d="M104.507,179.957v-24.598h8.913c8.487,0,12.354,6.235,12.354,12.033	c0,6.254-3.816,12.562-12.354,12.562L104.507,179.957L104.507,179.957z M107.34,177.123h6.08c6.575,0,9.519-4.904,9.519-9.766	c0-4.465-2.979-9.271-9.519-9.271h-6.08V177.123z"/></g><g id="g80"><path id="path82" style="fill:#4C4C4C;" d="M136.996,180.24c-4.555,0-7.496-3.137-7.496-7.992v-9.551h2.656v9.516	c0,3.496,2.035,5.584,5.441,5.584c3.192-0.035,5.514-2.488,5.514-5.832v-9.268h2.656v17.26h-2.416l-0.149-3.002l-0.412,0.518	C141.357,179.273,139.408,180.205,136.996,180.24z"/></g><g id="g84"><path id="path86" style="fill:#4C4C4C;" d="M158.729,180.275c-4.49,0-9.021-2.771-9.021-8.949c0-5.354,3.625-8.949,9.021-8.949	c2.36,0,4.438,0.842,6.168,2.502l-1.67,1.734c-1.176-1.096-2.781-1.721-4.428-1.721c-3.768,0-6.398,2.646-6.398,6.434	c0,4.445,3.197,6.436,6.363,6.436c1.782,0,3.4-0.636,4.573-1.792l1.685,1.688l-0.088,0.09l0.049,0.049	C163.253,179.441,161.15,180.275,158.729,180.275z"/></g><g id="g88"><polygon id="polygon90" style="fill:#4C4C4C;" points="179.625,179.957 171.189,171.521 171.189,179.957 168.568,179.957	168.568,155.395 171.189,155.395 171.189,170.252 178.562,162.697 182.001,162.697 173.867,170.831 182.993,179.922	182.993,179.957	"/></g><g id="g92"><path id="path94" style="fill:#4C4C4C;" d="M196.908,180.418c-9.457,0-12.812-6.75-12.812-12.529	c-0.019-3.765,1.256-7.125,3.584-9.467c2.293-2.305,5.473-3.523,9.193-3.523c3.367,0,6.537,1.279,8.938,3.604l-1.605,1.869	c-1.887-1.763-4.682-2.853-7.329-2.853c-6.854,0-9.979,5.375-9.979,10.369c0,4.911,3.105,9.872,10.049,9.872	c2.529,0,4.886-0.866,6.811-2.512l0.088-0.074v-6.063h-7.729v-2.479h10.277v9.646	C203.745,179.074,200.652,180.418,196.908,180.418z"/></g><g id="g96"><path id="path98" style="fill:#4C4C4C;" d="M218.643,180.275c-5.187,0-8.949-3.748-8.949-8.914c0-5.246,3.767-9.055,8.949-9.055	c5.289,0,8.983,3.723,8.983,9.055C227.626,176.527,223.848,180.275,218.643,180.275z M218.678,164.715	c-3.727,0-6.328,2.734-6.328,6.646c0,3.729,2.646,6.436,6.293,6.436c3.709,0,6.326-2.646,6.362-6.434	C225.005,167.51,222.344,164.715,218.678,164.715z"/></g></g><g id="g100"><path id="path102" style="fill:#65BC46;" d="M129.133,115.975c0,0-14.1-7.521-14.33-4.47c-0.238,3.056,0,15.509,1.643,16.451	c1.646,0.938,13.395-6.108,13.395-6.108L129.133,115.975z"/><path id="path104" style="fill:#65BC46;" d="M134.535,115.501c0,0,9.635-7.285,11.754-6.815c2.111,0.479,2.582,15.511,0.701,16.225	c-1.881,0.695-12.908-3.816-12.908-3.816L134.535,115.501z"/><path id="path106" style="fill:#43A244;" d="M125.719,116.771c0,4.931-0.708,7.049,1.41,7.517c2.111,0.473,6.105,0,7.518-0.938	c1.41-0.939,0.232-7.281-0.234-8.465C133.938,113.714,125.719,114.657,125.719,116.771z"/><path id="path108" style="fill:#65BC46;" d="M126.615,115.675c0,4.933-0.707,7.05,1.41,7.519c2.109,0.475,6.104,0,7.518-0.938	c1.41-0.941,0.232-7.279-0.238-8.466C134.834,112.618,126.615,113.562,126.615,115.675z"/></g><path id="path110" style="fill:#FFFFFF;" d="M140.029,128.698c-4.133,1.052-8.461,1.612-12.916,1.612	c-4.715,0-9.282-0.637-13.631-1.811l0.05,0.413c4.334,1.165,8.884,1.796,13.582,1.796c4.511,0,8.89-0.573,13.068-1.648	L140.029,128.698z"/></svg>