<?xml version="1.0" encoding="iso-8859-1"?><!-- Generator: Adobe Illustrator 16.0.0, SVG Export Plug-In . SVG Version: 6.00 Build 0) --><!DOCTYPE svg PUBLIC "-//W3C//DTD SVG 1.1//EN" "http://www.w3.org/Graphics/SVG/1.1/DTD/svg11.dtd"><svg version="1.1" id="Layer_1" xmlns="http://www.w3.org/2000/svg" xmlns:xlink="http://www.w3.org/1999/xlink" x="0px" y="0px" width="192.756px" height="192.756px" viewBox="0 0 192.756 192.756" style="enable-background:new 0 0 192.756 192.756;" xml:space="preserve"><g><polygon style="fill-rule:evenodd;clip-rule:evenodd;fill:#FFFDE9;" points="0,0 192.756,0 192.756,192.756 0,192.756 0,0	"/><path style="fill-rule:evenodd;clip-rule:evenodd;fill:#FFFFFF;" d="M101.061,90.603l-0.379,0.377c0,0-45.86-41.332-47.559-42.841	c0,2.265,0,44.729,0,45.106c0.189,0.377,46.993,42.276,47.559,42.841c0.756-0.564,47.371-42.463,47.75-42.841	c0-0.377,0-11.512,0-11.89c-0.189-0.377-3.021-2.831-3.021-2.831s2.832-2.454,3.021-2.643c0-0.566,0-11.324,0-11.701	c-0.189-0.188-3.021-2.642-3.021-2.642s2.832-2.453,3.021-2.831c0-0.377,0-8.87,0-10.757	C146.732,49.46,101.061,90.603,101.061,90.603L101.061,90.603z"/><polygon style="fill-rule:evenodd;clip-rule:evenodd;fill:#A8BCB0;" points="100.682,90.226 52.557,47.007 52.557,93.434	100.682,136.842 100.682,90.226	"/><polygon style="fill-rule:evenodd;clip-rule:evenodd;" points="100.682,124.574 103.703,122.121 71.618,93.434 71.429,98.152	100.682,124.574	"/><polygon style="fill-rule:evenodd;clip-rule:evenodd;" points="100.682,107.4 103.703,105.135 71.618,76.259 71.429,81.167	100.682,107.4	"/><polygon style="fill-rule:evenodd;clip-rule:evenodd;fill:#FFFFFF;" points="148.998,46.818 148.998,46.818 149.186,46.818	148.998,46.818	"/><polygon style="fill-rule:evenodd;clip-rule:evenodd;" points="132.199,36.06 132.199,31.531 101.248,59.463 103.891,61.728	132.199,36.06	"/><polygon style="fill-rule:evenodd;clip-rule:evenodd;" points="115.402,20.584 115.402,16.055 84.263,44.175 86.716,46.44	115.402,20.584	"/><polygon style="fill-rule:evenodd;clip-rule:evenodd;fill:#4D725C;" points="146.166,78.524 148.998,76.071 148.998,63.992	146.166,61.539 148.998,58.896 148.998,46.818 100.682,90.226 100.682,136.842 148.998,93.434 148.998,81.167 146.166,78.524	"/><polygon style="fill-rule:evenodd;clip-rule:evenodd;" points="148.998,81.167 146.166,78.524 119.744,102.492 119.744,107.4	148.998,81.167	"/><polygon style="fill-rule:evenodd;clip-rule:evenodd;" points="148.998,63.992 146.355,61.539 119.744,85.318 119.744,90.415	148.998,63.992	"/><polygon style="fill-rule:evenodd;clip-rule:evenodd;" points="19.285,162.908 26.559,155.713 28.201,157.355 23.665,161.893	24.604,162.83 28.827,158.607 30.469,160.25 26.246,164.473 27.184,165.412 31.721,160.875 33.363,162.518 26.089,169.713	19.285,162.908	"/><path style="fill-rule:evenodd;clip-rule:evenodd;fill:#4D725C;" d="M55.498,163.77c-0.312,1.252-0.704,2.268-1.643,2.971	c-0.938,0.705-2.425,1.096-4.692,1.096c-2.347,0-6.57-0.156-6.57-5.084c0-5.006,4.224-5.162,6.57-5.162	c2.268,0,5.788,0.314,6.257,4.146h-4.224c-0.156-0.705-0.547-1.721-2.033-1.721c-1.564,0-2.582,0.781-2.582,2.736	s1.017,2.66,2.347,2.66c1.251,0,1.956-0.471,2.268-1.643H55.498L55.498,163.77z"/><path style="fill-rule:evenodd;clip-rule:evenodd;fill:#4D725C;" d="M42.827,162.752c0,4.303,3.207,4.85,6.335,4.85	c2.112,0,3.598-0.312,4.536-1.016c0.704-0.549,1.173-1.33,1.486-2.582c-0.548,0-3.598,0-3.833,0	c-0.391,1.096-1.173,1.643-2.425,1.643c-1.642,0-2.581-1.018-2.581-2.895c0-1.955,1.017-2.971,2.816-2.971	c1.564,0,2.033,1.094,2.19,1.641c0.312,0,3.285,0,3.833,0c-0.626-3.127-3.52-3.598-6.022-3.598	C46.034,157.824,42.827,158.451,42.827,162.752L42.827,162.752z"/><polygon style="fill-rule:evenodd;clip-rule:evenodd;fill:#4D725C;" points="65.587,157.904 75.833,157.904 75.833,160.25	69.419,160.25 69.419,161.58 75.364,161.58 75.364,163.926 69.419,163.926 69.419,165.178 75.833,165.178 75.833,167.523	65.587,167.523 65.587,157.904	"/><path style="fill-rule:evenodd;clip-rule:evenodd;fill:#4D725C;" d="M65.822,158.139c0,0.469,0,8.682,0,9.15	c0.469,0,9.308,0,9.777,0c0-0.312,0-1.486,0-1.877c-0.469,0-6.414,0-6.414,0v-1.721c0,0,5.475,0,5.944,0c0-0.391,0-1.564,0-1.877	c-0.469,0-5.944,0-5.944,0v-1.799c0,0,5.944,0,6.414,0c0-0.312,0-1.486,0-1.877C75.129,158.139,66.291,158.139,65.822,158.139	L65.822,158.139z"/><path style="fill-rule:evenodd;clip-rule:evenodd;fill:#4D725C;" d="M89.677,160.328h2.66c0.625,0,1.095,0.234,1.095,0.938	c0,0.627-0.312,0.861-1.017,0.861h-2.738V160.328L89.677,160.328z M85.923,167.523h3.754v-2.973h2.738	c0.704,0,0.938,0.471,0.938,1.174c0.078,1.096,0.078,1.564,0.234,1.799h4.145c-0.234-0.312-0.469-0.703-0.469-1.096l-0.156-2.111	c-0.078-0.859-0.548-1.33-1.095-1.486l0,0c1.095-0.391,1.486-1.328,1.486-2.189c0-1.096-0.625-2.033-1.329-2.346	c-0.548-0.314-1.173-0.391-2.269-0.391h-7.978V167.523L85.923,167.523z"/><path style="fill-rule:evenodd;clip-rule:evenodd;fill:#4D725C;" d="M86.158,158.139c0,0.469,0,8.682,0,9.15	c0.391,0,2.894,0,3.285,0c0-0.391,0-2.973,0-2.973h2.972c1.095,0,1.173,1.018,1.173,1.408l0.078,0.469c0,0.547,0,0.861,0.079,1.096	c0.313,0,2.894,0,3.598,0c-0.156-0.234-0.312-0.549-0.312-0.861l-0.157-2.111c-0.078-0.625-0.391-1.094-0.938-1.252l-0.782-0.234	l0.782-0.234c1.173-0.391,1.33-1.486,1.33-1.955c0-1.018-0.625-1.877-1.173-2.189c-0.469-0.156-1.095-0.312-2.19-0.312	C93.9,158.139,86.548,158.139,86.158,158.139L86.158,158.139z M89.442,162.127v-2.033h2.894c0.938,0,1.329,0.391,1.329,1.172	c0,0.705-0.391,1.096-1.251,1.096h-2.972V162.127L89.442,162.127z"/><polygon style="fill-rule:evenodd;clip-rule:evenodd;fill:#4D725C;" points="110.248,160.328 106.729,160.328 106.729,157.904	117.521,157.904 117.521,160.328 114.002,160.328 114.002,167.523 110.248,167.523 110.248,160.328	"/><path style="fill-rule:evenodd;clip-rule:evenodd;fill:#4D725C;" d="M106.963,158.139c0,0.391,0,1.643,0,1.955	c0.391,0,3.52,0,3.52,0s0,6.727,0,7.195c0.391,0,2.893,0,3.285,0c0-0.469,0-7.195,0-7.195s3.129,0,3.52,0c0-0.312,0-1.564,0-1.955	C116.816,158.139,107.354,158.139,106.963,158.139L106.963,158.139z"/><polygon style="fill-rule:evenodd;clip-rule:evenodd;fill:#4D725C;" points="127.219,167.523 131.053,167.523 131.053,157.904	127.219,157.904 127.219,167.523	"/><path style="fill-rule:evenodd;clip-rule:evenodd;fill:#4D725C;" d="M127.455,158.139c0,0.469,0,8.682,0,9.15	c0.391,0,2.971,0,3.361,0c0-0.469,0-8.682,0-9.15C130.426,158.139,127.846,158.139,127.455,158.139L127.455,158.139z"/><polygon style="fill-rule:evenodd;clip-rule:evenodd;fill:#4D725C;" points="141.768,157.904 151.465,157.904 151.465,160.25	145.521,160.25 145.521,161.736 150.996,161.736 150.996,164.082 145.521,164.082 145.521,167.523 141.768,167.523	141.768,157.904	"/><path style="fill-rule:evenodd;clip-rule:evenodd;fill:#4D725C;" d="M142.002,158.139c0,0.469,0,8.682,0,9.15	c0.391,0,2.895,0,3.285,0c0-0.391,0-3.441,0-3.441s5.084,0,5.475,0c0-0.312,0-1.486,0-1.877c-0.391,0-5.475,0-5.475,0v-1.955	c0,0,5.553,0,5.943,0c0-0.312,0-1.486,0-1.877C150.84,158.139,142.393,158.139,142.002,158.139L142.002,158.139z"/><polygon style="fill-rule:evenodd;clip-rule:evenodd;fill:#4D725C;" points="164.059,164.863 159.756,157.904 164.137,157.904	165.936,161.658 167.812,157.904 172.113,157.904 167.891,164.863 167.891,167.523 164.059,167.523 164.059,164.863	"/><path style="fill-rule:evenodd;clip-rule:evenodd;fill:#4D725C;" d="M167.969,158.139c-0.156,0.312-2.033,4.066-2.033,4.066	s-1.877-3.754-1.955-4.066c-0.234,0-3.129,0-3.754,0c0.391,0.703,4.066,6.646,4.066,6.646s0,2.113,0,2.504c0.391,0,2.895,0,3.285,0	c0-0.391,0-2.504,0-2.504s3.676-5.943,4.145-6.646C171.02,158.139,168.203,158.139,167.969,158.139L167.969,158.139z"/><path style="fill-rule:evenodd;clip-rule:evenodd;fill:#4D725C;" d="M46.291,181.953v-0.445c0.201,0,0.411-0.02,0.63-0.053	c0.103-0.018,0.176-0.047,0.217-0.088c0.043-0.041,0.074-0.117,0.096-0.227c0.025-0.15,0.045-0.711,0.063-1.676	c0.011-0.686,0.017-1.387,0.017-2.102c0-1.402-0.004-2.119-0.013-2.145c-0.009-0.027-0.134-0.041-0.375-0.041	c-0.492,0-0.914,0.014-1.267,0.043c-0.207,0.018-0.323,0.035-0.348,0.053c-0.027,0.018-0.047,0.049-0.062,0.094	c-0.015,0.043-0.045,0.354-0.091,0.93h-0.456c0.007-0.676-0.013-1.256-0.058-1.746l0.058-0.041	c1.115,0.049,2.198,0.074,3.251,0.074c1.05,0,2.227-0.025,3.529-0.074l0.058,0.086c-0.067,0.482-0.114,1.051-0.143,1.701h-0.44	c-0.033-0.596-0.063-0.92-0.096-0.969c-0.024-0.039-0.082-0.066-0.171-0.082c-0.282-0.045-0.843-0.068-1.686-0.068	c-0.07,0-0.114,0.012-0.128,0.033c-0.015,0.023-0.021,0.117-0.021,0.281l-0.032,3.57c0,1.035,0.009,1.67,0.027,1.906	c0.016,0.234,0.06,0.377,0.127,0.426c0.045,0.033,0.324,0.07,0.833,0.113v0.445c-0.52-0.025-1.071-0.039-1.654-0.039	C47.39,181.914,46.769,181.928,46.291,181.953L46.291,181.953z"/><path style="fill-rule:evenodd;clip-rule:evenodd;fill:#4D725C;" d="M50.213,181.947v-0.439c0.356-0.02,0.561-0.039,0.615-0.064	c0.042-0.021,0.076-0.053,0.1-0.102c0.04-0.084,0.062-0.271,0.069-0.561c0.014-0.518,0.022-0.986,0.022-1.412	c0-0.816-0.011-1.301-0.033-1.453c-0.009-0.088-0.042-0.15-0.094-0.189c-0.054-0.035-0.279-0.061-0.679-0.076v-0.408	c0.711-0.068,1.222-0.15,1.528-0.25l0.545-0.201c0.048,0,0.074,0.035,0.074,0.102l-0.004,0.074	c-0.013,0.223-0.019,0.543-0.019,0.959c0.182-0.174,0.381-0.393,0.6-0.656c0.163-0.199,0.304-0.328,0.426-0.389	c0.119-0.059,0.28-0.09,0.481-0.09c0.114,0,0.23,0.02,0.346,0.059c-0.031,0.354-0.053,0.834-0.063,1.441l-0.239,0.086	c-0.081-0.137-0.17-0.234-0.268-0.289s-0.223-0.082-0.378-0.082c-0.214,0-0.395,0.055-0.547,0.164	c-0.152,0.109-0.25,0.236-0.293,0.377c-0.027,0.105-0.041,0.467-0.041,1.084c0,0.895,0.012,1.414,0.038,1.562	c0.013,0.1,0.047,0.168,0.099,0.201c0.082,0.055,0.35,0.092,0.803,0.113v0.439l-0.594-0.016c-0.379-0.012-0.706-0.018-0.981-0.018	c-0.263,0-0.567,0.006-0.913,0.018L50.213,181.947L50.213,181.947z"/><path style="fill-rule:evenodd;clip-rule:evenodd;fill:#4D725C;" d="M54.535,177.65v-0.408c0.567-0.053,1.096-0.154,1.588-0.303	l0.525-0.186c0.063,0,0.096,0.039,0.096,0.121l-0.021,0.312c-0.06,0.814-0.091,1.6-0.091,2.355c0,0.488,0.025,0.812,0.074,0.975	c0.049,0.16,0.14,0.285,0.268,0.375c0.128,0.088,0.3,0.131,0.516,0.131c0.251,0,0.473-0.068,0.661-0.205	c0.19-0.139,0.306-0.291,0.349-0.457c0.045-0.166,0.067-0.641,0.067-1.422c0-0.625-0.011-0.992-0.033-1.098	c-0.013-0.057-0.038-0.096-0.074-0.117c-0.052-0.027-0.293-0.053-0.72-0.074v-0.408c0.724-0.082,1.256-0.178,1.597-0.287	l0.561-0.201c0.06,0,0.09,0.037,0.09,0.111l-0.011,0.143c-0.06,0.617-0.09,1.73-0.09,3.348c0,0.496,0.014,0.807,0.042,0.936	c0.018,0.059,0.047,0.1,0.085,0.125c0.056,0.033,0.279,0.062,0.667,0.092v0.439c-0.405-0.021-0.809-0.033-1.207-0.033	c-0.326,0-0.628,0.012-0.907,0.033l-0.047-0.096c0.018-0.176,0.032-0.455,0.047-0.832c-0.33,0.264-0.646,0.557-0.954,0.873	c-0.252,0.111-0.5,0.166-0.744,0.166c-0.324,0-0.608-0.066-0.848-0.197c-0.241-0.131-0.418-0.301-0.534-0.512	c-0.114-0.209-0.172-0.506-0.172-0.889l0.011-0.578c0.011-0.355,0.016-0.646,0.016-0.869c0-0.629-0.013-1.006-0.038-1.129	c-0.018-0.082-0.054-0.139-0.11-0.172C55.136,177.678,54.917,177.658,54.535,177.65L54.535,177.65z"/><path style="fill-rule:evenodd;clip-rule:evenodd;fill:#4D725C;" d="M61.917,180.223c0.019,0.455,0.04,0.711,0.069,0.764	c0.078,0.145,0.225,0.273,0.438,0.381c0.214,0.111,0.461,0.166,0.746,0.166c0.346,0,0.605-0.07,0.777-0.213	c0.172-0.141,0.257-0.328,0.257-0.562c0-0.201-0.062-0.359-0.187-0.477c-0.123-0.117-0.387-0.219-0.795-0.307	c-0.615-0.135-1.016-0.252-1.202-0.354c-0.185-0.102-0.333-0.25-0.441-0.449c-0.111-0.197-0.165-0.436-0.165-0.709	c0-0.326,0.082-0.615,0.245-0.867c0.163-0.248,0.396-0.445,0.702-0.59c0.306-0.143,0.71-0.215,1.211-0.215	c0.523,0,1.01,0.086,1.459,0.256c-0.05,0.285-0.083,0.73-0.101,1.336h-0.418c-0.021-0.383-0.051-0.607-0.09-0.674	c-0.053-0.104-0.154-0.189-0.302-0.262c-0.205-0.096-0.424-0.143-0.657-0.143c-0.297,0-0.529,0.068-0.693,0.199	c-0.165,0.133-0.247,0.299-0.247,0.502c0,0.188,0.074,0.336,0.223,0.445c0.149,0.113,0.503,0.221,1.061,0.324	c0.386,0.07,0.653,0.137,0.802,0.195c0.249,0.107,0.437,0.262,0.565,0.463c0.128,0.205,0.193,0.463,0.193,0.773	c0,0.598-0.231,1.057-0.695,1.373c-0.463,0.318-1.016,0.479-1.655,0.479c-0.213,0-0.447-0.025-0.706-0.074	c-0.258-0.049-0.54-0.123-0.843-0.219l-0.08-0.09c0.042-0.309,0.069-0.793,0.08-1.453H61.917L61.917,180.223z"/><path style="fill-rule:evenodd;clip-rule:evenodd;fill:#4D725C;" d="M65.906,177.688l0.706-0.461	c-0.007-0.627-0.025-1.174-0.052-1.645c0.483-0.148,0.939-0.33,1.369-0.541l0.159,0.121c-0.078,0.514-0.13,1.199-0.159,2.064	c0.163,0.023,0.324,0.035,0.483,0.035c0.36,0,0.683-0.021,0.97-0.066l0.047,0.031l-0.047,0.191	c-0.054,0.197-0.092,0.377-0.118,0.545c-0.413-0.033-0.717-0.049-0.913-0.049c-0.145,0-0.286,0.008-0.423,0.027	c-0.007,0.355-0.011,0.672-0.011,0.945c0,1.188,0.037,1.861,0.107,2.025c0.07,0.162,0.239,0.244,0.503,0.244	c0.078,0,0.163-0.01,0.252-0.027c0.09-0.016,0.188-0.041,0.289-0.074l0.091,0.203c-0.212,0.234-0.42,0.48-0.621,0.736	c-0.13,0.021-0.251,0.037-0.36,0.047c-0.111,0.012-0.21,0.018-0.302,0.018c-0.297,0-0.547-0.051-0.746-0.154	s-0.344-0.236-0.435-0.398c-0.091-0.164-0.136-0.404-0.136-0.727c0-0.17,0.009-0.615,0.027-1.338	c0.016-0.631,0.025-1.133,0.025-1.5l-0.271-0.012c-0.112,0-0.257,0.012-0.435,0.033V177.688L65.906,177.688z"/><path style="fill-rule:evenodd;clip-rule:evenodd;fill:#4D725C;" d="M74.139,180.918l0.154,0.152l-0.239,0.512	c-0.253,0.156-0.526,0.277-0.818,0.355c-0.292,0.08-0.603,0.121-0.93,0.121c-0.771,0-1.378-0.225-1.822-0.672	c-0.443-0.447-0.666-1.076-0.666-1.885c0-0.514,0.065-0.938,0.195-1.273c0.107-0.271,0.281-0.498,0.523-0.678	c0.242-0.182,0.521-0.352,0.838-0.516c0.315-0.162,0.663-0.244,1.041-0.244c0.58,0,1.06,0.162,1.438,0.486	c0.378,0.322,0.566,0.844,0.566,1.561c0,0.088-0.005,0.223-0.016,0.402l-0.869,0.16c-0.268,0.018-0.657,0.027-1.166,0.027h-1.149	c0.053,0.607,0.235,1.066,0.547,1.373c0.31,0.309,0.706,0.463,1.186,0.463c0.203,0,0.402-0.029,0.6-0.088	S73.945,181.031,74.139,180.918L74.139,180.918z M71.18,178.865c0.318,0.027,0.635,0.043,0.954,0.043	c0.279,0,0.572-0.016,0.88-0.043l0.005-0.248c0-0.436-0.08-0.754-0.239-0.953c-0.159-0.201-0.375-0.301-0.646-0.301	c-0.19,0-0.354,0.047-0.492,0.141s-0.241,0.225-0.308,0.395S71.216,178.391,71.18,178.865L71.18,178.865z"/><path style="fill-rule:evenodd;clip-rule:evenodd;fill:#4D725C;" d="M79.146,177.02v-0.918c0-0.568-0.013-0.9-0.038-0.992	c-0.016-0.066-0.051-0.113-0.103-0.141c-0.05-0.025-0.29-0.045-0.719-0.055v-0.383c0.845-0.092,1.555-0.26,2.129-0.508l0.138,0.127	c-0.036,0.57-0.056,1.109-0.063,1.617l-0.038,4.164c0,0.697,0.013,1.121,0.038,1.273c0.013,0.096,0.047,0.162,0.103,0.199	c0.054,0.037,0.271,0.07,0.65,0.104v0.439c-0.431-0.021-0.853-0.033-1.264-0.033c-0.297,0-0.574,0.012-0.833,0.033l-0.09-0.062	c0.043-0.359,0.072-0.646,0.09-0.865c-0.241,0.18-0.625,0.488-1.151,0.928c-0.201,0.074-0.391,0.111-0.567,0.111	c-0.586,0-1.075-0.221-1.466-0.656s-0.586-1.018-0.586-1.742c0-0.352,0.04-0.674,0.12-0.963c0.08-0.287,0.173-0.504,0.28-0.65	c0.108-0.145,0.324-0.328,0.65-0.555c0.442-0.309,0.764-0.502,0.969-0.582c0.203-0.08,0.425-0.119,0.665-0.119	c0.174,0,0.351,0.018,0.53,0.057C78.77,176.883,78.956,176.941,79.146,177.02L79.146,177.02z M79.146,178.154	c-0.167-0.236-0.354-0.414-0.566-0.529c-0.214-0.119-0.447-0.178-0.706-0.178c-0.364,0-0.643,0.131-0.839,0.391	c-0.193,0.26-0.291,0.697-0.291,1.309c0,0.629,0.12,1.1,0.358,1.41c0.239,0.312,0.543,0.467,0.914,0.467	c0.252,0,0.483-0.072,0.697-0.217s0.34-0.277,0.377-0.398c0.038-0.119,0.056-0.576,0.056-1.369V178.154L79.146,178.154z"/><path style="fill-rule:evenodd;clip-rule:evenodd;fill:#4D725C;" d="M84.567,181.953v-0.445c0.486-0.025,0.762-0.066,0.827-0.121	c0.063-0.059,0.102-0.197,0.116-0.42c0.025-0.469,0.038-1.336,0.038-2.611c0-0.486-0.007-1.195-0.022-2.121	c-0.007-0.633-0.02-0.98-0.042-1.043s-0.058-0.107-0.112-0.135c-0.078-0.039-0.346-0.072-0.805-0.102v-0.445	c0.728,0.027,1.285,0.041,1.67,0.041c0.665,0,1.266-0.014,1.803-0.041v0.445c-0.481,0.029-0.753,0.066-0.814,0.115	c-0.062,0.047-0.102,0.156-0.119,0.33c-0.031,0.34-0.047,1.029-0.047,2.064c0,1.379,0.005,2.34,0.016,2.883	c0.011,0.545,0.042,0.867,0.096,0.969c0.02,0.047,0.065,0.082,0.134,0.109c0.069,0.025,0.315,0.053,0.735,0.082v0.445l-0.626-0.016	c-0.395-0.016-0.75-0.023-1.061-0.023L84.567,181.953L84.567,181.953z"/><path style="fill-rule:evenodd;clip-rule:evenodd;fill:#4D725C;" d="M88.714,181.947v-0.439c0.386-0.021,0.603-0.053,0.651-0.094	c0.051-0.041,0.08-0.131,0.091-0.273c0.022-0.355,0.033-0.986,0.033-1.887c0-0.445-0.005-0.83-0.016-1.152	c-0.007-0.197-0.022-0.314-0.042-0.35c-0.018-0.029-0.047-0.051-0.085-0.062c-0.04-0.016-0.25-0.027-0.632-0.039v-0.408	c0.19,0,0.489-0.039,0.895-0.121c0.403-0.082,0.744-0.176,1.021-0.283l0.143-0.047c0.049,0,0.074,0.039,0.074,0.121l-0.004,0.049	c-0.009,0.098-0.013,0.354-0.013,0.762l0.82-0.688c0.104-0.088,0.208-0.148,0.319-0.18c0.156-0.043,0.344-0.064,0.567-0.064	c0.375,0,0.681,0.064,0.917,0.193c0.239,0.129,0.413,0.309,0.525,0.537c0.11,0.227,0.167,0.582,0.167,1.062	c0,0.213-0.005,0.457-0.017,0.738c-0.016,0.572-0.025,1.068-0.025,1.484c0,0.236,0.02,0.402,0.058,0.494	c0.029,0.064,0.069,0.105,0.12,0.127s0.244,0.047,0.581,0.08v0.439l-0.652-0.021l-0.42-0.012l-1.093,0.033l-0.058-0.068	c0.092-0.672,0.137-1.361,0.137-2.07c0-0.896-0.054-1.451-0.165-1.66c-0.141-0.27-0.398-0.402-0.773-0.402	c-0.241,0-0.449,0.061-0.626,0.182c-0.178,0.123-0.292,0.252-0.344,0.391c-0.025,0.057-0.038,0.234-0.038,0.537	c0,1.279,0.006,2.014,0.017,2.197c0.011,0.188,0.04,0.301,0.091,0.342c0.063,0.055,0.3,0.092,0.709,0.113v0.439	c-0.616-0.021-1.135-0.033-1.559-0.033C89.837,181.914,89.379,181.926,88.714,181.947L88.714,181.947z"/><path style="fill-rule:evenodd;clip-rule:evenodd;fill:#4D725C;" d="M95.168,177.688l0.706-0.461	c-0.007-0.627-0.025-1.174-0.053-1.645c0.484-0.148,0.94-0.33,1.37-0.541l0.158,0.121c-0.076,0.514-0.129,1.199-0.158,2.064	c0.162,0.023,0.324,0.035,0.482,0.035c0.361,0,0.684-0.021,0.971-0.066l0.047,0.031l-0.047,0.191	c-0.055,0.197-0.092,0.377-0.117,0.545c-0.412-0.033-0.717-0.049-0.912-0.049c-0.145,0-0.287,0.008-0.424,0.027	c-0.008,0.355-0.012,0.672-0.012,0.945c0,1.188,0.037,1.861,0.107,2.025c0.07,0.162,0.238,0.244,0.504,0.244	c0.076,0,0.162-0.01,0.252-0.027c0.09-0.016,0.188-0.041,0.289-0.074l0.09,0.203c-0.211,0.234-0.42,0.48-0.621,0.736	c-0.131,0.021-0.252,0.037-0.359,0.047c-0.111,0.012-0.211,0.018-0.303,0.018c-0.297,0-0.547-0.051-0.747-0.154	c-0.199-0.104-0.344-0.236-0.434-0.398c-0.091-0.164-0.136-0.404-0.136-0.727c0-0.17,0.01-0.615,0.028-1.338	c0.016-0.631,0.025-1.133,0.025-1.5l-0.271-0.012c-0.112,0-0.257,0.012-0.435,0.033V177.688L95.168,177.688z"/><path style="fill-rule:evenodd;clip-rule:evenodd;fill:#4D725C;" d="M103.4,180.918l0.154,0.152l-0.238,0.512	c-0.254,0.156-0.527,0.277-0.818,0.355c-0.293,0.08-0.604,0.121-0.932,0.121c-0.771,0-1.377-0.225-1.82-0.672	s-0.666-1.076-0.666-1.885c0-0.514,0.064-0.938,0.195-1.273c0.105-0.271,0.279-0.498,0.523-0.678	c0.242-0.182,0.521-0.352,0.838-0.516c0.314-0.162,0.662-0.244,1.041-0.244c0.578,0,1.059,0.162,1.438,0.486	c0.379,0.322,0.566,0.844,0.566,1.561c0,0.088-0.006,0.223-0.016,0.402l-0.869,0.16c-0.27,0.018-0.658,0.027-1.166,0.027h-1.15	c0.053,0.607,0.234,1.066,0.547,1.373c0.309,0.309,0.707,0.463,1.186,0.463c0.203,0,0.402-0.029,0.6-0.088	S103.207,181.031,103.4,180.918L103.4,180.918z M100.443,178.865c0.318,0.027,0.635,0.043,0.953,0.043	c0.279,0,0.572-0.016,0.881-0.043l0.004-0.248c0-0.436-0.078-0.754-0.238-0.953c-0.16-0.201-0.375-0.301-0.646-0.301	c-0.189,0-0.355,0.047-0.492,0.141c-0.139,0.094-0.24,0.225-0.309,0.395C100.529,178.068,100.479,178.391,100.443,178.865	L100.443,178.865z"/><path style="fill-rule:evenodd;clip-rule:evenodd;fill:#4D725C;" d="M104.209,181.947v-0.439c0.355-0.02,0.561-0.039,0.615-0.064	c0.041-0.021,0.076-0.053,0.1-0.102c0.039-0.084,0.061-0.271,0.068-0.561c0.014-0.518,0.021-0.986,0.021-1.412	c0-0.816-0.01-1.301-0.033-1.453c-0.008-0.088-0.041-0.15-0.094-0.189c-0.055-0.035-0.279-0.061-0.678-0.076v-0.408	c0.711-0.068,1.221-0.15,1.527-0.25l0.545-0.201c0.049,0,0.074,0.035,0.074,0.102l-0.004,0.074	c-0.012,0.223-0.018,0.543-0.018,0.959c0.182-0.174,0.381-0.393,0.6-0.656c0.162-0.199,0.303-0.328,0.426-0.389	c0.119-0.059,0.279-0.09,0.48-0.09c0.113,0,0.23,0.02,0.346,0.059c-0.031,0.354-0.053,0.834-0.062,1.441l-0.24,0.086	c-0.08-0.137-0.17-0.234-0.268-0.289s-0.223-0.082-0.379-0.082c-0.213,0-0.395,0.055-0.547,0.164	c-0.15,0.109-0.248,0.236-0.293,0.377c-0.027,0.105-0.041,0.467-0.041,1.084c0,0.895,0.012,1.414,0.037,1.562	c0.014,0.1,0.049,0.168,0.1,0.201c0.082,0.055,0.35,0.092,0.803,0.113v0.439l-0.594-0.016c-0.379-0.012-0.705-0.018-0.98-0.018	c-0.264,0-0.566,0.006-0.914,0.018L104.209,181.947L104.209,181.947z"/><path style="fill-rule:evenodd;clip-rule:evenodd;fill:#4D725C;" d="M108.625,181.947v-0.439c0.387-0.021,0.604-0.053,0.652-0.094	c0.051-0.041,0.08-0.131,0.09-0.273c0.023-0.355,0.033-0.986,0.033-1.887c0-0.445-0.006-0.83-0.016-1.152	c-0.008-0.197-0.021-0.314-0.043-0.35c-0.018-0.029-0.047-0.051-0.084-0.062c-0.041-0.016-0.25-0.027-0.633-0.039v-0.408	c0.191,0,0.49-0.039,0.895-0.121s0.744-0.176,1.021-0.283l0.143-0.047c0.049,0,0.074,0.039,0.074,0.121l-0.002,0.049	c-0.01,0.098-0.014,0.354-0.014,0.762l0.82-0.688c0.104-0.088,0.209-0.148,0.318-0.18c0.156-0.043,0.344-0.064,0.566-0.064	c0.375,0,0.682,0.064,0.918,0.193c0.24,0.129,0.414,0.309,0.525,0.537c0.111,0.227,0.166,0.582,0.166,1.062	c0,0.213-0.004,0.457-0.016,0.738c-0.016,0.572-0.025,1.068-0.025,1.484c0,0.236,0.02,0.402,0.059,0.494	c0.027,0.064,0.068,0.105,0.119,0.127s0.244,0.047,0.58,0.08v0.439l-0.65-0.021l-0.42-0.012l-1.094,0.033l-0.059-0.068	c0.092-0.672,0.137-1.361,0.137-2.07c0-0.896-0.053-1.451-0.164-1.66c-0.141-0.27-0.398-0.402-0.773-0.402	c-0.24,0-0.447,0.061-0.625,0.182c-0.178,0.123-0.293,0.252-0.346,0.391c-0.023,0.057-0.037,0.234-0.037,0.537	c0,1.279,0.006,2.014,0.016,2.197c0.012,0.188,0.041,0.301,0.092,0.342c0.062,0.055,0.301,0.092,0.709,0.113v0.439	c-0.615-0.021-1.135-0.033-1.559-0.033C109.748,181.914,109.291,181.926,108.625,181.947L108.625,181.947z"/><path style="fill-rule:evenodd;clip-rule:evenodd;fill:#4D725C;" d="M119.695,180.918l0.154,0.152l-0.24,0.512	c-0.254,0.156-0.525,0.277-0.818,0.355c-0.291,0.08-0.602,0.121-0.93,0.121c-0.771,0-1.379-0.225-1.822-0.672	s-0.666-1.076-0.666-1.885c0-0.514,0.066-0.938,0.195-1.273c0.107-0.271,0.281-0.498,0.523-0.678	c0.242-0.182,0.521-0.352,0.838-0.516c0.316-0.162,0.664-0.244,1.041-0.244c0.58,0,1.061,0.162,1.438,0.486	c0.379,0.322,0.566,0.844,0.566,1.561c0,0.088-0.004,0.223-0.016,0.402l-0.869,0.16c-0.268,0.018-0.656,0.027-1.166,0.027h-1.148	c0.053,0.607,0.234,1.066,0.547,1.373c0.309,0.309,0.705,0.463,1.186,0.463c0.203,0,0.402-0.029,0.6-0.088	S119.502,181.031,119.695,180.918L119.695,180.918z M116.736,178.865c0.318,0.027,0.635,0.043,0.955,0.043	c0.277,0,0.572-0.016,0.879-0.043l0.006-0.248c0-0.436-0.08-0.754-0.238-0.953c-0.16-0.201-0.375-0.301-0.646-0.301	c-0.191,0-0.355,0.047-0.492,0.141c-0.139,0.094-0.242,0.225-0.309,0.395S116.773,178.391,116.736,178.865L116.736,178.865z"/><path style="fill-rule:evenodd;clip-rule:evenodd;fill:#4D725C;" d="M120.512,177.688l0.705-0.461	c-0.006-0.627-0.025-1.174-0.053-1.645c0.484-0.148,0.941-0.33,1.369-0.541l0.16,0.121c-0.078,0.514-0.131,1.199-0.16,2.064	c0.164,0.023,0.324,0.035,0.484,0.035c0.359,0,0.682-0.021,0.971-0.066l0.047,0.031l-0.047,0.191	c-0.055,0.197-0.094,0.377-0.119,0.545c-0.412-0.033-0.717-0.049-0.912-0.049c-0.145,0-0.285,0.008-0.424,0.027	c-0.006,0.355-0.01,0.672-0.01,0.945c0,1.188,0.035,1.861,0.105,2.025c0.07,0.162,0.24,0.244,0.504,0.244	c0.078,0,0.164-0.01,0.252-0.027c0.09-0.016,0.188-0.041,0.289-0.074l0.09,0.203c-0.211,0.234-0.42,0.48-0.619,0.736	c-0.131,0.021-0.252,0.037-0.361,0.047c-0.109,0.012-0.209,0.018-0.303,0.018c-0.297,0-0.547-0.051-0.746-0.154	c-0.197-0.104-0.344-0.236-0.434-0.398c-0.09-0.164-0.137-0.404-0.137-0.727c0-0.17,0.01-0.615,0.027-1.338	c0.018-0.631,0.025-1.133,0.025-1.5l-0.271-0.012c-0.111,0-0.256,0.012-0.434,0.033V177.688L120.512,177.688z"/><path style="fill-rule:evenodd;clip-rule:evenodd;fill:#4D725C;" d="M127.482,179.707h0.467c0.004,0.523,0.02,0.832,0.051,0.922	c0.027,0.092,0.131,0.209,0.303,0.355c0.174,0.146,0.398,0.266,0.674,0.357c0.277,0.094,0.561,0.139,0.85,0.139	c0.498,0,0.896-0.133,1.195-0.398c0.299-0.264,0.449-0.596,0.449-0.992c0-0.363-0.1-0.643-0.297-0.838	c-0.201-0.193-0.584-0.332-1.146-0.414c-0.834-0.119-1.398-0.25-1.689-0.393c-0.291-0.141-0.521-0.354-0.689-0.635	c-0.168-0.285-0.252-0.623-0.252-1.02c0-0.664,0.234-1.227,0.703-1.689c0.469-0.461,1.217-0.691,2.246-0.691	c0.404,0,0.762,0.031,1.076,0.09c0.311,0.061,0.625,0.16,0.941,0.299l0.051,0.125c-0.055,0.223-0.096,0.424-0.119,0.605	s-0.043,0.49-0.061,0.934h-0.463c-0.018-0.545-0.043-0.85-0.078-0.918c-0.068-0.117-0.238-0.24-0.514-0.369	c-0.273-0.129-0.586-0.193-0.939-0.193c-0.484,0-0.859,0.117-1.127,0.354c-0.266,0.234-0.4,0.537-0.4,0.908	c0,0.227,0.055,0.424,0.164,0.592s0.264,0.293,0.459,0.371c0.197,0.08,0.617,0.17,1.266,0.273c0.586,0.09,0.984,0.176,1.191,0.26	c0.344,0.139,0.604,0.35,0.781,0.631c0.176,0.283,0.264,0.641,0.264,1.072c0,0.75-0.285,1.373-0.859,1.869	c-0.572,0.498-1.355,0.746-2.35,0.746c-0.441,0-0.844-0.043-1.203-0.127c-0.361-0.086-0.734-0.225-1.119-0.42	c0.062-0.246,0.105-0.471,0.127-0.674C127.461,180.559,127.479,180.182,127.482,179.707L127.482,179.707z"/><path style="fill-rule:evenodd;clip-rule:evenodd;fill:#4D725C;" d="M133.793,179.428c0-0.84,0.195-1.469,0.588-1.889	c0.471-0.498,1.15-0.748,2.037-0.748c0.885,0,1.529,0.199,1.938,0.6c0.406,0.4,0.609,1.029,0.609,1.893	c0,0.889-0.232,1.572-0.701,2.055c-0.471,0.479-1.121,0.721-1.957,0.721c-0.82,0-1.443-0.225-1.871-0.674	C134.006,180.936,133.793,180.283,133.793,179.428L133.793,179.428z M135.262,179.061c0,0.939,0.119,1.611,0.359,2.01	c0.189,0.309,0.471,0.463,0.846,0.463c0.33,0,0.582-0.131,0.762-0.393s0.27-0.738,0.27-1.428c0-0.947-0.111-1.604-0.33-1.967	c-0.182-0.291-0.463-0.436-0.844-0.436c-0.33,0-0.588,0.133-0.779,0.398C135.355,177.973,135.262,178.424,135.262,179.061	L135.262,179.061z"/><path style="fill-rule:evenodd;clip-rule:evenodd;fill:#4D725C;" d="M139.703,174.84v-0.309c0.5-0.066,0.896-0.135,1.188-0.205	c0.289-0.072,0.602-0.172,0.939-0.303l0.137,0.115c-0.053,1.264-0.08,3.025-0.08,5.289c0,0.455,0.008,0.918,0.021,1.385	c0.008,0.297,0.023,0.469,0.051,0.518c0.025,0.047,0.07,0.084,0.127,0.113c0.059,0.027,0.27,0.049,0.635,0.064v0.439l-0.559-0.016	c-0.346-0.012-0.637-0.018-0.875-0.018l-1.584,0.033v-0.439l0.393-0.021c0.178-0.008,0.291-0.041,0.342-0.098	c0.051-0.059,0.082-0.281,0.092-0.668c0.018-0.533,0.027-1.291,0.027-2.275l-0.006-2.264c-0.004-0.689-0.023-1.078-0.057-1.166	c-0.016-0.045-0.043-0.074-0.08-0.096C140.35,174.879,140.113,174.854,139.703,174.84L139.703,174.84z"/><path style="fill-rule:evenodd;clip-rule:evenodd;fill:#4D725C;" d="M143.223,177.65v-0.408c0.568-0.053,1.096-0.154,1.588-0.303	l0.525-0.186c0.064,0,0.096,0.039,0.096,0.121l-0.021,0.312c-0.059,0.814-0.09,1.6-0.09,2.355c0,0.488,0.025,0.812,0.074,0.975	c0.049,0.16,0.139,0.285,0.268,0.375c0.129,0.088,0.301,0.131,0.516,0.131c0.252,0,0.473-0.068,0.662-0.205	c0.189-0.139,0.305-0.291,0.348-0.457c0.047-0.166,0.068-0.641,0.068-1.422c0-0.625-0.012-0.992-0.033-1.098	c-0.012-0.057-0.037-0.096-0.074-0.117c-0.053-0.027-0.293-0.053-0.721-0.074v-0.408c0.725-0.082,1.256-0.178,1.598-0.287	l0.561-0.201c0.061,0,0.09,0.037,0.09,0.111l-0.01,0.143c-0.061,0.617-0.092,1.73-0.092,3.348c0,0.496,0.016,0.807,0.043,0.936	c0.018,0.059,0.047,0.1,0.084,0.125c0.057,0.033,0.279,0.062,0.668,0.092v0.439c-0.404-0.021-0.809-0.033-1.207-0.033	c-0.326,0-0.629,0.012-0.906,0.033l-0.047-0.096c0.018-0.176,0.031-0.455,0.047-0.832c-0.33,0.264-0.646,0.557-0.955,0.873	c-0.252,0.111-0.5,0.166-0.744,0.166c-0.324,0-0.607-0.066-0.848-0.197s-0.418-0.301-0.533-0.512	c-0.113-0.209-0.172-0.506-0.172-0.889l0.012-0.578c0.01-0.355,0.016-0.646,0.016-0.869c0-0.629-0.014-1.006-0.039-1.129	c-0.018-0.082-0.053-0.139-0.109-0.172C143.824,177.678,143.605,177.658,143.223,177.65L143.223,177.65z"/><path style="fill-rule:evenodd;clip-rule:evenodd;fill:#4D725C;" d="M149.773,177.688l0.707-0.461	c-0.008-0.627-0.025-1.174-0.053-1.645c0.482-0.148,0.939-0.33,1.367-0.541l0.16,0.121c-0.078,0.514-0.131,1.199-0.16,2.064	c0.164,0.023,0.324,0.035,0.484,0.035c0.359,0,0.684-0.021,0.971-0.066l0.047,0.031l-0.047,0.191	c-0.055,0.197-0.092,0.377-0.117,0.545c-0.414-0.033-0.717-0.049-0.914-0.049c-0.145,0-0.285,0.008-0.424,0.027	c-0.006,0.355-0.01,0.672-0.01,0.945c0,1.188,0.037,1.861,0.107,2.025c0.07,0.162,0.238,0.244,0.502,0.244	c0.078,0,0.164-0.01,0.252-0.027c0.092-0.016,0.189-0.041,0.289-0.074l0.092,0.203c-0.213,0.234-0.42,0.48-0.621,0.736	c-0.131,0.021-0.252,0.037-0.361,0.047c-0.109,0.012-0.209,0.018-0.301,0.018c-0.297,0-0.547-0.051-0.746-0.154	s-0.344-0.236-0.436-0.398c-0.09-0.164-0.135-0.404-0.135-0.727c0-0.17,0.008-0.615,0.027-1.338c0.016-0.631,0.025-1.133,0.025-1.5	l-0.271-0.012c-0.113,0-0.258,0.012-0.436,0.033V177.688L149.773,177.688z"/><path style="fill-rule:evenodd;clip-rule:evenodd;fill:#4D725C;" d="M155.084,174.256c0.227,0,0.42,0.08,0.58,0.242	c0.162,0.16,0.242,0.355,0.242,0.586c0,0.227-0.08,0.42-0.242,0.58c-0.16,0.162-0.355,0.242-0.586,0.242	c-0.227,0-0.42-0.08-0.582-0.242c-0.16-0.16-0.24-0.354-0.24-0.58c0-0.23,0.08-0.426,0.24-0.586	C154.658,174.336,154.854,174.256,155.084,174.256L155.084,174.256z M153.604,181.947v-0.439c0.398-0.016,0.629-0.039,0.693-0.074	c0.061-0.037,0.102-0.135,0.119-0.297c0.027-0.223,0.041-0.715,0.041-1.477c0-0.326-0.006-0.631-0.016-0.912l-0.018-0.619	c0-0.207-0.021-0.332-0.064-0.381c-0.045-0.047-0.164-0.074-0.359-0.08l-0.396-0.018v-0.408c0.852-0.064,1.555-0.215,2.107-0.451	l0.131,0.107c-0.049,0.676-0.074,1.658-0.074,2.949c0,0.746,0.014,1.195,0.039,1.352c0.016,0.111,0.049,0.182,0.098,0.213	c0.047,0.031,0.279,0.062,0.697,0.096v0.439c-0.643-0.021-1.137-0.033-1.486-0.033	C154.928,181.914,154.422,181.926,153.604,181.947L153.604,181.947z"/><path style="fill-rule:evenodd;clip-rule:evenodd;fill:#4D725C;" d="M157.322,179.428c0-0.84,0.195-1.469,0.588-1.889	c0.471-0.498,1.148-0.748,2.037-0.748c0.885,0,1.529,0.199,1.936,0.6c0.408,0.4,0.611,1.029,0.611,1.893	c0,0.889-0.234,1.572-0.703,2.055c-0.469,0.479-1.121,0.721-1.955,0.721c-0.82,0-1.445-0.225-1.871-0.674	C157.535,180.936,157.322,180.283,157.322,179.428L157.322,179.428z M158.789,179.061c0,0.939,0.119,1.611,0.361,2.01	c0.188,0.309,0.471,0.463,0.846,0.463c0.328,0,0.582-0.131,0.762-0.393s0.268-0.738,0.268-1.428c0-0.947-0.109-1.604-0.33-1.967	c-0.18-0.291-0.461-0.436-0.844-0.436c-0.328,0-0.588,0.133-0.777,0.398C158.883,177.973,158.789,178.424,158.789,179.061	L158.789,179.061z"/><path style="fill-rule:evenodd;clip-rule:evenodd;fill:#4D725C;" d="M163.23,181.947v-0.439c0.387-0.021,0.604-0.053,0.652-0.094	c0.051-0.041,0.08-0.131,0.09-0.273c0.021-0.355,0.033-0.986,0.033-1.887c0-0.445-0.006-0.83-0.018-1.152	c-0.006-0.197-0.021-0.314-0.041-0.35c-0.018-0.029-0.047-0.051-0.084-0.062c-0.041-0.016-0.25-0.027-0.633-0.039v-0.408	c0.189,0,0.488-0.039,0.895-0.121c0.404-0.082,0.744-0.176,1.021-0.283l0.143-0.047c0.049,0,0.074,0.039,0.074,0.121l-0.004,0.049	c-0.008,0.098-0.012,0.354-0.012,0.762l0.82-0.688c0.104-0.088,0.207-0.148,0.318-0.18c0.156-0.043,0.344-0.064,0.566-0.064	c0.375,0,0.68,0.064,0.918,0.193s0.412,0.309,0.525,0.537c0.109,0.227,0.166,0.582,0.166,1.062c0,0.213-0.006,0.457-0.016,0.738	c-0.018,0.572-0.025,1.068-0.025,1.484c0,0.236,0.02,0.402,0.057,0.494c0.029,0.064,0.07,0.105,0.121,0.127s0.244,0.047,0.58,0.08	v0.439l-0.652-0.021l-0.42-0.012l-1.092,0.033l-0.059-0.068c0.092-0.672,0.137-1.361,0.137-2.07c0-0.896-0.055-1.451-0.164-1.66	c-0.141-0.27-0.398-0.402-0.773-0.402c-0.24,0-0.449,0.061-0.627,0.182c-0.178,0.123-0.291,0.252-0.344,0.391	c-0.025,0.057-0.037,0.234-0.037,0.537c0,1.279,0.006,2.014,0.016,2.197c0.012,0.188,0.039,0.301,0.09,0.342	c0.064,0.055,0.301,0.092,0.711,0.113v0.439c-0.615-0.021-1.135-0.033-1.559-0.033C164.354,181.914,163.895,181.926,163.23,181.947	L163.23,181.947z"/><path style="fill-rule:evenodd;clip-rule:evenodd;fill:#4D725C;" d="M170.518,180.223c0.018,0.455,0.041,0.711,0.068,0.764	c0.078,0.145,0.225,0.273,0.439,0.381c0.213,0.111,0.461,0.166,0.746,0.166c0.346,0,0.604-0.07,0.775-0.213	c0.172-0.141,0.258-0.328,0.258-0.562c0-0.201-0.062-0.359-0.188-0.477c-0.123-0.117-0.387-0.219-0.793-0.307	c-0.617-0.135-1.018-0.252-1.203-0.354s-0.334-0.25-0.441-0.449c-0.111-0.197-0.166-0.436-0.166-0.709	c0-0.326,0.082-0.615,0.246-0.867c0.162-0.248,0.396-0.445,0.701-0.59c0.307-0.143,0.711-0.215,1.211-0.215	c0.523,0,1.012,0.086,1.459,0.256c-0.049,0.285-0.082,0.73-0.1,1.336h-0.42c-0.021-0.383-0.051-0.607-0.09-0.674	c-0.053-0.104-0.154-0.189-0.303-0.262c-0.203-0.096-0.424-0.143-0.656-0.143c-0.297,0-0.529,0.068-0.693,0.199	c-0.166,0.133-0.246,0.299-0.246,0.502c0,0.188,0.074,0.336,0.223,0.445c0.148,0.113,0.502,0.221,1.061,0.324	c0.385,0.07,0.654,0.137,0.803,0.195c0.248,0.107,0.436,0.262,0.564,0.463c0.129,0.205,0.193,0.463,0.193,0.773	c0,0.598-0.232,1.057-0.695,1.373c-0.463,0.318-1.016,0.479-1.654,0.479c-0.215,0-0.447-0.025-0.707-0.074	c-0.258-0.049-0.539-0.123-0.844-0.219l-0.078-0.09c0.041-0.309,0.068-0.793,0.078-1.453H170.518L170.518,180.223z"/></g></svg>