<?xml version="1.0" encoding="iso-8859-1"?><!-- Generator: Adobe Illustrator 16.0.0, SVG Export Plug-In . SVG Version: 6.00 Build 0) --><!DOCTYPE svg PUBLIC "-//W3C//DTD SVG 1.1//EN" "http://www.w3.org/Graphics/SVG/1.1/DTD/svg11.dtd"><svg version="1.1" id="Layer_1" xmlns="http://www.w3.org/2000/svg" xmlns:xlink="http://www.w3.org/1999/xlink" x="0px" y="0px" width="192.756px" height="192.756px" viewBox="0 0 192.756 192.756" style="enable-background:new 0 0 192.756 192.756;" xml:space="preserve"><g><polygon style="fill-rule:evenodd;clip-rule:evenodd;fill:#FFFFFF;" points="0,0 192.756,0 192.756,192.756 0,192.756 0,0	"/><path style="fill-rule:evenodd;clip-rule:evenodd;fill:#CC2229;" d="M104.416,32.575c35.787,0,64.977,29.188,64.977,64.976	c0,35.791-29.189,64.979-64.977,64.979c-35.789,0-64.978-29.188-64.978-64.979C39.438,61.764,68.627,32.575,104.416,32.575	L104.416,32.575z"/><path style="fill-rule:evenodd;clip-rule:evenodd;" d="M104.416,50.812c25.742,0,46.74,20.996,46.74,46.739	c0,25.746-20.998,46.742-46.74,46.742c-25.745,0-46.741-20.996-46.741-46.742C57.675,71.808,78.671,50.812,104.416,50.812	L104.416,50.812z"/><path style="fill:#FFFFFF;" d="M152.023,108.629c1.947-0.619,3.582-0.811,5.566,0.701c2.893,2.203,6.738,5.846,11.092,5.695	c1.568-0.053,3.238-0.312,3.238-1.965c0.002-3.17-5.672-5.387-6.766-8.143c0.441-0.285,1.926-0.662,2.539-0.645	c1.457-0.168,6.395,1.445,9.889,1.316c1.973-0.072,3.578-0.414,3.699-2.494c0.182-3.092-2.893-4.684-6.559-5.867	c-4.289-1.386-9.414-2.022-11.449-2.506c0.818-1.995,3.018-3.989,4.979-5.837c1.896-1.633,7.197-4.03,7.268-7.005	c0.051-2.06-1.533-2.36-3.207-2.462c-3.521-0.216-6.168,0.86-9.184,2.407c-2.881,1.477-5.676,3.299-8.744,4.456	c-0.799,0.279-2.178,0.445-3.549,0.458c-1.459,0.015-2.908-0.142-3.633-0.518c-1.416-0.875-2.072-4.34-2.316-5.917	c-1.117-7.223-7.291-14.013-13.467-17.364l0,0c-4.77-2.588-8.605-3.002-13.096-3.486c-1.654-0.178-3.352-0.529-5.004-0.616	c-0.002-2-0.953-3.95-1.521-5.868c-0.916-3.096-2.742-5.704-3.777-8.762c-1.355-4.008,0.316-8.182-0.949-12.316	c0.479-0.01,1.387-0.334,1.402-0.77c0.031-0.831-0.883-2.068-0.41-2.288c5.123-1.171,7.889-1.77,9.613-4.649	c-0.002-0.001-0.002-0.001-0.002-0.002c0.254-0.685,0.555-1.041,0.809-1.727c0.066-0.783-0.119-1.19-0.482-1.341	c-1.189-0.494-3.598,0.8-5.504,0.657c-0.635-0.047-1.219-0.296-1.693-0.894c-2.678-2.679-1.355-7.224-6.344-7.393	c-4.588-0.156-9.728,2.492-12.728,5.554c-0.938,1.192-1.764,0.968-2.305,0.968c-1.432,0.001-2.722-0.164-3.95,0.126	c-1.794,0.424-3.382,1.329-4.829,3.09c-0.373,0.444-0.704,0.756-1.178,1.089c-4.503,3.152-5.407,9.579-8.126,14.078	c-1.408,2.331-3.118,4.894-5.231,6.632c-2.595,2.134-3.534,4.683-5.035,7.51c-2.14,4.028-1.683,6.577-0.07,10.345	c1.235,1.738,1.548,3.319,2.193,5.569c-3.208,2.23-7.744,5.59-9.61,9.007c-2.137,3.916-6.479,5.661-9.528,8.671	c-1.097,0.786-2.395,1.773-3.491,2.559c-4.869-2.471-9.61-5.26-14.62-7.55c-1.458-0.667-8.823-4.177-12.967-3.916	c-1.921,0.122-3.387,1.703-2.186,3.255c1.771,2.292,5.795,3.867,7.308,5.99c-2.686,2.2-8.626,3.682-8.305,6.667	c0.106,0.992,1.912,1.993,3.974,1.929c2.518-0.077,4.649-0.193,5.618,0.136c-0.053,2.224-3.153,3.888-4.377,5.605	c-0.599,0.838-0.776,1.729,0.015,2.781c1.404,1.967,7.718-0.361,9.356-0.859c1.816,0.854,6.223,4.137,8.098,3.842	c0.667,0.146,1.402-0.176,2.069-0.027c3.556,1.572,5.034,5.746,8.872,6.488c0.774,0.15,1.469,0.482,2.187-0.057	c1.994-1.361,1.714-3.703,0.59-6.496c1.662-0.506,4.24-1.168,5.624-2.168v0.002c2.035-1.471,4.314-2.562,6.409-3.943	c1.767-1.166,3.374-1.473,5.405-1.893c0.157,1.967,0.621,3.791,1.337,5.627c0.965,2.477,1.722,5.359,3.044,7.635	c3.423,5.895,8.007,12.291,14.038,15.758c-0.076,0.16-0.151,0.322-0.226,0.482c-0.16,0.34-0.321,0.68-0.48,1.02	c0,0,0.001,0,0.003,0c-0.751,1.086-4.804,3.861-5.716,5.436c7.947,6.219,17.938,9.934,28.773,9.934	c22.066,0,40.65-15.406,45.547-36.012l1.986,0.744L152.023,108.629L152.023,108.629z"/><path d="M85.316,50.319c0.181-0.608,1.884,0.987,3.123,0.883c0.415-0.034,0.812-0.27,1.042-0.921	c0.241-0.687,0.579-1.07,0.849-1.053c0.212,0.014,0.282,0.977,0.061,1.765c-0.25,0.893-1.368,2.024-2.33,1.974	C86.92,52.908,85.017,51.323,85.316,50.319L85.316,50.319z M95.736,37.478c0.156,0.421,0.128,0.903,0.044,1.978	s-0.986,2.533-1.642,2.495c-0.656-0.038-1.466-1.493-1.316-3.117c0.122-1.326,0.92-3.048,2.477-2.901	c0.525,0.05,1.023,0.533,1.328,1.176c0.307,0.643,0.416,1.447,0.38,1.889c-0.014,0.18-0.101,0.208-0.148,0.213	c-0.077,0.008-0.14-0.093-0.248-0.363C96.429,38.391,96.258,37.681,95.736,37.478L95.736,37.478z M84.912,36.093	c0.189,0.311,0.365,0.653,0.365,1.729s-0.849,2.885-1.519,2.908c-0.669,0.023-1.628-1.379-1.628-3.042	c0-1.358,0.601-3.178,2.246-3.178c0.539,0,1.089,0.445,1.459,1.069c0.371,0.625,0.555,1.424,0.531,1.883	c0.001,0.161-0.19,0.129-0.234,0c-0.09-0.197-0.194-0.388-0.313-0.571C85.571,36.515,85.235,36.133,84.912,36.093L84.912,36.093z M86.127,58.715c1.386,0,2.517,1.678,2.517,3.734c0,2.057-1.131,3.734-2.517,3.734c-1.386,0-2.516-1.677-2.516-3.734	C83.611,60.394,84.741,58.715,86.127,58.715L86.127,58.715z M45.996,102.453c0.646-0.172-0.033,2.17,0.062,2.607	c1.719-0.428,4.262-1.002,5.597-2.336c4.095-3.039,8.189-4.893,12.284-6.316c0.927-0.174,5.53-0.86,5.157,0.074	c-0.542,0.584-1.932,1.107-3.252,1.363c-0.026,2.949,0.91,6.365,2.486,9.119c2.797,7.002,8.527,13.865,14.958,17.92	c3.467,2.186,12.04,5.654,19.762,7.426c6.914,1.584,10.494,1.295,12.365,1.939c0.404,1.305-4.104,0.771-6.98,0.568	c-8.295-0.588-21.086-5.172-24.553-7.002c-1.162,2.758-4.755,5.014-6.918,6.979c-0.543,0.494-1.086,0.988-1.442,0.412	c-0.724-1.17,4.935-4.908,5.837-6.213c-0.001,0-0.002,0-0.003,0c0.236-0.5,0.471-1.002,0.707-1.502	c-6.031-3.467-10.615-9.863-14.038-15.758c-1.322-2.275-2.079-5.158-3.044-7.635c-0.716-1.836-1.18-3.66-1.337-5.627	c-2.031,0.42-3.639,0.727-5.405,1.893c-2.095,1.381-4.374,2.473-6.409,3.943v-0.002c-1.384,1-3.961,1.662-5.624,2.168	c1.125,2.793,1.404,5.135-0.59,6.496c-0.718,0.539-1.413,0.207-2.187,0.057c-3.837-0.742-5.315-4.916-8.872-6.488	c-0.667-0.148-1.402,0.174-2.069,0.027c-1.875,0.295-6.282-2.988-8.098-3.842c-1.639,0.498-7.953,2.826-9.356,0.859	c-0.791-1.053-0.614-1.943-0.015-2.781c1.224-1.717,4.324-3.381,4.377-5.605c-0.969-0.329-3.101-0.213-5.618-0.136	c-2.062,0.064-3.868-0.937-3.974-1.929c-0.321-2.986,5.62-4.468,8.305-6.667c-1.512-2.124-5.537-3.699-7.308-5.99	c-1.201-1.553,0.265-3.134,2.186-3.255c4.144-0.262,11.508,3.249,12.967,3.916c5.01,2.29,9.75,5.079,14.62,7.55	c1.096-0.786,2.395-1.773,3.491-2.559c3.049-3.01,7.391-4.755,9.528-8.671c1.866-3.417,6.402-6.776,9.61-9.007	c-0.646-2.25-0.958-3.831-2.193-5.569c-1.612-3.768-2.07-6.317,0.07-10.345c1.5-2.827,2.44-5.375,5.035-7.51	c2.113-1.739,3.823-4.302,5.231-6.632c2.719-4.499,3.623-10.926,8.126-14.078c0.474-0.333,0.805-0.645,1.178-1.089	c1.446-1.761,3.034-2.666,4.829-3.09c1.228-0.29,2.518-0.125,3.95-0.126c0.541,0,1.367,0.224,2.305-0.968	c3-3.062,8.14-5.71,12.728-5.554c4.988,0.169,3.666,4.714,6.344,7.393c0.475,0.598,1.059,0.847,1.693,0.894	c1.906,0.143,4.314-1.151,5.504-0.657c0.363,0.151,0.549,0.558,0.482,1.341c-0.254,0.686-0.555,1.042-0.809,1.727	c0,0.001,0,0.001,0.002,0.002c-1.725,2.879-4.49,3.478-9.613,4.649c-0.473,0.219,0.441,1.457,0.41,2.288	c-0.016,0.436-0.924,0.76-1.402,0.77c1.266,4.134-0.406,8.308,0.949,12.316c1.035,3.058,2.861,5.666,3.777,8.762	c0.568,1.917,1.52,3.868,1.521,5.868c1.652,0.087,3.35,0.438,5.004,0.616c4.49,0.484,8.326,0.898,13.096,3.486l0,0	c6.176,3.351,12.35,10.141,13.467,17.364c0.244,1.578,0.9,5.043,2.316,5.917c0.725,0.375,2.174,0.532,3.633,0.518	c1.371-0.013,2.75-0.179,3.549-0.458c3.068-1.157,5.863-2.979,8.744-4.456c3.016-1.547,5.662-2.623,9.184-2.407	c1.674,0.102,3.258,0.402,3.207,2.462c-0.07,2.976-5.371,5.372-7.268,7.005c-1.961,1.848-4.16,3.843-4.979,5.837	c2.035,0.484,7.16,1.12,11.449,2.506c3.666,1.184,6.74,2.775,6.559,5.867c-0.121,2.08-1.727,2.422-3.699,2.494	c-3.494,0.129-8.432-1.484-9.889-1.316c-0.613-0.018-2.098,0.359-2.539,0.645c1.094,2.756,6.768,4.973,6.766,8.143	c0,1.652-1.67,1.912-3.238,1.965c-4.354,0.15-8.199-3.492-11.092-5.695c-2.443-1.861-4.773-0.676-7.391-0.086	c-1.855,0.754-8.865,0.867-11.039,0.295c-4.207,1.557-7.053,1.633-11.562,1.361c-1.408-0.592-2.186-1.666-2.164-2.846	c0.051-2.791,3.393-6.467,4.877-7.867c-2.018-1.707-3.568-2.281-4.289-5.054c-0.393-1.52,0.281-2.99,0.982-1.725	c0.1,0.181,0.707,0.228,0.781,0.537c0,0,0-0.001,0-0.001c0.732,2.787,2.119,3.408,3.877,5.246c0.893-0.348,0.688-1.328,2.363-1.785	c0.52-0.078,0.562,0.49,0.264,1.039c-0.385,0.707-1.252,1.469-1.508,1.674c-1.045,0.836-2.24,1.438-3.18,2.6	c-0.623,0.771-2.418,3.328-2.316,4.258c0.148,1.342,0.896,1.801,1.812,2.033c4.439,1.131,10.375-0.877,15.16-2.703	c0.887-0.34,1.797-1.059,2.523-0.975c0.719,0.777-2.209,2.242-4.105,2.93c1.469,0.408,2.924,0.57,4.279,0.277	c2.773-0.602,5.318-2.145,8.168-1.951c4.305,0.293,7.637,6.799,12.82,7.211c0.064,0.004,0.127,0.008,0.189,0.01	c0.936,0.027,1.695-0.312,1.516-1.281c-0.613-3.309-6.379-6.527-7.289-7.828c-0.506-0.723,4.412-1.723,5.119-1.742	c3.02-0.084,6.369,1.473,9.152,1.125c4.736-0.594,0.561-4.746-1.705-5.359c-3.555-0.963-7.889-2.199-11.57-2.8	c-0.098,0.929,0.129,2.181-0.42,2.464c-0.855,0.012-1.066-1.514-1.133-3.041c-0.049-1.111,2.432-4.204,3.162-5.037	c1.486-1.701,3.221-3.193,5.119-4.38c0-0.668,5.465-2.844,2.689-4.387c-3.393-1.793-7.771,0.911-10.771,2.492	c-3.143,1.481-6.287,2.963-9.43,4.444c-1.459,0.439-2.01,0.677-3.436,1.205c-1.289,0.438-0.082-1.212-0.008-1.688	c-1.369,0.038-3.133,0.218-4.678,0.386c-2.297-0.995-1.479-6.526-2.414-9c-2.352-6.156-6.762-12.118-12.57-15.143	c-2.309-1.201-4.629-2.273-7.15-2.76c-3.043-0.586-6.309-0.486-9.328-0.891c-0.836,5.136-2.645,7.946-6.012,11.898	c-0.488,0.574-0.51,0.502-0.637,0.387c-0.074-0.068-0.609,0.245-0.154-0.458c2.576-3.97,5.682-8.594,5.408-12.645	c-0.246-3.624-1.189-6.302-3.018-9.517c-0.959-1.687-1.574-3.218-1.996-4.83c-1.152-4.406,0.59-8.646-1.15-13.195	c-0.258-1.996-1.879-3.834-2.281-5.014c-0.178-0.523,0.357-0.84,0.771-0.337c0.797,0.967,1.348,2.319,2.145,3.286	c-0.031-1.013,0.162-2.103,0.885-2.289c0.607-0.156,1.527-0.116,2.229-0.454c0.697,0.176,7.965-2.461,7.58-4.503	c-0.158-0.84-3.098,0.507-3.77,0.595c0,0,0,0.001,0,0.002c-0.107,0.008-0.215,0.012-0.324,0.012	c-5.559-0.003-4.424-7.652-8.635-7.975c-0.734-0.056-1.584-0.163-2.551,0.15c-5.618,0.277-8.341,6.287-13.031,6.034	c-2.152-0.116-4.745,0.3-6.243,2.083c-0.72,0.857-1.648,1.98-2.565,2.622c-1.875,1.311-2.95,4.67-4.128,6.896	c-1.621,4.149-4.203,8.326-7.157,11.64c-1.268,1.421-3.327,2.962-4.114,4.693c-1.369,3.012-3.308,5.415-2.657,8.892	c0.42,2.243,2.292,6.482,3.282,8.19c0.369,0.638,1.33,2.2,2.234,3.62c0.799,1.252,1.72,2.475,0.912,3.056	c-0.364,0.262-2.119-2.712-3.907-3.901c-2.239,1.57-4.157,3.273-6.272,4.96c-2.299,1.833-3.274,4.537-5.417,6.596	c-1.602,1.536-3.271,2.941-5.118,4.172c-1.83,1.219-3.407,3.104-5.285,4.236c0.459,0.191,3.182,0.756,2.824,1.483	c-0.449,0.912-2.845,0.268-4.099-0.132c-1.99-0.635-4.049-1.631-5.092-2.413c-1.216-0.658-11.946-6.579-12.565-6.88	c-2.989-1.453-7.095-2.81-9.117-2.869c-0.675-0.021-1.148,0.015-1.322,0.449c-0.228,0.263-0.254,0.542-0.134,0.831	c0.519,1.25,3.914,2.9,5.466,4.204c0.779,0.655,4.188,3.357,3.891,5.182c-0.137,0.841-2.421-1.159-3.125-1.981	c-1.162,0.696-2.55,1.615-3.705,2.324c0-0.001,0-0.002,0-0.003c-0.391,0.241-3.436,2.084-3.171,2.479	c-0.125,2.736,6.243,1.461,8.257,1.833c1.314,0.242,4.344,2.641,3.508,3.317c-0.221,0.158-0.548-0.201-0.904-0.393	c-0.784-0.42-1.706-1.086-1.932-1.129c-0.754,1.487-2.195,3.649-3.483,4.682c-0.055,0.045-0.767,0.604-0.74,0.656c0,0,0,0,0,0	c0.005,0.102,0.01,0.201,0.015,0.303c-0.211,0.844,0.139,1.23,0.769,1.344c1.386,0.25,4.529-0.682,5.632-1.076	c-0.743-0.816-0.698-2.51,0.008-2.158c1.318,0.656,6.005,4.328,7.755,5.402c0.4-0.584,0.362-1.273,0.816-1.461	c1.362-0.564,3.118,1.232,4.541,1.861c3.098,1.369,3.797,3.609,6.301,5.52c0.684,0.521,1.753,0.443,2.567,0.627	c1.311-1.809,0.003-3.264-0.357-5.061C44.26,105.057,45.495,102.588,45.996,102.453L45.996,102.453z M16.591,101.119	c-0.008,0.002-0.016,0.006-0.023,0.01C16.576,101.125,16.583,101.121,16.591,101.119L16.591,101.119z M83.113,32.28	c-0.133,0.746-0.455,1.051-0.852,1.111c-0.357,0.053-0.686-0.353-0.603-1.075c0.169-1.48,1.934-3.045,3.057-3.527	c0.511-0.22,0.911-0.229,0.924,0.09c0.012,0.305-2.33,1.434-2.43,2.643C83.176,31.774,83.145,32.027,83.113,32.28L83.113,32.28z M94.578,29.227c0.307-0.322,0.668-0.037,1.046,0.034c1.64,0.309,3.619,3.277,3.048,3.917c-0.273,0.157-1.404-0.744-2.411-1.728	C95.252,30.465,94.178,29.586,94.578,29.227L94.578,29.227z"/><polygon style="fill:#CC2229;" points="152.305,83.713 143.285,65.576 50.425,113.352 59.148,131.791 152.305,83.713	"/></g></svg>