<?xml version="1.0" encoding="iso-8859-1"?><!-- Generator: Adobe Illustrator 16.0.0, SVG Export Plug-In . SVG Version: 6.00 Build 0) --><!DOCTYPE svg PUBLIC "-//W3C//DTD SVG 1.1//EN" "http://www.w3.org/Graphics/SVG/1.1/DTD/svg11.dtd"><svg version="1.1" id="Layer_1" xmlns="http://www.w3.org/2000/svg" xmlns:xlink="http://www.w3.org/1999/xlink" x="0px" y="0px" width="192.756px" height="192.756px" viewBox="0 0 192.756 192.756" style="enable-background:new 0 0 192.756 192.756;" xml:space="preserve"><g><polygon style="fill-rule:evenodd;clip-rule:evenodd;fill:#FFFFFF;" points="0,0 192.756,0 192.756,192.756 0,192.756 0,0	"/><path style="fill-rule:evenodd;clip-rule:evenodd;fill:#272727;" d="M92.628,59.146c-1.176-1.273-2.646-1.959-4.409-1.959	c-1.862,0-3.332,0.686-4.409,1.959c-1.176,1.176-1.862,2.646-1.862,4.409s0.686,3.233,1.862,4.409	c1.078,1.273,2.547,1.959,4.409,1.959c1.763,0,3.233-0.686,4.409-1.959c1.078-1.176,1.764-2.646,1.764-4.409	S93.707,60.322,92.628,59.146L92.628,59.146z M82.145,80.016v33.312c0,4.115,1.959,6.074,6.075,6.074	c4.017,0,5.977-1.959,5.977-6.074V80.016c0-4.017-1.959-5.977-5.977-5.977C84.104,74.039,82.145,75.999,82.145,80.016	L82.145,80.016z"/><path style="fill-rule:evenodd;clip-rule:evenodd;fill:#272727;" d="M117.613,86.384c-2.352,2.449-3.43,6.271-3.43,11.168	c0,3.725,0.783,6.859,2.547,8.918c1.863,2.352,4.41,3.428,7.742,3.428c2.938,0,5.389-1.273,7.348-3.918l2.057-2.549	c0.98-0.881,2.156-1.176,3.625-1.176c1.471,0,2.646,0.49,3.627,1.275c0.979,0.881,1.469,1.959,1.469,3.135	c0,3.135-1.469,6.074-4.605,8.523c-3.625,2.744-8.131,4.213-13.912,4.213c-7.152,0-12.738-2.154-16.656-6.172	c-3.527-3.822-5.389-9.014-5.389-15.678c0-7.053,1.959-12.736,5.879-17.047c4.115-4.409,9.699-6.467,16.852-6.467	c4.898,0,9.111,1.078,12.736,3.43c3.43,2.253,5.096,4.899,5.096,7.838c0,1.568-0.686,2.939-1.861,3.919	c-0.98,0.784-2.254,1.274-3.92,1.274c-1.078,0-2.252-0.294-3.037-0.98l-1.959-2.45c-1.861-2.449-4.311-3.723-7.348-3.723	C121.631,83.347,119.377,84.327,117.613,86.384L117.613,86.384z"/><path style="fill-rule:evenodd;clip-rule:evenodd;fill:#272727;" d="M176.4,87.364c1.469,2.352,2.254,5.389,2.254,9.21	c0,3.723-0.686,6.662-2.156,8.916c-1.764,3.135-4.213,4.605-7.643,4.408c-3.43,0-5.879-1.469-7.643-4.506	c-1.371-2.352-1.959-5.291-1.959-8.818c0-3.821,0.783-6.859,2.449-9.21c1.764-2.547,4.018-3.919,7.152-4.017	C172.285,83.347,174.734,84.621,176.4,87.364L176.4,87.364z M152.984,79.525c-3.725,4.115-5.684,9.994-5.684,17.539	c0,6.172,1.469,11.365,4.605,15.48c3.232,4.604,7.936,6.857,14.01,6.857c5.586,0,9.504-2.154,11.953-6.172h0.1v16.166	c0,4.018,1.959,6.174,6.074,6.174c3.918,0,5.879-2.156,5.879-6.174V79.722c0-3.723-1.764-5.683-5.389-5.683	s-5.389,1.96-5.389,5.683v1.959h-0.197c-2.057-5.095-6.367-7.643-12.736-7.643C160.822,74.039,156.412,75.802,152.984,79.525	L152.984,79.525z"/><path style="fill-rule:evenodd;clip-rule:evenodd;fill:#272727;" d="M27.473,61.106c-2.156-0.49-3.919-0.294-5.781,0.686	c-2.058,1.274-3.233,3.233-3.723,5.977c-0.49,2.842,0,5.585,1.47,8.328l0.686,0.98l-2.352-0.784	c-2.939-0.686-5.683-0.294-8.426,1.176c-2.841,1.469-4.605,3.527-5.781,6.369c-1.078,2.743-0.979,5.389,0.392,7.838	c0.588,1.078,1.47,1.959,2.253,2.547c1.176,1.176,2.646,1.862,4.409,2.156l0.686,0.196l-1.47,1.273	c-1.372,1.176-2.155,2.646-2.645,4.115c-0.49,1.764-0.294,3.527,0.686,5.193c0.49,0.783,0.979,1.469,1.763,1.959	c0.784,0.686,1.764,1.176,2.939,1.273c2.156,0.49,4.409,0.49,6.858-0.293l-1.764,2.939l-0.49,1.273	c-0.979,3.135-0.686,5.879,0.784,8.719c0.686,1.078,1.47,2.059,2.253,2.939c1.176,1.078,2.646,1.764,4.409,2.254	c2.939,0.785,5.879,0.686,8.72-0.783c2.744-1.471,4.507-3.822,5.389-6.762l0.098-0.588c1.861,2.059,3.625,3.43,5.585,3.92	c1.959,0.588,3.919,0.49,5.683-0.686c1.666-0.98,2.841-2.646,3.429-4.703c0.49-2.156,0.49-4.311,0-6.76	c0.98,0.686,1.959,1.176,3.135,1.469c3.135,0.98,5.879,0.883,8.622-0.588c2.646-1.469,4.409-3.82,5.291-6.857	c0.784-2.939,0.588-5.781-0.882-8.525l-0.49-0.783c-0.784-1.176-1.567-2.352-2.743-3.136c-0.979-0.686-2.155-1.176-3.233-1.666	c3.038-1.47,5.193-3.527,6.173-6.173c0.686-2.155,0.49-3.919-0.49-5.683v-0.196c-1.175-1.959-2.743-3.233-5.192-3.919	c-1.47-0.294-3.136-0.294-4.605-0.196l-3.234,0.686l1.078-2.45c0.98-3.135,0.686-6.172-0.979-9.014l-0.294-0.49	c-1.47-2.449-3.625-3.919-6.564-4.703c-3.038-0.784-5.879-0.49-8.623,0.979c-2.743,1.47-4.703,3.723-5.584,6.663v0.195	l-0.098,0.686l-0.392-0.686L33.45,65.71C31.882,63.261,29.922,61.792,27.473,61.106L27.473,61.106z M52.458,66.984	c0.49,0.98,0.784,2.156,0.784,3.429l-0.294,2.155c-0.392,1.078-0.882,2.058-1.47,2.939L42.66,86.286	c-0.882-0.686-1.862-1.176-2.842-1.666l-0.979-11.072L38.74,69.63l0.098-0.98c0.49-1.959,1.861-3.429,3.625-4.409	c1.764-0.98,3.723-1.176,5.585-0.49C50.106,64.241,51.576,65.319,52.458,66.984L52.458,66.984z M22.084,68.944	c0.098-1.764,0.784-2.939,1.959-3.625c0.588-0.49,1.47-0.49,2.254-0.098c1.764,0.49,3.233,1.764,4.409,4.213	c0.49,0.979,0.98,1.959,1.176,3.135l1.959,11.562l-1.47,0.49l-8.72-9.504l-0.49-0.979C22.378,72.373,21.888,70.708,22.084,68.944	L22.084,68.944z M16.793,80.408l2.646,1.077l8.623,6.271c-0.784,0.98-1.274,1.959-1.568,2.939l-14.108,1.764l-0.98-0.196	c-1.764-0.294-2.939-1.078-3.723-2.547s-0.784-2.939-0.196-4.409c0.686-1.861,1.959-3.331,3.821-4.115	C13.07,80.211,14.833,79.917,16.793,80.408L16.793,80.408z M26.101,96.378l0.686,1.96l0.294,0.686	c-1.469,1.273-2.547,2.449-3.723,3.527L20.418,105l-0.784,0.49c-1.861,0.881-3.429,1.176-5.095,0.98	c-1.47-0.1-2.646-0.588-3.135-1.471l-0.294-1.078l0.196-0.881c0.49-1.471,1.764-2.939,4.018-4.018	c1.175-0.49,2.155-0.98,2.939-1.176L26.101,96.378L26.101,96.378z M56.67,80.505c1.764-0.784,3.429-0.98,5.193-0.784	c1.666,0.196,2.841,0.98,3.429,2.156l0.392,1.273l-0.196,0.98c-0.686,1.763-2.156,3.135-4.605,4.213	c-0.979,0.49-2.057,0.686-3.233,0.882l-12.051,1.47l-0.196-0.686l-0.196-0.294l0.392-0.49l9.896-8.23L56.67,80.505L56.67,80.505z M31.686,89.813c1.176-1.078,2.743-1.764,4.605-1.764c1.764,0,3.429,0.686,4.507,1.764c1.372,1.372,1.959,2.841,1.959,4.605	c0,1.763-0.588,3.429-1.959,4.605c-1.274,1.273-2.743,1.959-4.507,1.959c-1.862,0-3.429-0.686-4.605-1.959	c-1.274-1.176-1.959-2.842-1.959-4.605C29.727,92.655,30.412,91.185,31.686,89.813L31.686,89.813z M33.939,104.02	c0.196,3.332,0.49,6.859,0.98,10.68v3.92l-0.098,0.98c-0.686,1.764-1.862,3.232-3.625,4.016c-1.763,0.98-3.625,1.176-5.389,0.688	c-1.959-0.49-3.429-1.666-4.213-3.234c-0.49-0.98-0.882-2.156-0.882-3.332l0.49-2.252c0.196-0.98,0.686-1.961,1.47-2.744	l8.23-9.797C31.882,103.432,32.862,103.922,33.939,104.02L33.939,104.02z M41.484,102.746l4.115,4.213l2.547,3.137l0.49,0.979	c0.882,1.666,1.372,3.234,1.176,5.096c-0.196,1.764-0.784,3.037-1.96,3.527c-0.686,0.49-1.469,0.49-2.253,0.391	c-1.862-0.488-3.332-1.959-4.409-4.311l-1.176-3.232l-1.47-8.525l1.666-0.588L41.484,102.746L41.484,102.746z M45.893,96.672	l11.072-0.98l3.919-0.098l0.98,0.098c1.47,0.49,2.841,1.373,3.625,2.841c0.979,1.078,1.469,2.549,1.469,4.213l-0.293,1.961	c-0.49,1.959-1.666,3.428-3.332,4.213c-1.764,0.979-3.527,1.176-5.487,0.488c-1.176-0.293-1.96-0.783-2.646-1.566l-10.288-8.523	l0.686-1.471L45.893,96.672L45.893,96.672z"/><path style="fill-rule:evenodd;clip-rule:evenodd;fill:#69825F;" d="M52.458,66.984c0.49,0.98,0.784,2.156,0.784,3.429	l-0.294,2.155c-0.392,1.078-0.882,2.058-1.47,2.939L42.66,86.286c-0.882-0.686-1.862-1.176-2.842-1.666l-0.979-11.072L38.74,69.63	l0.098-0.98c0.49-1.959,1.861-3.429,3.625-4.409c1.764-0.98,3.723-1.176,5.585-0.49C50.106,64.241,51.576,65.319,52.458,66.984	L52.458,66.984z M22.084,68.944c0.098-1.764,0.784-2.939,1.959-3.625c0.588-0.49,1.47-0.49,2.254-0.098	c1.764,0.49,3.233,1.764,4.409,4.213c0.49,0.979,0.98,1.959,1.176,3.135l1.959,11.562l-1.47,0.49l-8.72-9.504l-0.49-0.979	C22.378,72.373,21.888,70.708,22.084,68.944L22.084,68.944z M16.793,80.408l2.646,1.077l8.623,6.271	c-0.784,0.98-1.274,1.959-1.568,2.939l-14.108,1.764l-0.98-0.196c-1.764-0.294-2.939-1.078-3.723-2.547s-0.784-2.939-0.196-4.409	c0.686-1.861,1.959-3.331,3.821-4.115C13.07,80.211,14.833,79.917,16.793,80.408L16.793,80.408z M56.67,80.505	c1.764-0.784,3.429-0.98,5.193-0.784c1.666,0.196,2.841,0.98,3.429,2.156l0.392,1.273l-0.196,0.98	c-0.686,1.763-2.156,3.135-4.605,4.213c-0.979,0.49-2.057,0.686-3.233,0.882l-12.051,1.47l-0.196-0.686l-0.196-0.294l0.392-0.49	l9.896-8.23L56.67,80.505L56.67,80.505z M33.939,104.02c0.196,3.332,0.49,6.859,0.98,10.68v3.92l-0.098,0.98	c-0.686,1.764-1.862,3.232-3.625,4.016c-1.763,0.98-3.625,1.176-5.389,0.688c-1.959-0.49-3.429-1.666-4.213-3.234	c-0.49-0.98-0.882-2.156-0.882-3.332l0.49-2.252c0.196-0.98,0.686-1.961,1.47-2.744l8.23-9.797	C31.882,103.432,32.862,103.922,33.939,104.02L33.939,104.02z M41.484,102.746l4.115,4.213l2.547,3.137l0.49,0.979	c0.882,1.666,1.372,3.234,1.176,5.096c-0.196,1.764-0.784,3.037-1.96,3.527c-0.686,0.49-1.469,0.49-2.253,0.391	c-1.862-0.488-3.332-1.959-4.409-4.311l-1.176-3.232l-1.47-8.525l1.666-0.588L41.484,102.746L41.484,102.746z M45.893,96.672	l11.072-0.98l3.919-0.098l0.98,0.098c1.47,0.49,2.841,1.373,3.625,2.841c0.979,1.078,1.469,2.549,1.469,4.213l-0.293,1.961	c-0.49,1.959-1.666,3.428-3.332,4.213c-1.764,0.979-3.527,1.176-5.487,0.488c-1.176-0.293-1.96-0.783-2.646-1.566l-10.288-8.523	l0.686-1.471L45.893,96.672L45.893,96.672z"/><path style="fill-rule:evenodd;clip-rule:evenodd;fill:#A3523F;" d="M26.101,96.378l0.686,1.96l0.294,0.686	c-1.469,1.273-2.547,2.449-3.723,3.527L20.418,105l-0.784,0.49c-1.861,0.881-3.429,1.176-5.095,0.98	c-1.47-0.1-2.646-0.588-3.135-1.471l-0.294-1.078l0.196-0.881c0.49-1.471,1.764-2.939,4.018-4.018	c1.175-0.49,2.155-0.98,2.939-1.176L26.101,96.378L26.101,96.378z"/><path style="fill-rule:evenodd;clip-rule:evenodd;fill:#ECC043;" d="M31.686,89.813c1.176-1.078,2.743-1.764,4.605-1.764	c1.764,0,3.429,0.686,4.507,1.764c1.372,1.372,1.959,2.841,1.959,4.605c0,1.763-0.588,3.429-1.959,4.605	c-1.274,1.273-2.743,1.959-4.507,1.959c-1.862,0-3.429-0.686-4.605-1.959c-1.274-1.176-1.959-2.842-1.959-4.605	C29.727,92.655,30.412,91.185,31.686,89.813L31.686,89.813z"/></g></svg>