<?xml version="1.0" encoding="iso-8859-1"?><!-- Generator: Adobe Illustrator 16.0.0, SVG Export Plug-In . SVG Version: 6.00 Build 0) --><!DOCTYPE svg PUBLIC "-//W3C//DTD SVG 1.1//EN" "http://www.w3.org/Graphics/SVG/1.1/DTD/svg11.dtd"><svg version="1.1" id="svg3234" xmlns:rdf="http://www.w3.org/1999/02/22-rdf-syntax-ns#" xmlns:dc="http://purl.org/dc/elements/1.1/" xmlns:svg="http://www.w3.org/2000/svg" xmlns:cc="http://creativecommons.org/ns#" xmlns="http://www.w3.org/2000/svg" xmlns:xlink="http://www.w3.org/1999/xlink" x="0px" y="0px" width="787.892px" height="130.276px" viewBox="-0.001 -0.004 787.892 130.276" style="enable-background:new -0.001 -0.004 787.892 130.276;" xml:space="preserve"><g id="layer1" transform="translate(-8.9127802,-296.8521)"><g id="g3109" transform="matrix(4.4328275,0,0,-4.4328275,-1168.6513,2377.6661)"><g><defs><rect id="SVGID_1_" x="-39.43" y="389.579" width="787.892" height="130.276"/></defs><clipPath id="SVGID_2_"><use xlink:href="#SVGID_1_" style="overflow:visible;"/></clipPath><g id="g3111" style="clip-path:url(#SVGID_2_);"><g id="g3117" transform="translate(345.7675,454.2732)"><path id="path3119" style="fill:#231F20;" d="M0,0v0.067c0,3.786-2.827,6.889-6.543,6.889c-3.818,0-6.445-3.103-6.445-6.817	V0.067c0-3.782,2.798-6.853,6.512-6.853C-2.659-6.786,0-3.715,0,0 M-15.682,0v0.067c0,4.978,3.886,9.205,9.206,9.205	c5.285,0,9.17-4.159,9.17-9.133V0.067c0-4.978-3.918-9.204-9.237-9.204C-11.829-9.137-15.682-4.977-15.682,0"/></g><g id="g3121" transform="translate(365.5075,455.1931)"><path id="path3123" style="fill:#231F20;" d="M0,0v0.069c0,3.614-3.138,5.966-6.476,5.966c-3.342,0-6.105-2.317-6.105-5.933	V0.034c0-3.545,2.835-5.998,6.105-5.998C-3.138-5.964,0-3.547,0,0 M-14.457-12.717l1.194,2.047	c2.012-1.468,4.262-2.253,6.787-2.253c3.884,0,6.406,2.15,6.406,6.276v2.078c-1.533-2.045-3.681-3.717-6.916-3.717	c-4.23,0-8.289,3.173-8.289,8.252v0.068c0,5.148,4.093,8.317,8.289,8.317c3.306,0,5.453-1.634,6.885-3.542v3.169h2.624V-6.58	c0-2.727-0.82-4.807-2.25-6.238c-1.568-1.568-3.919-2.352-6.715-2.352C-9.373-15.17-12.102-14.354-14.457-12.717"/></g><path id="path3125" style="fill:#231F20;" d="M371.692,463.172h2.626v-17.626h-2.626V463.172z M371.522,469.41h3v-2.897h-3	V469.41z"/><g id="g3127" transform="translate(329.5493,448.0329)"><path id="path3129" style="fill:#231F20;" d="M0,0h-11.448v21.376h-2.69V-2.488h16.3C1.323-1.769,0.597-0.931,0,0"/></g><g id="g3131" transform="translate(383.569,447.6241)"><path id="path3133" style="fill:#231F20;" d="M0,0c-1.774,0-2.966,0.785-2.966,2.933v10.296h5.222	c0.538,0.865,1.185,1.644,1.92,2.318h-7.142v6.239h-2.622V2.593c0-3.583,2.146-4.979,4.975-4.979	c1.481,0,2.731,0.374,3.892,1.208C2.853-0.684,2.465-0.15,2.125,0.418C1.436,0.137,0.702,0,0,0"/></g><g id="g3135" transform="translate(400.4798,455.3297)"><path id="path3137" style="fill:#231F20;" d="M0,0c-0.276,3.206-2.115,5.998-5.629,5.998c-3.067,0-5.386-2.554-5.726-5.998H0z M-14.014-1.022v0.068c0,5.079,3.58,9.169,8.453,9.169c5.215,0,8.218-4.158,8.218-9.306c0-0.341,0-0.546-0.036-0.851h-13.976	c0.378-3.821,3.07-5.968,6.206-5.968c2.419,0,4.125,0.988,5.556,2.49l1.637-1.467c-1.773-1.977-3.92-3.306-7.261-3.306	C-10.06-10.193-14.014-6.479-14.014-1.022"/></g><g id="g3139" transform="translate(404.9548,454.2732)"><path id="path3141" style="fill:#231F20;" d="M0,0v0.067c0,4.978,3.891,9.205,9.035,9.205c3.344,0,5.424-1.397,7.059-3.135	l-1.739-1.841c-1.396,1.466-2.968,2.66-5.354,2.66c-3.579,0-6.305-3.034-6.305-6.817V0.067c0-3.816,2.795-6.853,6.478-6.853	c2.248,0,3.987,1.126,5.384,2.626l1.672-1.567c-1.771-1.977-3.886-3.41-7.195-3.41C3.891-9.137,0-4.942,0,0"/></g><g id="g3143" transform="translate(423.3461,469.4094)"><path id="path3145" style="fill:#231F20;" d="M0,0h2.626v-9.308c1.159,1.911,2.999,3.443,6.03,3.443	c4.265,0,6.755-2.862,6.755-7.057v-10.943h-2.626v10.295c0,3.275-1.776,5.32-4.875,5.32c-3.036,0-5.284-2.216-5.284-5.521	v-10.094H0V0z"/></g><g id="g3147" transform="translate(441.7248,461.4492)"><path id="path3149" style="fill:#231F20;" d="M0,0c0.231,0,0.364,0.122,0.364,0.291c0,0.193-0.133,0.292-0.364,0.292h-0.433V0	H0z M-0.775,0.887H0.03c0.394,0,0.685-0.192,0.685-0.565c0-0.291-0.173-0.472-0.414-0.544l0.474-0.673H0.364l-0.425,0.612	h-0.372v-0.612h-0.342V0.887z M1.46-0.04v0.012c0,0.853-0.664,1.559-1.549,1.559c-0.877,0-1.554-0.715-1.554-1.571v-0.009	c0-0.859,0.665-1.563,1.554-1.563C0.787-1.612,1.46-0.895,1.46-0.04 M-1.844-0.049v0.009c0,0.956,0.776,1.762,1.755,1.762	c0.985,0,1.75-0.797,1.75-1.75V-0.04c0-0.959-0.775-1.763-1.75-1.763C-1.079-1.803-1.844-1.009-1.844-0.049"/></g><g id="g3151" transform="translate(297.0663,453.4212)"><path id="path3153" style="fill:#231F20;" d="M0,0c1.458-0.656,3.424-0.681,4.823-0.1c1.499,0.574,2.084,1.355,1.112,1.779	C4.85,2.109,1.572,2.281-0.78,1.988C-2.578,1.634-1.847,0.701,0,0"/></g><g id="g3155" transform="translate(293.6069,444.1982)"><path id="path3157" style="fill:#231F20;" d="M0,0c1.638-2.014,4.152-3.929,5.435-4.06C6.417-3.898,5.895-2.274,4.64-0.8	C3.512,0.542,1.609,1.745,0.194,2.132C-1.25,2.603-1.488,1.832,0,0"/></g><g id="g3159" transform="translate(293.5934,463.2918)"><path id="path3161" style="fill:#231F20;" d="M0,0c2.889,1.528,5.008,3.575,4.73,4.575C4.456,5.577,3.214,5.982,1.956,5.479	C0.699,4.976-1.419,2.929-2.78,0.907C-4.136-1.119-2.892-1.525,0,0"/></g><g id="g3163" transform="translate(282.2263,467.3354)"><path id="path3165" style="fill:#231F20;" d="M0,0c0.126,0.179,0.396,0.622,0.281,1.074C0.139,1.642-0.634,1.938-1.285,2.021	c-1.111,0.144-2.013-0.03-2.793-0.197c-2.057-0.442-3.667-1.228-4.79-1.961c-0.815-0.535-1.714-1.241-2.591-2.104	c-2.938-2.905-5.834-7.732-4.964-13.37c0.501-3.37,2.27-5.853,3.786-7.697c1.989-2.305,5.149-4.426,7.934-3.933	c1.284,0.251,2.275,1.306,2.744,2.167c1.794,3.321-1.16,7.637-2.016,9.35c-1.106,2.088-1.617,4.213-0.664,7.471	C-3.748-5.213-0.952-1.359,0,0"/></g><g id="g3167" transform="translate(287.618,452.4549)"><path id="path3169" style="fill:#231F20;" d="M0,0c-1.523,0-2.518,0.528-2.518,1.539c0,0.841,1.541,2.836,3.065,2.836	c1.124,0,2.229-1.337,2.229-2.137C2.776,1.215,1.671,0,0,0 M0.71-2.411C0.243-2.97-0.508-3.39-1.106-3.39	c-0.804,0-1.403,0.448-1.606,1.095c-0.054,0.16-0.071,0.333-0.082,0.516C-2.802-1.585-2.736-1.67-2.161-1.883	c0.392-0.148,0.884-0.285,1.393-0.285c0.204,0,0.402,0.023,0.59,0.055C0.15-2.051,1.176-1.858,0.71-2.411 M-4.116,1.621	c-0.211-0.866-0.381-0.489-0.479-0.243c-0.15,0.379-0.207,0.78-0.207,1.137c0,1.269,0.967,2.345,2.787,2.345	c0.418,0,0.579-0.13,0.147-0.334c-0.145-0.069-0.308-0.175-0.446-0.26C-3.232,3.693-3.84,2.744-4.116,1.621 M6.185,3.237	C6.03,5.576,2.719,7.228-1.46,7.117c-3.299-0.089-7.006-2.093-7.003-4.602c0.004-2.751,2.13-3.863,2.959-4.191	C-5.303-1.758-5.232-1.732-5.107-2.1c0.241-0.7,0.92-2.407,3.145-2.402C1.046-4.495,6.415-0.206,6.185,3.237"/></g></g></g></g></g></svg>