<?xml version="1.0" encoding="iso-8859-1"?><!-- Generator: Adobe Illustrator 16.0.0, SVG Export Plug-In . SVG Version: 6.00 Build 0) --><!DOCTYPE svg PUBLIC "-//W3C//DTD SVG 1.1//EN" "http://www.w3.org/Graphics/SVG/1.1/DTD/svg11.dtd"><svg version="1.1" id="svg2" inkscape:version="0.48.2 r9819" sodipodi:docname="Airdrop - Copie.svg" xmlns:rdf="http://www.w3.org/1999/02/22-rdf-syntax-ns#" xmlns:sodipodi="http://sodipodi.sourceforge.net/DTD/sodipodi-0.dtd" xmlns:dc="http://purl.org/dc/elements/1.1/" xmlns:inkscape="http://www.inkscape.org/namespaces/inkscape" xmlns:svg="http://www.w3.org/2000/svg" xmlns:cc="http://creativecommons.org/ns#" xmlns="http://www.w3.org/2000/svg" xmlns:xlink="http://www.w3.org/1999/xlink" x="0px" y="0px" width="600px" height="600px" viewBox="1 1 600 600" style="enable-background:new 1 1 600 600;" xml:space="preserve"><sodipodi:namedview id="base" inkscape:window-y="-8" inkscape:window-width="1366" inkscape:pageshadow="2" inkscape:window-maximized="1" inkscape:window-x="-8" inkscape:window-height="706" inkscape:pageopacity="0.0" inkscape:document-units="px" inkscape:current-layer="layer1" bordercolor="#666666" inkscape:cx="-298.61733" showgrid="false" borderopacity="1.0" pagecolor="#ffffff" inkscape:cy="36.893627" inkscape:zoom="0.37410882"></sodipodi:namedview><g id="layer1" transform="translate(0,-450.36218)" inkscape:groupmode="layer" inkscape:label="Calque 1"><g id="g3062" transform="matrix(6.6666666,0,0,6.6666666,-5.6668106,-5957.7191)"><linearGradient id="rect2996_1_" gradientUnits="userSpaceOnUse" x1="-110.9337" y1="1129.7505" x2="-110.3496" y2="1720.0986" gradientTransform="matrix(1 0 0 -1 156.8895 2180.7505)"><stop offset="0" style="stop-color:#70EFFF"/><stop offset="1" style="stop-color:#5770FF"/></linearGradient><path id="rect2996" inkscape:connector-curvature="0" style="fill:url(#rect2996_1_);" d="M21.653,961.362h48.695	c11.442,0,20.653,9.211,20.653,20.653v48.695c0,11.442-9.211,20.653-20.653,20.653H21.653c-11.442,0-20.653-9.211-20.653-20.653	v-48.695C1,970.573,10.211,961.362,21.653,961.362L21.653,961.362z"/><path id="rect3027" sodipodi:nodetypes="sccccccccaaaccccsscsscccccccccccccccsscccccsscccccaaacc" inkscape:connector-curvature="0" style="fill:#FFFFFF;" d="	M20.719,986.956c-0.474,0-0.921,0.082-1.344,0.25l8.469,8.719l8.563,8.875l0.156,0.188l0.25,0.25l0.25,0.25l0.5,0.531l7.344,7.531	c0.122,0.076,0.477,0.404,0.754,0.543c0.357,0.178,0.743,0.343,1.141,0.357c0.43,0.015,0.869-0.108,1.256-0.296	c0.29-0.141,0.419-0.343,0.755-0.603l8.5-8.781l8.594-8.844l8.281-8.531c-0.532-0.288-1.12-0.438-1.75-0.438H20.719z M18.125,988.018c-0.903,0.856-1.469,2.142-1.469,3.594v28.625c0,1.175,0.377,2.243,1,3.062l1.187-1.125l8.844-8.594l7.844-7.594	l-0.156-0.187l-8.594-8.844l-8.594-8.875L18.125,988.018z M75.313,988.3l-8.375,8.656l-8.563,8.844l-0.156,0.156l8.156,7.906	l8.844,8.594l0.531,0.5c0.476-0.764,0.75-1.705,0.75-2.719v-28.625C76.5,990.318,76.052,989.144,75.313,988.3z M36.531,1007.018	l-7.812,7.594l-8.875,8.594l-1.125,1.094c0.593,0.382,1.268,0.625,2,0.625h51.719c0.88,0,1.678-0.338,2.344-0.875l-0.562-0.562	l-8.875-8.594l-8.156-7.875l-7.344,7.562c-0.397,0.264-0.663,0.556-1.051,0.735c-0.625,0.289-1.309,0.533-1.997,0.523	c-0.69-0.011-1.367-0.281-1.986-0.585c-0.311-0.153-0.477-0.305-0.841-0.61L36.531,1007.018z"/></g></g></svg>