<?xml version="1.0" encoding="iso-8859-1"?><!-- Generator: Adobe Illustrator 16.0.0, SVG Export Plug-In . SVG Version: 6.00 Build 0) --><!DOCTYPE svg PUBLIC "-//W3C//DTD SVG 1.1//EN" "http://www.w3.org/Graphics/SVG/1.1/DTD/svg11.dtd"><svg version="1.1" id="svg2" inkscape:version="0.48.3.1 r9886" sodipodi:docname="word.svg" xmlns:rdf="http://www.w3.org/1999/02/22-rdf-syntax-ns#" xmlns:sodipodi="http://sodipodi.sourceforge.net/DTD/sodipodi-0.dtd" xmlns:dc="http://purl.org/dc/elements/1.1/" xmlns:inkscape="http://www.inkscape.org/namespaces/inkscape" xmlns:svg="http://www.w3.org/2000/svg" xmlns:cc="http://creativecommons.org/ns#" xmlns="http://www.w3.org/2000/svg" xmlns:xlink="http://www.w3.org/1999/xlink" x="0px" y="0px" width="110.037px" height="107.5px" viewBox="0 0 110.037 107.5" style="enable-background:new 0 0 110.037 107.5;" xml:space="preserve"><sodipodi:namedview id="namedview122" inkscape:window-y="0" inkscape:window-width="1280" fit-margin-bottom="0" inkscape:pageshadow="2" fit-margin-right="0" inkscape:window-maximized="1" inkscape:window-x="0" inkscape:window-height="960" inkscape:pageopacity="0" inkscape:current-layer="svg2" fit-margin-left="0" objecttolerance="10" bordercolor="#666666" guidetolerance="10" inkscape:cx="344.89442" showgrid="false" borderopacity="1" pagecolor="#ffffff" inkscape:cy="53.75" inkscape:zoom="1.0905983" gridtolerance="10" fit-margin-top="0"></sodipodi:namedview><path id="path10" inkscape:connector-curvature="0" style="fill:#207245;" d="M57.55,0h7.425c0,3.337,0,6.663,0,10	C77.488,10,90,10.025,102.512,9.962c2.113,0.087,4.438-0.062,6.275,1.2c1.287,1.85,1.138,4.2,1.225,6.325	c-0.062,21.7-0.037,43.388-0.024,65.075c-0.062,3.638,0.337,7.35-0.425,10.938c-0.5,2.6-3.625,2.662-5.713,2.75	c-12.95,0.037-25.912-0.025-38.875,0c0,3.75,0,7.5,0,11.25h-7.763c-19.05-3.463-38.138-6.662-57.212-10c0-29.162,0-58.325,0-87.487	C19.188,6.675,38.375,3.388,57.55,0z"/><path id="path48" inkscape:connector-curvature="0" style="fill:#FFFFFF;" d="M64.975,13.75c13.75,0,27.5,0,41.25,0	c0,26.25,0,52.5,0,78.75c-13.75,0-27.5,0-41.25,0c0-2.5,0-5,0-7.5c3.338,0,6.662,0,10,0c0-2.912,0-5.838,0-8.75	c-3.338,0-6.662,0-10,0c0-1.662,0-3.338,0-5c3.338,0,6.662,0,10,0c0-2.912,0-5.838,0-8.75c-3.338,0-6.662,0-10,0	c0-1.662,0-3.338,0-5c3.338,0,6.662,0,10,0c0-2.912,0-5.837,0-8.75c-3.338,0-6.662,0-10,0c0-1.663,0-3.337,0-5c3.338,0,6.662,0,10,0	c0-2.913,0-5.837,0-8.75c-3.338,0-6.662,0-10,0c0-1.663,0-3.337,0-5c3.338,0,6.662,0,10,0c0-2.913,0-5.837,0-8.75	c-3.338,0-6.662,0-10,0C64.975,18.75,64.975,16.25,64.975,13.75z"/><path id="path58" inkscape:connector-curvature="0" style="fill:#207245;" d="M79.975,21.25c5.838,0,11.662,0,17.5,0	c0,2.913,0,5.837,0,8.75c-5.838,0-11.662,0-17.5,0C79.975,27.087,79.975,24.163,79.975,21.25z"/><path id="path72" inkscape:connector-curvature="0" style="fill:#FFFFFF;" d="M37.025,32.962c2.825-0.2,5.663-0.375,8.5-0.512	c-3.337,6.837-6.688,13.675-10.087,20.487c3.438,7,6.949,13.95,10.399,20.95c-3.013-0.175-6.013-0.362-9.024-0.575	c-2.125-5.213-4.713-10.25-6.238-15.7c-1.699,5.075-4.125,9.862-6.074,14.838c-2.738-0.038-5.476-0.15-8.213-0.263	C19.5,65.9,22.6,59.562,25.912,53.312c-2.812-6.438-5.9-12.75-8.8-19.15c2.75-0.163,5.5-0.325,8.25-0.475	c1.862,4.888,3.899,9.712,5.438,14.725C32.449,43.1,34.912,38.1,37.025,32.962z"/><path id="path90" inkscape:connector-curvature="0" style="fill:#207245;" d="M79.975,35c5.838,0,11.662,0,17.5,0	c0,2.913,0,5.837,0,8.75c-5.838,0-11.662,0-17.5,0C79.975,40.837,79.975,37.913,79.975,35z"/><path id="path108" inkscape:connector-curvature="0" style="fill:#207245;" d="M79.975,48.75c5.838,0,11.662,0,17.5,0	c0,2.913,0,5.838,0,8.75c-5.838,0-11.662,0-17.5,0C79.975,54.588,79.975,51.663,79.975,48.75z"/><path id="path114" inkscape:connector-curvature="0" style="fill:#207245;" d="M79.975,62.5c5.838,0,11.662,0,17.5,0	c0,2.912,0,5.838,0,8.75c-5.838,0-11.662,0-17.5,0C79.975,68.338,79.975,65.412,79.975,62.5z"/><path id="path120" inkscape:connector-curvature="0" style="fill:#207245;" d="M79.975,76.25c5.838,0,11.662,0,17.5,0	c0,2.912,0,5.838,0,8.75c-5.838,0-11.662,0-17.5,0C79.975,82.088,79.975,79.162,79.975,76.25z"/></svg>