<?xml version="1.0" encoding="iso-8859-1"?><!-- Generator: Adobe Illustrator 16.0.0, SVG Export Plug-In . SVG Version: 6.00 Build 0) --><!DOCTYPE svg PUBLIC "-//W3C//DTD SVG 1.1//EN" "http://www.w3.org/Graphics/SVG/1.1/DTD/svg11.dtd"><svg version="1.1" id="Layer_1" xmlns="http://www.w3.org/2000/svg" xmlns:xlink="http://www.w3.org/1999/xlink" x="0px" y="0px" width="192.756px" height="192.756px" viewBox="0 0 192.756 192.756" style="enable-background:new 0 0 192.756 192.756;" xml:space="preserve"><g><polygon style="fill-rule:evenodd;clip-rule:evenodd;fill:#FFFFFF;" points="0,0 192.756,0 192.756,192.756 0,192.756 0,0	"/><path style="fill-rule:evenodd;clip-rule:evenodd;fill:#89272A;" d="M7.06,82.134c1.492,0.386,7.423,2.177,10.985,3.266	s6.229,1.791,8.3,2.371c2.088,0.597,1.93,2.229,0.298,2.089c-1.632-0.158-3.562-1.036-5.492-1.791	c-1.931-0.738-8.002-2.511-11.125-3.564c-3.106-1.036-3.861-1.036-4.299-1.633C5.288,82.292,5.569,81.748,7.06,82.134L7.06,82.134z	"/><path style="fill-rule:evenodd;clip-rule:evenodd;fill:#89272A;" d="M29.328,88.666c1.333-0.141,1.474,1.194,1.176,1.931	s-1.772,1.036-2.07,0.298C27.977,89.859,27.977,88.823,29.328,88.666L29.328,88.666z"/><path style="fill-rule:evenodd;clip-rule:evenodd;fill:#89272A;" d="M46.823,77.972c-0.878,0.755-3.562,2.388-5.475,3.723	c-1.93,1.334-5.492,3.705-6.545,4.302c-1.035,0.597-2.368,1.334-3.264,2.072c-0.877,0.755-0.579,2.089,0.755,1.633	c1.333-0.439,2.667-1.176,3.562-2.072c0.877-0.896,1.772-1.493,2.667-2.072c0.895-0.597,7.721-5.653,9.055-6.549	C48.911,77.534,47.718,77.235,46.823,77.972L46.823,77.972z"/><path style="fill-rule:evenodd;clip-rule:evenodd;fill:#89272A;" d="M50.245,75.462c0.737,0,1.035,1.632,0.298,2.072	c-0.737,0.438-1.79,0.438-1.79-1.036C48.753,75.005,49.507,75.462,50.245,75.462L50.245,75.462z"/><path style="fill-rule:evenodd;clip-rule:evenodd;fill:#89272A;" d="M49.806,78.569c0.579,0,0.877,1.194,0.737,2.089	c-0.158,0.878,0.141,6.672,0.298,8.744c0.141,2.089,0.141,2.984-0.158,3.722c-0.298,0.737,0,1.931,0,3.863	c0,1.932-0.298,4.441-0.438,5.496c-0.158,1.035-0.299,1.771-0.895,1.633c-0.597-0.158-0.597-0.896-0.597-2.09	c0-1.176,0-7.427,0.158-8.902c0.141-1.493,0.141-2.089,0.141-3.266c0-1.194,0-8.165,0-9.359	C49.051,79.307,49.209,78.569,49.806,78.569L49.806,78.569z"/><path style="fill-rule:evenodd;clip-rule:evenodd;fill:#89272A;" d="M49.35,105.293c0.895-0.141,1.193,1.492,0.737,1.932	c-0.438,0.457-1.474,0.299-1.772-0.439C48.016,106.047,48.455,105.451,49.35,105.293L49.35,105.293z"/><path style="fill-rule:evenodd;clip-rule:evenodd;fill:#89272A;" d="M3.902,80.799c0.807-0.123,1.07,1.334,0.403,1.861	c-0.667,0.544-1.597,0.141-1.456-0.667C2.972,81.203,3.112,80.94,3.902,80.799L3.902,80.799z"/><path style="fill-rule:evenodd;clip-rule:evenodd;fill:#89272A;" d="M5.779,79.605c1.86-0.931,5.72-3.336,6.65-3.599	c0.93-0.264,2.649-1.335,3.316-1.861c0.667-0.527,2.79-1.738,3.194-2.002c0.403-0.263,2.263,0,0.667,1.071	c-1.597,1.071-3.86,2.388-5.458,3.318c-1.597,0.948-6.124,3.336-7.054,3.74S3.902,80.536,5.779,79.605L5.779,79.605z"/><path style="fill-rule:evenodd;clip-rule:evenodd;fill:#89272A;" d="M21.607,70.809c0.263-0.123,1.07,0.544,0.667,1.071	c-0.404,0.527-0.93,0.93-1.474,0C20.273,70.949,21.344,70.949,21.607,70.809L21.607,70.809z"/><path style="fill-rule:evenodd;clip-rule:evenodd;fill:#89272A;" d="M24.274,70.949c1.719,0,5.983,0.667,7.317,1.071	c1.316,0.387,3.983,0.79,4.51,0.931c0.544,0.123,2.404,0.123,2.808,0.264c0.386,0.123,1.597,0.667,3.983,0.931	c2.404,0.263,3.86,0.526,4.527,0.79c0.667,0.281,0.263,1.879-0.808,1.598c-1.053-0.263-5.439-0.79-6.51-0.931	c-1.07-0.123-3.194-0.931-4.387-1.053c-1.21-0.141-4.264-0.808-6.791-1.071s-4.264-0.79-4.931-0.931	C23.327,72.407,22.537,70.949,24.274,70.949L24.274,70.949z"/><path style="fill-rule:evenodd;clip-rule:evenodd;fill:#89272A;" d="M3.516,85.189c0-0.931,1.457-1.334,1.597-0.123	c0.123,1.194,0.263,3.195,0.386,4.793c0.14,1.598,0.281,3.055,0.403,4.126c0.141,1.053,0.807,3.722,0.93,4.53	c0.14,0.789,0.263,2.387,0.263,3.318c0,0.93,0.281,2.266,0.141,2.932c-0.141,0.668-0.808,2.389-1.193,0.404	c-0.404-2.002-0.141-4.529-0.404-5.197s-0.807-2.125-0.807-3.195c0-1.071-0.526-3.863-0.649-4.53	C4.042,91.58,3.516,86.12,3.516,85.189L3.516,85.189z"/><path style="fill-rule:evenodd;clip-rule:evenodd;fill:#89272A;" d="M6.428,107.697c0.141-0.543,1.211-0.93,1.597-0.262	c0.403,0.666,0.281,1.721-0.649,1.861C6.428,109.42,6.306,108.225,6.428,107.697L6.428,107.697z"/><path style="fill-rule:evenodd;clip-rule:evenodd;fill:#89272A;" d="M8.569,105.959c1.193-1.193,4.65-3.055,6.65-4.793	c2-1.721,5.58-4.125,6.247-4.793c0.667-0.667,2.404-0.123,0.93,1.07c-1.457,1.195-4.913,3.723-6.387,4.918	c-1.457,1.211-5.439,3.861-6.247,4.67C8.973,107.82,7.376,107.154,8.569,105.959L8.569,105.959z"/><path style="fill-rule:evenodd;clip-rule:evenodd;fill:#89272A;" d="M24.134,94.108c0.526,0.14,0.526,1.211,0,1.475	c-0.526,0.263-1.457,0.123-1.333-0.667C22.94,94.108,23.607,93.985,24.134,94.108L24.134,94.108z"/><path style="fill-rule:evenodd;clip-rule:evenodd;fill:#89272A;" d="M10.429,109.033c1.86,0.525,5.984,3.195,7.317,3.721	c1.333,0.527,3.86,1.861,5.054,2.529s4.124,2.002,4.931,2.389c0.79,0.402,1.456,0.543,1.86,0.947	c0.404,0.387-0.14,1.861-1.193,1.316c-1.07-0.525-5.194-2.65-5.861-3.055c-0.667-0.404-3.193-1.738-4-2.266	c-0.79-0.525-1.86-0.666-2.913-1.193c-1.071-0.527-4.791-2.527-6.001-3.195C8.429,109.559,8.569,108.488,10.429,109.033	L10.429,109.033z"/><path style="fill-rule:evenodd;clip-rule:evenodd;fill:#89272A;" d="M28.784,92.792c-0.123,1.317,0.141,3.845,0.281,4.513	c0.123,0.666,0.649,3.459,0.526,5.459c-0.14,2.002,0,4.531,0.263,5.865s0.404,4.793,0.404,5.725c0,0.93,0.263,2.123,0.403,2.387	c0.123,0.281,0.93,1.475,1.053-0.264c0.141-1.721,0-5.18,0.141-6.25c0.123-1.07-0.141-3.6-0.404-6.795s-0.404-5.848-0.404-6.654	c0-0.791,0.264-2.792-0.263-3.6C30.38,91.843,28.924,91.457,28.784,92.792L28.784,92.792z"/><path style="fill-rule:evenodd;clip-rule:evenodd;fill:#89272A;" d="M31.311,119.146c0.403-0.141,1.737,0.93,1.21,2.125	c-0.544,1.193-1.333,0.666-1.86-0.264C30.117,120.076,30.924,119.27,31.311,119.146L31.311,119.146z"/><path style="fill-rule:evenodd;clip-rule:evenodd;fill:#89272A;" d="M34.118,117.811c1.72-2,2.124-1.457,3.053-2.264	c0.93-0.791,4.65-3.723,5.984-4.916c1.333-1.211,2.404-1.879,3.193-2.529c0.808-0.666,2,0.316,0.808,1.055	c-1.194,0.736-3.861,3.354-4.931,4.793c-1.053,1.439-2,1.07-3.193,2.266c-1.193,1.193-1.86,2.123-2.527,2.404	c-0.667,0.264-1.193,0.65-1.719,1.053C34.241,120.076,32.381,119.812,34.118,117.811L34.118,117.811z"/><path style="fill-rule:evenodd;clip-rule:evenodd;fill:#89272A;" d="M26.52,95.039c0.808,0.281,4.141,1.475,6.388,2.545	c2.263,1.055,7.721,3.318,8.791,3.986s5.317,2.266,5.861,2.668c0.526,0.387,0.649,2.389-0.544,1.861	c-1.193-0.543-4.527-2.404-6.65-3.336c-2.124-0.93-5.458-2.527-7.054-2.932c-1.597-0.387-4.65-2.248-5.457-2.791	c-0.79-0.527-1.72-0.527-2.123-1.194C25.327,95.179,25.731,94.775,26.52,95.039L26.52,95.039z"/><path style="fill-rule:evenodd;clip-rule:evenodd;fill:#89272A;" d="M22.537,74.285c0.264,1.598,0.527,3.318,0.527,4.653	s0.263,3.459,0.403,4.126c0.141,0.667,0.404,2.932,0.264,3.336c-0.123,0.386,0,3.582,0,4.39c0,0.79,0.263,1.861-0.527,1.861	c-0.807,0-0.93-0.667-0.93-2.125c0-1.475-0.544-4.67-0.544-6.005c0-1.317-0.264-4.126-0.264-5.987c0-1.861-0.386-3.863-0.526-4.389	C20.8,73.618,22.274,72.688,22.537,74.285L22.537,74.285z"/><path style="fill-rule:evenodd;clip-rule:evenodd;fill:#475984;" d="M189.922,105.451c0,1.984-0.598,3.512-1.773,4.564	c-1.211,1.07-2.912,1.598-5.158,1.598c-2.193,0-3.912-0.527-5.141-1.598s-1.844-2.562-1.844-4.477v-4.951h5.932v5.004	c0,0.578,0.07,1,0.246,1.246c0.158,0.264,0.438,0.387,0.807,0.387s0.648-0.123,0.807-0.387c0.158-0.246,0.246-0.668,0.246-1.246	v-2.406c0-1.088-0.965-2.404-2.93-3.969c-0.422-0.332-0.756-0.596-0.982-0.789l-0.053-0.053c-2.703-2.248-4.072-4.495-4.072-6.743	v-2.37c0-1.773,0.615-3.143,1.826-4.126c1.229-0.983,2.93-1.457,5.123-1.457c2.211,0,3.914,0.509,5.141,1.527	c1.211,1.036,1.826,2.476,1.826,4.337v4.073h-5.879v-4.161c0-0.58-0.088-1.001-0.246-1.247c-0.158-0.246-0.438-0.368-0.807-0.368	s-0.648,0.123-0.807,0.368c-0.176,0.246-0.246,0.667-0.246,1.247v1.422c0,1.211,0.93,2.528,2.807,3.986	c0.439,0.316,0.791,0.58,1.02,0.79c1.859,1.493,3.018,2.651,3.473,3.476c0.457,0.844,0.686,1.932,0.686,3.285V105.451	L189.922,105.451z"/><path style="fill-rule:evenodd;clip-rule:evenodd;fill:#475984;" d="M160.424,110.963V84.311h5.773v2.229h0.105	c0.492-0.931,1.088-1.615,1.771-2.072c0.686-0.439,1.51-0.649,2.422-0.649c1.281,0,2.229,0.369,2.879,1.141	c0.631,0.755,0.965,1.896,0.965,3.389v22.614h-5.932V90.298c0-0.614-0.07-1.036-0.229-1.264c-0.158-0.211-0.438-0.316-0.824-0.316	c-0.369,0-0.631,0.123-0.807,0.386c-0.176,0.246-0.246,0.65-0.246,1.194v20.665H160.424L160.424,110.963z"/><path style="fill-rule:evenodd;clip-rule:evenodd;fill:#475984;" d="M144.648,89.771c0-2.019,0.598-3.529,1.756-4.565	c1.158-1.019,2.895-1.527,5.193-1.527c2.492,0,4.264,0.562,5.334,1.703c1.053,1.141,1.58,3.09,1.58,5.882v16.224	c0,0.701,0.035,1.334,0.105,1.879c0.07,0.561,0.176,1.088,0.334,1.596h-5.967c-0.07-0.314-0.123-0.631-0.176-0.947	c-0.053-0.334-0.07-0.631-0.07-0.895v-0.422h-0.088c-0.42,0.877-0.982,1.545-1.701,2.02c-0.721,0.473-1.562,0.701-2.51,0.701	c-1.246,0-2.176-0.387-2.826-1.141c-0.631-0.738-0.965-1.861-0.965-3.336v-5.654c0-1.387,0.264-2.527,0.756-3.424	c0.508-0.877,1.332-1.615,2.439-2.212c0.35-0.21,0.877-0.474,1.525-0.79c2.211-1.141,3.316-2.212,3.316-3.231v-1.896	c0-0.58-0.07-1-0.246-1.247c-0.174-0.264-0.455-0.386-0.842-0.386c-0.369,0-0.631,0.123-0.789,0.386	c-0.158,0.246-0.229,0.667-0.229,1.247v3.88h-5.932V89.771L144.648,89.771z"/><path style="fill-rule:evenodd;clip-rule:evenodd;fill:#FFFFFF;" d="M152.686,104.959v-7.076c-0.088,0.07-0.193,0.158-0.352,0.281	c-1.174,0.896-1.754,1.703-1.754,2.389v4.406c0,0.598,0.07,1,0.229,1.229c0.158,0.211,0.438,0.334,0.824,0.334	c0.352,0,0.633-0.123,0.807-0.387C152.615,105.891,152.686,105.504,152.686,104.959L152.686,104.959z"/><path style="fill-rule:evenodd;clip-rule:evenodd;fill:#475984;" d="M134.893,105.592c0,0.578,0.088,1,0.264,1.246	c0.158,0.264,0.439,0.387,0.807,0.387c0.369,0,0.65-0.123,0.807-0.387c0.158-0.246,0.246-0.668,0.246-1.246v-5.004h5.879v4.951	c0,1.932-0.613,3.424-1.824,4.477c-1.211,1.07-2.914,1.598-5.107,1.598c-2.492,0-4.264-0.562-5.334-1.721	c-1.07-1.141-1.598-3.09-1.598-5.863V91.264c0-2.792,0.527-4.759,1.58-5.9c1.053-1.124,2.826-1.685,5.299-1.685	c2.193,0,3.896,0.509,5.125,1.527c1.246,1.018,1.859,2.423,1.859,4.214v9.06h-8.002V105.592L134.893,105.592z"/><path style="fill-rule:evenodd;clip-rule:evenodd;fill:#FFFFFF;" d="M134.893,89.456v5.039h2.123v-5.039	c0-0.58-0.088-1.001-0.246-1.247c-0.156-0.246-0.438-0.368-0.807-0.368c-0.367,0-0.648,0.123-0.807,0.368	C134.98,88.455,134.893,88.876,134.893,89.456L134.893,89.456z"/><path style="fill-rule:evenodd;clip-rule:evenodd;fill:#475984;" d="M111.836,110.963V77.639h7.756	c2.613,0,4.545,0.474,5.809,1.422c1.281,0.931,1.912,2.37,1.912,4.284v3.916c0,1.791-0.369,3.108-1.123,3.951	c-0.754,0.86-2.088,1.457-4,1.843v0.176c1.736,0.158,3.018,0.667,3.859,1.545s1.264,2.16,1.264,3.828v5.162	c0,2.615-0.613,4.477-1.842,5.566c-1.229,1.088-3.352,1.631-6.336,1.631H111.836L111.836,110.963z"/><path style="fill-rule:evenodd;clip-rule:evenodd;fill:#FFFFFF;" d="M120.715,89.069v-5.303c0-0.755-0.141-1.247-0.422-1.51	c-0.279-0.246-0.877-0.386-1.807-0.386v9.147c0.912,0,1.51-0.141,1.789-0.404C120.557,90.369,120.715,89.842,120.715,89.069	L120.715,89.069z"/><path style="fill-rule:evenodd;clip-rule:evenodd;fill:#FFFFFF;" d="M120.715,104.396v-6.988c0-0.684-0.141-1.158-0.422-1.439	c-0.279-0.281-0.771-0.403-1.438-0.403h-0.369v10.674h0.369c0.666,0,1.158-0.141,1.438-0.42	C120.574,105.557,120.715,105.064,120.715,104.396L120.715,104.396z"/><path style="fill-rule:evenodd;clip-rule:evenodd;fill:#475984;" d="M101.605,88.578v-4.267h1.492v-4.952h5.912v4.952h1.721v4.267	h-1.721v16.188c0,0.826,0.105,1.352,0.316,1.58c0.193,0.211,0.598,0.316,1.211,0.316h0.193v4.301h-3.703	c-1.439,0-2.439-0.332-3.035-0.982c-0.598-0.666-0.895-1.879-0.895-3.705V88.578H101.605L101.605,88.578z"/><path style="fill-rule:evenodd;clip-rule:evenodd;fill:#475984;" d="M92.709,105.592c0,0.578,0.088,1,0.246,1.246	c0.176,0.264,0.438,0.387,0.807,0.387s0.649-0.123,0.825-0.387c0.158-0.246,0.246-0.668,0.246-1.246v-5.004h5.861v4.951	c0,1.932-0.598,3.424-1.809,4.477c-1.209,1.07-2.912,1.598-5.123,1.598c-2.474,0-4.247-0.562-5.317-1.721	c-1.088-1.141-1.614-3.09-1.614-5.863V91.264c0-2.792,0.526-4.759,1.579-5.9c1.053-1.124,2.825-1.685,5.317-1.685	c2.176,0,3.896,0.509,5.123,1.527c1.229,1.018,1.844,2.423,1.844,4.214v9.06h-7.984V105.592L92.709,105.592z"/><path style="fill-rule:evenodd;clip-rule:evenodd;fill:#FFFFFF;" d="M92.709,89.456v5.039h2.123v-5.039	c0-0.58-0.087-1.001-0.246-1.247c-0.175-0.246-0.456-0.368-0.825-0.368s-0.631,0.123-0.807,0.368	C92.797,88.455,92.709,88.876,92.709,89.456L92.709,89.456z"/><path style="fill-rule:evenodd;clip-rule:evenodd;fill:#475984;" d="M67.371,110.963V77.639h9.125l2.334,14.117	c0.21,1.282,0.386,2.687,0.544,4.249c0.158,1.58,0.281,3.354,0.386,5.391h0.263c-0.105-2.352-0.175-4.406-0.228-6.163	c-0.053-1.756-0.088-3.02-0.088-3.792l-0.035-13.801h5.211v33.324h-7.809L73.67,92.862c-0.14-0.703-0.298-1.773-0.509-3.195	c-0.193-1.44-0.404-3.003-0.614-4.706h-0.193c0.105,1.387,0.175,2.599,0.228,3.635c0.053,1.054,0.07,1.896,0.07,2.563v19.804	H67.371L67.371,110.963z"/></g></svg>