<?xml version="1.0" encoding="utf-8"?><!-- Generator: Adobe Illustrator 16.0.0, SVG Export Plug-In . SVG Version: 6.00 Build 0) --><!DOCTYPE svg PUBLIC "-//W3C//DTD SVG 1.1//EN" "http://www.w3.org/Graphics/SVG/1.1/DTD/svg11.dtd"><svg version="1.1" id="svg3344" xmlns:dc="http://purl.org/dc/elements/1.1/" xmlns:cc="http://creativecommons.org/ns#" xmlns:rdf="http://www.w3.org/1999/02/22-rdf-syntax-ns#" xmlns:svg="http://www.w3.org/2000/svg" xmlns="http://www.w3.org/2000/svg" xmlns:xlink="http://www.w3.org/1999/xlink" x="0px" y="0px" width="230.068px" height="66.73px" viewBox="0 0 230.068 66.73" enable-background="new 0 0 230.068 66.73" xml:space="preserve"><g id="layer1" transform="translate(-56.394151,-298.99676)"><path id="path2879" fill="#88221A" d="M99.855,319.261l-22.472,1.954c-1.045,0.092-1.901,1.014-1.905,2.059l-0.006,2.273	l-2.584,0.225l2.529,2.501l0.066,17.184l22.52-1.971c1.05-0.092,1.905-1.014,1.908-2.066l0.002-2.634l2.477-0.217l-2.467-2.44	L99.855,319.261L99.855,319.261z M60.13,303.153l47.632-4.142c1.05-0.089,1.999,0.272,2.655,0.929l1.515,1.497l6.058,5.988	c0.603,0.596,0.969,1.428,0.969,2.383l-0.037,11.963l-2.562,0.222l2.501,2.478l0.071,18.141l-2.471,0.218l2.47,2.439l-0.023,12.329	c-0.007,1.997-1.634,3.765-3.646,3.943l-47.629,4.173c-1.052,0.092-2-0.274-2.663-0.93l-7.568-7.485	c-0.601-0.595-0.965-1.432-0.962-2.379l0.023-12.328l2.476-0.218l-2.471-2.442l-0.072-18.137l2.593-0.228l-2.534-2.507	l0.033-11.962C56.489,305.091,58.122,303.327,60.13,303.153L60.13,303.153z"/><g id="g2881" transform="matrix(1.3704123,0,0,1.3704123,-487.03741,-598.23312)"><path id="path2883" fill="#C63827" d="M410.476,688.617l16.433-1.438l5.523,5.463l-20.58,1.802	c-0.765,0.069-1.382-0.497-1.382-1.264l0.006-1.923l-1.802-1.781l1.805-0.158L410.476,688.617L410.476,688.617z"/></g><g id="g2885" transform="matrix(1.3704123,0,0,1.3704123,-487.03741,-598.23312)"><linearGradient id="path2892_1_" gradientUnits="userSpaceOnUse" x1="674.074" y1="275.751" x2="675.553" y2="277.2301" gradientTransform="matrix(1.3704 0 0 -1.3704 -494.01 1067.9114)"><stop offset="0" style="stop-color:#C63827"/><stop offset="1" style="stop-color:#88221A"/></linearGradient><path id="path2892" fill="url(#path2892_1_)" d="M432.432,692.642l-5.523-5.463c0.766-0.067,1.39-0.74,1.392-1.508l5.523,5.465	C433.821,691.902,433.195,692.574,432.432,692.642z"/></g><g id="g2894" transform="matrix(1.3704123,0,0,1.3704123,-487.03741,-598.23312)"><g id="g2896"><g id="use2906"><linearGradient id="SVGID_1_" gradientUnits="userSpaceOnUse" x1="651.6882" y1="295.4076" x2="654.4862" y2="298.2057" gradientTransform="matrix(1.3704 0 0 -1.3704 -494.01 1067.9117)"><stop offset="0" style="stop-color:#88221A"/><stop offset="1" style="stop-color:#C43827"/></linearGradient><path id="SVGID_4_" fill="url(#SVGID_1_)" d="M402.137,666.088l-5.523-5.463c0.002-1.463,1.193-2.75,2.659-2.877l5.522,5.463	C403.332,663.341,402.14,664.626,402.137,666.088z"/></g><g><defs><path id="SVGID_2_" d="M402.137,666.088l-5.523-5.463c0.002-1.463,1.193-2.75,2.659-2.877l5.522,5.463	C403.332,663.341,402.14,664.626,402.137,666.088z"/></defs><clipPath id="SVGID_3_"><use xlink:href="#SVGID_2_" overflow="visible"/></clipPath><g id="g2911" clip-path="url(#SVGID_3_)"><linearGradient id="polygon2918_1_" gradientUnits="userSpaceOnUse" x1="659.6273" y1="291.506" x2="678.5473" y2="310.426" gradientTransform="matrix(1.3704 0 0 -1.3704 -494.01 1067.9117)"><stop offset="0" style="stop-color:#88221A"/><stop offset="1" style="stop-color:#C43827"/></linearGradient><polygon id="polygon2918" fill="url(#polygon2918_1_)" points="434.029,654.727 439.55,660.187 404.795,663.212	399.272,657.749	"/></g></g></g></g><g id="g2920" transform="matrix(1.3704123,0,0,1.3704123,-487.03741,-598.23312)"><path id="path2922" fill="#D83C27" d="M442.18,688.479l-0.017,8.997c-0.005,1.457-1.192,2.747-2.661,2.877l-34.755,3.045	c-1.463,0.129-2.65-0.955-2.646-2.413l0.017-8.995l8.358-0.733l-0.006,1.923c0,0.767,0.617,1.333,1.382,1.264l20.58-1.802	c0.764-0.067,1.39-0.739,1.392-1.506l0.004-1.924L442.18,688.479L442.18,688.479z"/></g><g id="g2924" transform="matrix(1.3704123,0,0,1.3704123,-487.03741,-598.23312)"><polygon id="polygon2926" fill="#E1473B" points="433.831,687.271 433.778,674.035 442.129,673.303 442.181,686.54	"/></g><g id="g2928" transform="matrix(1.3704123,0,0,1.3704123,-487.03741,-598.23312)"><path id="path2930" fill="#C43827" d="M435.968,655.404l1.105,1.092l4.42,4.37c-0.482-0.48-1.175-0.743-1.943-0.679l-34.754,3.024	l-5.523-5.463l34.757-3.022C434.795,654.66,435.488,654.925,435.968,655.404L435.968,655.404z"/></g><g id="g2932" transform="matrix(1.3704123,0,0,1.3704123,-487.03741,-598.23312)"><polygon id="polygon2934" fill="#E1473B" points="402.122,690.048 402.07,676.812 410.428,676.078 410.479,689.317	"/></g><g id="g2936" transform="matrix(1.3704123,0,0,1.3704123,-487.03741,-598.23312)"><path id="path2938" fill="#E4574E" d="M404.795,663.212l34.754-3.024c1.467-0.123,2.652,0.955,2.65,2.418l-0.027,8.729	l-8.352,0.729l0.002-1.66c0.001-0.767-0.619-1.33-1.381-1.263l-20.581,1.789c-0.762,0.067-1.387,0.74-1.39,1.501l-0.004,1.659	l-8.354,0.729l0.023-8.729C402.14,664.627,403.332,663.341,404.795,663.212L404.795,663.212z"/></g><g id="g2940" transform="matrix(1.3704123,0,0,1.3704123,-487.03741,-598.23312)"><path id="path2942" opacity="0.3" fill="#FFFFFF" enable-background="new " d="M433.827,689.212l-0.004,1.924	c-0.002,0.767-0.629,1.438-1.392,1.506l-20.58,1.802c-0.688,0.062-1.257-0.391-1.362-1.038c0.1,0.562,0.593,0.949,1.194,0.895	l20.734-1.813c0.684-0.061,1.248-0.666,1.25-1.352l0.005-1.924v-0.155L433.827,689.212L433.827,689.212z"/></g><g id="g2944" transform="matrix(1.3704123,0,0,1.3704123,-487.03741,-598.23312)"><path id="path2946" opacity="0.3" fill="#FFFFFF" enable-background="new " d="M410.314,693.18l0.005-1.909l0.156-0.014	l-0.006,1.923c0,0.767,0.617,1.333,1.382,1.264l20.58-1.802c0.764-0.067,1.39-0.739,1.392-1.506l0.004-1.924l0.158-0.014	l-0.007,1.938c-0.002,0.849-0.69,1.588-1.534,1.661l-20.578,1.803C411.011,694.677,410.313,694.04,410.314,693.18L410.314,693.18z	"/></g><path id="path2950" fill="#6F6E6F" d="M150.889,330.671c0-3.347-0.147-5.291-0.195-6.83h3.329l0.197,2.808h0.096	c1.327-2.311,3.187-3.124,5.05-3.124c4.162,0,6.856,4.027,6.856,11.222c0,8.142-3.623,11.358-7.346,11.358	c-2.254,0-3.528-1.314-4.163-2.535h-0.103v10.86h-3.721L150.889,330.671L150.889,330.671z M154.609,337.732	c0,0.633,0.052,1.266,0.197,1.809c0.734,3.122,2.451,3.669,3.479,3.669c3.135,0,4.163-3.984,4.163-8.375	c0-4.523-1.176-8.325-4.214-8.325c-1.713,0-3.279,1.949-3.475,3.938c-0.099,0.498-0.15,1.086-0.15,1.674L154.609,337.732	L154.609,337.732z"/><path id="path2952" fill="#6F6E6F" d="M172.943,335.109c0,6.742,2.887,8.143,5.581,8.143c1.667,0,2.988-0.364,3.919-0.815	l0.638,2.535c-1.321,0.634-3.328,1.042-5.241,1.042c-5.682,0-8.621-4.299-8.621-10.995c0-7.059,3.283-11.495,8.035-11.495	c4.798,0,6.76,4.708,6.76,9.595c0,0.859-0.049,1.447-0.1,1.991H172.943L172.943,335.109z M180.388,332.531	c0.051-4.347-1.714-6.291-3.526-6.291c-2.499,0-3.725,3.303-3.872,6.291H180.388z"/><path id="path2954" fill="#6F6E6F" d="M187.709,329.495c0-2.579-0.146-3.891-0.199-5.654h3.282l0.198,2.668h0.098	c1.026-1.763,2.941-2.986,5.438-2.986c3.279,0,5.731,2.218,5.731,7.512v14.706h-3.772v-14.074c0-2.623-0.537-5.204-3.284-5.204	c-1.567,0-3.086,1.223-3.524,3.529c-0.147,0.543-0.198,1.224-0.198,1.989v13.758h-3.769V329.495z"/><path id="path2956" fill="#C43827" d="M205.802,342.12c0.828,0.499,2.297,1.133,3.819,1.133c2.106,0,3.477-1.222,3.477-3.167	c0-1.677-0.638-2.807-3.038-4.301c-3.082-1.809-4.751-3.711-4.751-6.2c0-3.573,2.84-6.062,6.515-6.062	c1.864,0,3.231,0.588,4.215,1.131l-0.983,2.626c-0.929-0.59-1.91-0.998-3.183-0.998c-2.01,0-3.037,1.358-3.037,2.804	c0,1.451,0.586,2.264,2.94,3.759c2.742,1.629,4.898,3.621,4.898,6.651c0,4.391-3.233,6.518-7.152,6.518	c-1.719,0-3.626-0.499-4.654-1.268L205.802,342.12z"/><path id="path2958" fill="#C43827" d="M224.272,318.727v5.112h4.557v2.625h-4.557v13.031c0,2.852,1.08,3.622,2.452,3.622	c0.636,0,1.126-0.046,1.518-0.138l0.199,2.67c-0.689,0.227-1.57,0.363-2.796,0.363c-1.519,0-2.839-0.363-3.722-1.313	c-0.981-0.996-1.421-2.488-1.421-5.519v-12.716h-2.888v-2.624h2.888v-3.711L224.272,318.727z"/><path id="path2960" fill="#C43827" d="M244.096,340.763c0,1.675,0.047,3.575,0.246,4.979h-3.378l-0.248-2.31h-0.143	c-1.034,1.677-2.698,2.672-4.759,2.672c-3.135,0-5.582-2.444-5.582-6.245c0-5.523,4.753-7.92,10.088-7.967v-0.676	c0-2.94-0.829-4.935-3.769-4.935c-1.47,0-2.793,0.408-3.92,1.131l-0.833-2.442c1.029-0.68,3.187-1.448,5.533-1.448	c4.759,0,6.764,2.851,6.764,7.737V340.763z M240.42,334.385c-1.957,0-6.512,0.361-6.512,5.11c0,2.896,1.57,3.893,2.889,3.893	c1.666,0,3.039-1.13,3.477-3.302c0.1-0.407,0.146-0.861,0.146-1.269L240.42,334.385L240.42,334.385z"/><path id="path2962" fill="#C43827" d="M259.937,345.199c-0.833,0.452-2.256,0.815-3.918,0.815c-5.195,0-8.671-3.848-8.671-11.087	c0-6.288,3.429-11.402,9.361-11.402c1.268,0,2.639,0.316,3.323,0.677l-0.731,2.852c-0.485-0.226-1.472-0.588-2.694-0.588	c-3.821,0-5.488,4.165-5.488,8.462c0,5.112,2.104,8.191,5.591,8.191c0.973,0,1.854-0.181,2.687-0.589L259.937,345.199	L259.937,345.199z"/><path id="path2964" fill="#6F6E6F" d="M148.021,334.789c0,8.464-4.213,11.315-7.887,11.315c-4.265,0-7.692-3.575-7.692-11.271	c0-7.964,3.87-11.312,7.938-11.312C144.641,323.523,148.021,327.188,148.021,334.789L148.021,334.789z M136.211,334.789	c0,3.622,0.688,8.554,4.117,8.554c3.232,0,3.921-5.113,3.921-8.554c0-3.347-0.688-8.507-4.02-8.507	C136.851,326.283,136.211,331.443,136.211,334.789L136.211,334.789z"/><path id="path2966" fill="#C43827" d="M266.02,334.023h0.098c0.439-0.86,0.833-1.723,1.273-2.446l4.701-7.737h4.067l-6.267,9.231	l6.86,12.67h-4.218l-5.144-10.316l-1.37,2.036v8.28h-3.726v-31.315h3.726v19.598H266.02z"/><polygon id="polygon2968" fill="#C43827" points="280.101,323.382 280.101,326.55 279.492,326.55 279.492,323.382 277.974,323.382	277.974,322.952 281.616,322.952 281.616,323.382	"/><path id="path2970" fill="#C43827" d="M282.156,322.952h0.87l1.288,3.043l1.285-3.043h0.863v3.598h-0.579v-2.124	c0-0.074,0-0.196,0.007-0.364c0.005-0.17,0.005-0.353,0.005-0.544l-1.276,3.032h-0.606l-1.295-3.032v0.109	c0,0.086,0.003,0.221,0.011,0.401c0.005,0.183,0.01,0.313,0.01,0.397v2.124h-0.581L282.156,322.952L282.156,322.952z"/></g></svg>