<?xml version="1.0" encoding="iso-8859-1"?><!-- Generator: Adobe Illustrator 16.0.0, SVG Export Plug-In . SVG Version: 6.00 Build 0) --><!DOCTYPE svg PUBLIC "-//W3C//DTD SVG 1.1//EN" "http://www.w3.org/Graphics/SVG/1.1/DTD/svg11.dtd"><svg version="1.1" id="Layer_1" xmlns="http://www.w3.org/2000/svg" xmlns:xlink="http://www.w3.org/1999/xlink" x="0px" y="0px" width="192.756px" height="192.756px" viewBox="0 0 192.756 192.756" style="enable-background:new 0 0 192.756 192.756;" xml:space="preserve"><g><polygon style="fill-rule:evenodd;clip-rule:evenodd;fill:#FFFFFF;" points="0,0 192.756,0 192.756,192.756 0,192.756 0,0	"/><polygon style="fill-rule:evenodd;clip-rule:evenodd;" points="131.463,85.484 135.074,85.484 135.074,103.984 150.729,103.984	148.43,107.598 131.463,107.598 131.463,85.484	"/><path style="fill-rule:evenodd;clip-rule:evenodd;" d="M103.109,107.598L89.753,86.524c-0.821-1.368-3.01-1.368-3.941,0.055	l-13.246,21.019h4.379l3.996-6.35h8.539l2.245-3.613h-8.539l4.653-7.279l10.893,17.242H103.109L103.109,107.598z"/><path style="fill-rule:evenodd;clip-rule:evenodd;" d="M111.236,85.491c-6.102,0-10.119,4.947-10.119,11.05	c0,6.102,4.018,11.051,10.119,11.051l14.838-0.018l2.322-3.582h-17.051c-4.113,0-6.52-3.336-6.52-7.451	c0-4.115,2.406-7.451,6.52-7.451h15.189l2.242-3.61L111.236,85.491L111.236,85.491z"/><path style="fill-rule:evenodd;clip-rule:evenodd;" d="M18.624,89.09h15.654c4.115,0,6.521,3.336,6.521,7.451	c0,4.115-2.405,7.451-6.521,7.451H18.624c-4.115,0-6.52-3.336-6.52-7.451C12.104,92.426,14.509,89.09,18.624,89.09L18.624,89.09z M18.624,85.491c-6.103,0-10.12,4.947-10.12,11.05c0,6.102,4.017,11.051,10.12,11.051h15.654c6.103,0,10.12-4.949,10.12-11.051	c0-6.103-4.017-11.05-10.12-11.05H18.624L18.624,85.491z"/><path style="fill-rule:evenodd;clip-rule:evenodd;" d="M154.588,98.293c0.588,3.27,2.838,5.699,6.35,5.699h17.051l-2.324,3.582	l-14.836,0.018c-6.104,0-10.119-4.949-10.119-11.051c0-6.103,4.016-11.05,10.119-11.05l17.539-0.01l-2.24,3.61h-15.189	c-3.463,0-5.723,2.388-6.35,5.59h21.43l-2.299,3.613H154.588L154.588,98.293z"/><path style="fill-rule:evenodd;clip-rule:evenodd;" d="M64.821,98.613c3.623,0,6.561-2.938,6.561-6.561s-2.938-6.561-6.561-6.561	l-18.419-0.008v22.114h4.051V89.091h14.368c1.635,0,2.961,1.326,2.961,2.961c0,1.636-1.326,2.961-2.961,2.961H53.299l12.998,12.559	h5.229l-9.305-8.951L64.821,98.613L64.821,98.613z"/><path style="fill-rule:evenodd;clip-rule:evenodd;" d="M182.152,85.504c0.939,0,1.682,0.742,1.682,1.726	c0,1-0.742,1.736-1.682,1.736c-0.951,0-1.691-0.736-1.691-1.736C180.461,86.246,181.201,85.504,182.152,85.504v-0.346	c-1.143,0-2.109,0.879-2.109,2.071c0,1.204,0.967,2.083,2.109,2.083c1.133,0,2.1-0.879,2.1-2.083c0-1.192-0.967-2.071-2.1-2.071	V85.504L182.152,85.504z"/><path style="fill-rule:evenodd;clip-rule:evenodd;" d="M181.713,86.345h0.496c0.252,0,0.521,0.055,0.521,0.352	c0,0.368-0.275,0.391-0.584,0.391h-0.434v0.308h0.418l0.633,1.039h0.406l-0.682-1.055c0.352-0.044,0.621-0.23,0.621-0.659	c0-0.473-0.281-0.682-0.846-0.682h-0.914v2.396h0.363V86.345L181.713,86.345z"/></g></svg>