<?xml version="1.0" encoding="iso-8859-1"?><!-- Generator: Adobe Illustrator 16.0.0, SVG Export Plug-In . SVG Version: 6.00 Build 0) --><!DOCTYPE svg PUBLIC "-//W3C//DTD SVG 1.1//EN" "http://www.w3.org/Graphics/SVG/1.1/DTD/svg11.dtd"><svg version="1.1" id="svg37869" inkscape:version="0.48.1 " sodipodi:docname="Neues Dokument 5" xmlns:inkscape="http://www.inkscape.org/namespaces/inkscape" xmlns:sodipodi="http://sodipodi.sourceforge.net/DTD/sodipodi-0.dtd" xmlns:svg="http://www.w3.org/2000/svg" xmlns:rdf="http://www.w3.org/1999/02/22-rdf-syntax-ns#" xmlns:cc="http://creativecommons.org/ns#" xmlns:dc="http://purl.org/dc/elements/1.1/" xmlns="http://www.w3.org/2000/svg" xmlns:xlink="http://www.w3.org/1999/xlink" x="0px" y="0px" width="2494.249px" height="500px" viewBox="10.001 10 2494.249 500" style="enable-background:new 10.001 10 2494.249 500;" xml:space="preserve"><sodipodi:namedview fit-margin-bottom="0" inkscape:document-units="px" fit-margin-right="0" inkscape:pageshadow="2" inkscape:window-y="-4" inkscape:window-height="990" inkscape:window-x="-4" inkscape:current-layer="layer1" inkscape:pageopacity="0.0" inkscape:window-maximized="1" inkscape:window-width="1680" showgrid="false" inkscape:cx="1257.125" inkscape:cy="260.00001" bordercolor="#666666" pagecolor="#ffffff" inkscape:zoom="0.62142951" id="base" borderopacity="1.0" fit-margin-left="0" fit-margin-top="0"></sodipodi:namedview><g id="layer1" transform="translate(-243.17807,-3.186741)" inkscape:groupmode="layer" inkscape:label="Ebene 1"><g id="g10838" transform="matrix(148.89354,0,0,-148.89354,447.18679,107.80918)"><path id="path10840" inkscape:connector-curvature="0" style="fill:#416E9F;" d="M0,0c0-0.212-0.117-0.387-0.369-0.387h-0.258	v0.783h0.258C-0.117,0.396,0,0.216,0,0 M-0.627-0.776v0.221h0.258c0.464,0,0.721,0.244,0.721,0.555	c0,0.319-0.257,0.559-0.721,0.559h-0.934V0.468c0.302,0,0.357-0.072,0.357-0.523v-0.721c0-0.45-0.055-0.527-0.357-0.527v-0.09	h1.032v0.09C-0.572-1.303-0.627-1.226-0.627-0.776"/></g><g id="g10842" transform="matrix(148.89354,0,0,-148.89354,627.24196,219.2554)"><path id="path10844" inkscape:connector-curvature="0" style="fill:#416E9F;" d="M0,0h0.739l0.09-0.207	C0.942-0.473,0.91-0.549,0.586-0.549v-0.096h1.009v0.096c-0.239,0-0.292,0.053-0.441,0.392L0.491,1.384H0.428l-0.662-1.541	c-0.149-0.339-0.19-0.392-0.464-0.392v-0.096h0.851v0.096c-0.356,0-0.356,0.076-0.243,0.342L0,0z M0.667,0.167H0.072l0.297,0.69	L0.667,0.167z"/></g><g id="g10846" transform="matrix(148.89354,0,0,-148.89354,963.31255,115.92448)"><path id="path10848" inkscape:connector-curvature="0" style="fill:#416E9F;" d="M0,0v-0.721c0-0.451-0.054-0.527-0.356-0.527	v-0.09h0.879v0.09c-0.302,0-0.356,0.076-0.356,0.527v0.883L1.478-1.41h0.085V0c0,0.45,0.055,0.523,0.357,0.523v0.089H1.041V0.523	C1.343,0.523,1.397,0.45,1.397,0v-0.811L0.199,0.612h-0.555V0.523C-0.054,0.523,0,0.45,0,0"/></g><g id="g10850" transform="matrix(148.89354,0,0,-148.89354,1560.671,169.58452)"><path id="path10852" inkscape:connector-curvature="0" style="fill:#416E9F;" d="M0,0c0-0.36-0.118-0.811-0.712-0.811h-0.036	c-0.225,0-0.257,0.05-0.257,0.343v1.279h0.293C-0.118,0.811,0,0.356,0,0 M-1.681-0.978h0.956c0.766,0,1.099,0.442,1.099,0.978	c0,0.531-0.333,0.973-1.099,0.973h-0.956v-0.09c0.302,0,0.356-0.072,0.356-0.523v-0.72c0-0.451-0.054-0.527-0.356-0.527V-0.978z"	/></g><g id="g10854" transform="matrix(148.89354,0,0,-148.89354,2014.3651,169.58452)"><path id="path10856" inkscape:connector-curvature="0" style="fill:#416E9F;" d="M0,0c0,0.572-0.496,1.05-1.099,1.05	c-0.604,0-1.1-0.478-1.1-1.05c0-0.581,0.496-1.054,1.1-1.054C-0.496-1.054,0-0.581,0,0 M-0.37,0c0-0.392-0.198-0.879-0.729-0.879	C-1.631-0.879-1.83-0.392-1.83,0c0,0.387,0.199,0.879,0.731,0.879C-0.568,0.879-0.37,0.387-0.37,0"/></g><g id="g10858" transform="matrix(148.89354,0,0,-148.89354,2270.3298,107.80918)"><path id="path10860" inkscape:connector-curvature="0" style="fill:#416E9F;" d="M0,0c0-0.212-0.117-0.387-0.369-0.387h-0.258	v0.783h0.258C-0.117,0.396,0,0.216,0,0 M-0.194-0.545C0.144-0.501,0.352-0.275,0.352,0c0,0.319-0.258,0.559-0.721,0.559h-0.934	V0.468c0.302,0,0.356-0.072,0.356-0.523v-0.721c0-0.45-0.054-0.527-0.356-0.527v-0.09h1.032v0.09	c-0.301,0-0.356,0.077-0.356,0.527v0.221H-0.5l0.613-0.838h0.576v0.09C0.473-1.271,0.266-1.096,0.085-0.884L-0.194-0.545z"/></g><g id="g10862" transform="matrix(148.89354,0,0,-148.89354,2509.7935,219.2554)"><path id="path10864" inkscape:connector-curvature="0" style="fill:#416E9F;" d="M0,0h0.739l0.09-0.207	C0.942-0.473,0.91-0.549,0.586-0.549v-0.096h1.01v0.096c-0.24,0-0.293,0.053-0.442,0.392L0.492,1.384H0.428l-0.662-1.541	c-0.149-0.339-0.19-0.392-0.464-0.392v-0.096h0.851v0.096c-0.356,0-0.356,0.076-0.243,0.342L0,0z M0.667,0.167H0.072l0.298,0.69	L0.667,0.167z"/></g><path id="path10870" inkscape:connector-curvature="0" style="fill:#9C9C9C;" d="M2747.337,370.309H253.37v-6.253h2493.967V370.309	z"/><g id="g10872" transform="matrix(148.89354,0,0,-148.89354,1709.4776,422.8834)"><path id="path10874" inkscape:connector-curvature="0" style="fill:#9C9C9C;" d="M0,0c-0.031,0-0.058,0.025-0.058,0.059	c0,0.03,0.027,0.056,0.058,0.056c0.031,0,0.058-0.026,0.058-0.056C0.058,0.025,0.031,0,0,0 M-0.149-0.584v0.027	c0.086,0,0.103,0.023,0.103,0.152v0.066c0,0.13-0.017,0.15-0.103,0.15v0.029l0.196,0.032v-0.277c0-0.129,0.016-0.152,0.103-0.152	v-0.027H-0.149z"/></g><g id="g10876" transform="matrix(148.89354,0,0,-148.89354,1798.946,441.95607)"><path id="path10878" inkscape:connector-curvature="0" style="fill:#9C9C9C;" d="M0,0c0.118,0,0.169-0.083,0.169-0.194v-0.082	c0-0.13,0.017-0.153,0.104-0.153v-0.027h-0.299v0.027c0.085,0,0.103,0.023,0.103,0.153v0.075c0,0.085-0.03,0.14-0.108,0.14	c-0.072,0-0.15-0.059-0.15-0.13v-0.085c0-0.135,0.011-0.153,0.091-0.153v-0.027h-0.287v0.027c0.086,0,0.103,0.023,0.103,0.153	v0.065c0,0.13-0.017,0.151-0.103,0.151v0.028L-0.204,0c0.007-0.013,0.018-0.066,0.023-0.093C-0.146-0.049-0.086,0,0,0"/></g><g id="g10880" transform="matrix(148.89354,0,0,-148.89354,1848.6168,451.99149)"><path id="path10882" inkscape:connector-curvature="0" style="fill:#9C9C9C;" d="M0,0v0.031C0.078,0.048,0.106,0.104,0.116,0.19	H0.16V0.046h0.114V0H0.16v-0.264c0-0.062,0.017-0.095,0.059-0.095c0.023,0,0.055,0.017,0.085,0.046l0.021-0.023	C0.29-0.38,0.232-0.411,0.19-0.411c-0.072,0-0.122,0.046-0.122,0.147V0H0z"/></g><g id="g10884" transform="matrix(148.89354,0,0,-148.89354,1958.6635,465.40621)"><path id="path10886" inkscape:connector-curvature="0" style="fill:#9C9C9C;" d="M0,0c0.014,0.042-0.008,0.105-0.094,0.105	C-0.15,0.105-0.198,0.064-0.216,0H0z M-0.055-0.267c0.044,0,0.106,0.026,0.143,0.061l0.025-0.028	C0.066-0.283-0.013-0.32-0.087-0.32c-0.144,0-0.241,0.107-0.241,0.239c0,0.139,0.119,0.238,0.241,0.238	c0.115,0,0.209-0.093,0.177-0.206h-0.314C-0.24-0.17-0.19-0.267-0.055-0.267"/></g><g id="g10888" transform="matrix(148.89354,0,0,-148.89354,2046.8084,463.03939)"><path id="path10890" inkscape:connector-curvature="0" style="fill:#9C9C9C;" d="M0,0c-0.024,0-0.046,0.021-0.046,0.047	c0,0.027-0.016,0.042-0.041,0.042c-0.031,0-0.101-0.047-0.101-0.152v-0.072c0-0.13,0.016-0.152,0.104-0.152v-0.027h-0.299v0.027	c0.086,0,0.102,0.022,0.102,0.152v0.066c0,0.13-0.016,0.151-0.102,0.151v0.027l0.173,0.033c0.006-0.013,0.018-0.067,0.022-0.094	C-0.162,0.1-0.103,0.142-0.051,0.142c0.072,0,0.103-0.049,0.103-0.081C0.052,0.032,0.041,0,0,0"/></g><g id="g10892" transform="matrix(148.89354,0,0,-148.89354,2122.1188,441.95607)"><path id="path10894" inkscape:connector-curvature="0" style="fill:#9C9C9C;" d="M0,0c0.118,0,0.169-0.083,0.169-0.194v-0.082	c0-0.13,0.017-0.153,0.104-0.153v-0.027h-0.299v0.027c0.085,0,0.103,0.023,0.103,0.153v0.075c0,0.085-0.03,0.14-0.108,0.14	c-0.072,0-0.15-0.059-0.15-0.13v-0.085c0-0.135,0.011-0.153,0.091-0.153v-0.027h-0.287v0.027c0.086,0,0.103,0.023,0.103,0.153	v0.065c0,0.13-0.017,0.151-0.103,0.151v0.028L-0.204,0c0.007-0.013,0.018-0.066,0.023-0.093C-0.146-0.049-0.086,0,0,0"/></g><g id="g10896" transform="matrix(148.89354,0,0,-148.89354,2224.5718,465.40621)"><path id="path10898" inkscape:connector-curvature="0" style="fill:#9C9C9C;" d="M0,0c0.014,0.042-0.008,0.105-0.093,0.105	C-0.15,0.105-0.198,0.064-0.216,0H0z M-0.055-0.267c0.044,0,0.106,0.026,0.143,0.061l0.025-0.028	C0.066-0.283-0.013-0.32-0.087-0.32c-0.144,0-0.241,0.107-0.241,0.239c0,0.139,0.119,0.238,0.241,0.238	c0.115,0,0.209-0.093,0.177-0.206h-0.314C-0.239-0.17-0.19-0.267-0.055-0.267"/></g><g id="g10900" transform="matrix(148.89354,0,0,-148.89354,2253.6811,451.99149)"><path id="path10902" inkscape:connector-curvature="0" style="fill:#9C9C9C;" d="M0,0v0.031C0.078,0.048,0.106,0.104,0.117,0.19	H0.16V0.046h0.114V0H0.16v-0.264c0-0.062,0.017-0.095,0.059-0.095c0.023,0,0.055,0.017,0.085,0.046l0.022-0.023	C0.29-0.38,0.232-0.411,0.19-0.411c-0.072,0-0.122,0.046-0.122,0.147V0H0z"/></g><g id="g10904" transform="matrix(148.89354,0,0,-148.89354,2415.158,463.03939)"><path id="path10906" inkscape:connector-curvature="0" style="fill:#9C9C9C;" d="M0,0c-0.024,0-0.046,0.021-0.046,0.047	c0,0.027-0.015,0.042-0.041,0.042c-0.031,0-0.101-0.047-0.101-0.152v-0.072c0-0.13,0.017-0.152,0.104-0.152v-0.027h-0.299v0.027	c0.086,0,0.103,0.022,0.103,0.152v0.066c0,0.13-0.017,0.151-0.103,0.151v0.027l0.173,0.033c0.006-0.013,0.018-0.067,0.022-0.094	C-0.161,0.1-0.103,0.142-0.051,0.142c0.072,0,0.104-0.049,0.104-0.081C0.053,0.032,0.041,0,0,0"/></g><g id="g10908" transform="matrix(148.89354,0,0,-148.89354,2474.7892,474.56376)"><path id="path10910" inkscape:connector-curvature="0" style="fill:#9C9C9C;" d="M0,0c-0.124-0.028-0.179-0.072-0.179-0.129	c0-0.041,0.028-0.067,0.06-0.067c0.028,0,0.059,0.009,0.119,0.063V0z M0.091-0.251c-0.05,0-0.082,0.028-0.089,0.076	c-0.064-0.058-0.11-0.079-0.162-0.079c-0.064,0-0.118,0.04-0.118,0.109c0,0.112,0.13,0.159,0.278,0.186	c0,0.097-0.013,0.136-0.087,0.136c-0.031,0-0.075-0.021-0.075-0.062c0-0.027-0.019-0.046-0.044-0.046	c-0.026,0-0.045,0.019-0.045,0.046c0,0.062,0.082,0.104,0.165,0.104c0.127,0,0.178-0.054,0.178-0.177v-0.197	c0-0.033,0.011-0.051,0.031-0.051c0.013,0,0.027,0.01,0.036,0.019l0.018-0.024C0.152-0.237,0.12-0.251,0.091-0.251"/></g><g id="g10912" transform="matrix(148.89354,0,0,-148.89354,2571.0328,465.03457)"><path id="path10914" inkscape:connector-curvature="0" style="fill:#9C9C9C;" d="M0,0c-0.023,0.062-0.073,0.103-0.132,0.103	c-0.101,0-0.148-0.082-0.148-0.187c0-0.104,0.047-0.188,0.148-0.188c0.059,0,0.109,0.043,0.132,0.104V0z M0,0.291	c0,0.131-0.015,0.153-0.103,0.153V0.47l0.195,0.034v-0.615c0-0.13,0.017-0.153,0.104-0.153v-0.027L0.022-0.323	C0.016-0.31,0.005-0.265,0.001-0.243c-0.036-0.047-0.088-0.08-0.16-0.08c-0.124,0-0.226,0.108-0.226,0.239	c0,0.132,0.102,0.239,0.226,0.239c0.066,0,0.119-0.028,0.159-0.077V0.291z"/></g><g id="g10916" transform="matrix(148.89354,0,0,-148.89354,2633.3918,422.8834)"><path id="path10918" inkscape:connector-curvature="0" style="fill:#9C9C9C;" d="M0,0c-0.031,0-0.058,0.025-0.058,0.059	c0,0.03,0.027,0.056,0.058,0.056c0.031,0,0.058-0.026,0.058-0.056C0.058,0.025,0.031,0,0,0 M-0.149-0.584v0.027	c0.086,0,0.103,0.023,0.103,0.152v0.066c0,0.13-0.017,0.15-0.103,0.15v0.029l0.196,0.032v-0.277c0-0.129,0.016-0.152,0.103-0.152	v-0.027H-0.149z"/></g><g id="g10920" transform="matrix(148.89354,0,0,-148.89354,2707.9101,449.26615)"><path id="path10922" inkscape:connector-curvature="0" style="fill:#9C9C9C;" d="M0,0c-0.106,0-0.158-0.085-0.158-0.19	c0-0.104,0.052-0.188,0.158-0.188c0.108,0,0.158,0.084,0.158,0.188C0.158-0.085,0.108,0,0,0 M0-0.429	c-0.145,0-0.264,0.108-0.264,0.239c0,0.132,0.119,0.239,0.264,0.239S0.264-0.058,0.264-0.19C0.264-0.321,0.145-0.429,0-0.429"/></g></g></svg>