<?xml version="1.0" encoding="iso-8859-1"?><!-- Generator: Adobe Illustrator 16.0.0, SVG Export Plug-In . SVG Version: 6.00 Build 0) --><!DOCTYPE svg PUBLIC "-//W3C//DTD SVG 1.1//EN" "http://www.w3.org/Graphics/SVG/1.1/DTD/svg11.dtd"><svg version="1.1" id="Layer_1" xmlns:rdf="http://www.w3.org/1999/02/22-rdf-syntax-ns#" xmlns:dc="http://purl.org/dc/elements/1.1/" xmlns:cc="http://creativecommons.org/ns#" xmlns="http://www.w3.org/2000/svg" xmlns:xlink="http://www.w3.org/1999/xlink" x="0px" y="0px" width="326.05px" height="105.914px" viewBox="-11.153 -13.144 326.05 105.914" style="enable-background:new -11.153 -13.144 326.05 105.914;" xml:space="preserve"><g transform="matrix(1.25,0,0,-1.25,-5.9169448,86.523103)"><g transform="matrix(1.6613986,0,0,1.6613986,-4.1890052,-4.9972634)"><g><defs><rect id="SVGID_1_" x="-84.525" y="-27.457" width="326.05" height="105.914"/></defs><clipPath id="SVGID_2_"><use xlink:href="#SVGID_1_" style="overflow:visible;"/></clipPath><g style="clip-path:url(#SVGID_2_);"><g transform="translate(32.4187,40.9816)"><path style="fill:#003087;" d="M0,0c-1.674,1.908-4.7,2.726-8.571,2.726h-11.235c-0.792,0-1.465-0.576-1.589-1.357	L-26.073-28.3c-0.093-0.585,0.36-1.115,0.953-1.115h6.936l1.742,11.049l-0.054-0.346c0.124,0.781,0.792,1.357,1.583,1.357	h3.296c6.475,0,11.545,2.63,13.026,10.238c0.044,0.225,0.082,0.444,0.115,0.658C1.965-3.647,1.521-1.733,0,0"/></g><g transform="translate(117.3312,26.8632)"><path style="fill:#009CDE;" d="M0,0c-0.424-2.784-2.55-2.784-4.606-2.784h-1.17l0.821,5.198	c0.049,0.314,0.32,0.545,0.638,0.545h0.537c1.4,0,2.722,0,3.404-0.797C0.031,1.685,0.154,0.977,0,0 M-0.895,7.264h-7.756	c-0.531,0-0.982-0.386-1.066-0.91l-3.135-19.888c-0.062-0.392,0.242-0.747,0.638-0.747h3.98c0.371,0,0.687,0.27,0.745,0.636	l0.89,5.639c0.082,0.524,0.534,0.91,1.064,0.91h2.454c5.11,0,8.058,2.472,8.828,7.373c0.347,2.142,0.014,3.826-0.989,5.005	C3.655,6.578,1.7,7.264-0.895,7.264"/></g><g transform="translate(62.0115,26.8632)"><path style="fill:#003087;" d="M0,0c-0.424-2.784-2.55-2.784-4.607-2.784h-1.17l0.821,5.198	c0.049,0.314,0.32,0.545,0.638,0.545h0.537c1.4,0,2.722,0,3.404-0.797C0.031,1.685,0.154,0.977,0,0 M-0.895,7.264h-7.756	c-0.531,0-0.982-0.386-1.065-0.91l-3.136-19.888c-0.062-0.392,0.241-0.747,0.638-0.747h3.704c0.53,0,0.981,0.386,1.064,0.909	l0.847,5.366c0.082,0.524,0.534,0.91,1.064,0.91h2.454c5.109,0,8.058,2.472,8.828,7.373c0.347,2.142,0.014,3.826-0.989,5.005	C3.655,6.578,1.7,7.264-0.895,7.264"/></g><g transform="translate(79.1228,19.7234)"><path style="fill:#003087;" d="M0,0c-0.359-2.122-2.043-3.547-4.192-3.547c-1.077,0-1.94,0.347-2.494,1.003	c-0.549,0.65-0.756,1.577-0.582,2.608c0.334,2.104,2.046,3.574,4.162,3.574c1.055,0,1.911-0.35,2.476-1.012	C-0.061,1.959,0.163,1.027,0,0 M5.176,7.229H1.462c-0.318,0-0.589-0.231-0.639-0.546L0.66,5.645L0.401,6.021	c-0.805,1.167-2.598,1.558-4.388,1.558c-4.103,0-7.608-3.11-8.29-7.471c-0.355-2.176,0.149-4.255,1.383-5.706	c1.133-1.333,2.75-1.888,4.677-1.888c3.308,0,5.142,2.124,5.142,2.124l-0.166-1.032C-1.303-6.786-1-7.141-0.602-7.141h3.344	c0.531,0,0.982,0.385,1.065,0.909L5.815,6.482C5.877,6.874,5.573,7.229,5.176,7.229"/></g><g transform="translate(134.4426,19.7234)"><path style="fill:#009CDE;" d="M0,0c-0.359-2.122-2.043-3.547-4.192-3.547c-1.077,0-1.94,0.347-2.494,1.003	c-0.55,0.65-0.756,1.577-0.582,2.608c0.334,2.104,2.045,3.574,4.162,3.574c1.055,0,1.911-0.35,2.476-1.012	C-0.061,1.959,0.163,1.027,0,0 M5.176,7.229H1.462c-0.318,0-0.589-0.231-0.639-0.546L0.66,5.645L0.4,6.021	c-0.804,1.167-2.597,1.558-4.387,1.558c-4.102,0-7.607-3.11-8.289-7.471c-0.356-2.176,0.149-4.255,1.383-5.706	c1.133-1.333,2.75-1.888,4.677-1.888c3.309,0,5.143,2.124,5.143,2.124l-0.166-1.032C-1.303-6.786-1-7.141-0.602-7.141h3.343	c0.531,0,0.982,0.385,1.066,0.909L5.815,6.482C5.877,6.874,5.573,7.229,5.176,7.229"/></g><g transform="translate(104.0795,26.9523)"><path style="fill:#003087;" d="M0,0h-3.733C-4.09,0-4.424-0.177-4.624-0.473l-5.15-7.584l-2.182,7.288	C-12.093-0.313-12.513,0-12.989,0h-3.669c-0.443,0-0.755-0.436-0.612-0.855l4.11-12.066l-3.866-5.455	c-0.303-0.428,0.003-1.02,0.528-1.02h3.729c0.353,0,0.684,0.173,0.886,0.463L0.531-1.015C0.828-0.586,0.522,0,0,0"/></g><g transform="translate(143.996,33.5807)"><path style="fill:#009CDE;" d="M0,0l-3.184-20.252c-0.062-0.392,0.242-0.747,0.639-0.747h3.201c0.53,0,0.982,0.386,1.065,0.91	L4.86-0.201c0.062,0.392-0.241,0.747-0.639,0.747H0.639C0.32,0.546,0.049,0.315,0,0"/></g><g transform="translate(32.4187,40.9816)"><path style="fill:#003087;" d="M0,0c-1.674,1.908-4.7,2.726-8.571,2.726h-11.235c-0.792,0-1.465-0.576-1.589-1.357	L-26.073-28.3c-0.093-0.585,0.36-1.115,0.953-1.115h6.936l1.742,11.049l-0.054-0.346c0.124,0.781,0.792,1.357,1.583,1.357	h3.296c6.475,0,11.545,2.63,13.026,10.238c0.044,0.225,0.082,0.444,0.115,0.658C1.965-3.647,1.521-1.733,0,0"/></g><g transform="translate(17.8489,34.4853)"><path style="fill:#003087;" d="M0,0c0.074,0.47,0.376,0.855,0.782,1.05c0.185,0.088,0.391,0.137,0.607,0.137h8.808	c1.043,0,2.016-0.068,2.905-0.211c0.255-0.041,0.502-0.088,0.742-0.142c0.24-0.053,0.473-0.113,0.699-0.179	c0.113-0.033,0.224-0.067,0.333-0.103c0.437-0.146,0.844-0.316,1.218-0.515c0.441,2.813-0.003,4.726-1.524,6.459	c-1.675,1.908-4.7,2.726-8.571,2.726H-5.237c-0.791,0-1.464-0.576-1.588-1.357l-4.678-29.668	c-0.093-0.586,0.36-1.115,0.952-1.115h6.937l1.742,11.049L0,0z"/></g><g transform="translate(33.9429,34.5226)"><path style="fill:#009CDE;" d="M0,0L0,0c-0.034-0.215-0.071-0.433-0.115-0.658c-1.481-7.607-6.551-10.238-13.026-10.238h-3.297	c-0.791,0-1.459-0.576-1.582-1.357l-1.688-10.702l-0.479-3.036c-0.081-0.512,0.315-0.976,0.833-0.976h5.847	c0.692,0,1.281,0.504,1.389,1.187l0.057,0.298l1.102,6.984l0.071,0.386c0.108,0.683,0.697,1.187,1.389,1.187h0.875	c5.664,0,10.099,2.301,11.395,8.956c0.541,2.781,0.261,5.103-1.17,6.734C1.167-0.741,0.628-0.333,0,0"/></g><g transform="translate(32.3922,35.1407)"><path style="fill:#012169;" d="M0,0c-0.226,0.066-0.459,0.126-0.699,0.179c-0.24,0.053-0.488,0.1-0.742,0.141	c-0.89,0.144-1.862,0.212-2.906,0.212h-8.807c-0.217,0-0.423-0.049-0.607-0.138c-0.407-0.195-0.708-0.579-0.782-1.05	l-1.872-11.869l-0.054-0.346c0.123,0.781,0.791,1.357,1.582,1.357h3.297c6.475,0,11.545,2.63,13.026,10.238	C1.48-1.051,1.517-0.833,1.551-0.618C1.176-0.42,0.77-0.249,0.333-0.104C0.224-0.068,0.113-0.033,0,0"/></g></g></g></g></g></svg>