<?xml version="1.0" encoding="iso-8859-1"?>
<!-- Generator: Adobe Illustrator 18.0.0, SVG Export Plug-In . SVG Version: 6.00 Build 0)  -->
<!DOCTYPE svg >
<svg xmlns="http://www.w3.org/2000/svg" xmlns:xlink="http://www.w3.org/1999/xlink" version="1.1" id="Capa_1" x="0px" y="0px" viewBox="0 0 491.539 491.539" style="enable-background:new 0 0 491.539 491.539;" xml:space="preserve" width="512px" height="512px">
<g id="XMLID_16_">
	<path id="XMLID_18_" d="M393.669,330.64c-3.482-3.49-8.202-5.44-13.141-5.44c-4.929,0-9.651,1.951-13.141,5.44l-24.515,24.532   L223.766,236.049l24.518-24.515c7.263-7.254,7.263-19.019,0-26.273l-71.824-71.823c-3.625-3.626-8.379-5.449-13.131-5.449   c-4.762,0-9.514,1.822-13.141,5.449l-24.515,24.532c-30.994,31.009,14.452,126.7,101.527,213.769   c68.52,68.512,142.392,111.261,185.854,111.261c11.764,0,21.301-3.134,27.899-9.74l-0.04-0.049l24.582-24.467   c7.253-7.262,7.253-19.019,0-26.281L393.669,330.64z" fill="#64b5f6"/>
	<path id="XMLID_17_" d="M245.765,441.794c-108.088,0-196.02-87.934-196.02-196.029c0-114.476,94.006-196.021,196.02-196.021   c108.095,0,196.03,87.934,196.03,196.021c0,25.496-5.045,49.801-13.942,72.163l37.535,37.526   c16.582-33.065,26.151-70.244,26.151-109.69C491.539,110.248,381.282,0,245.765,0C110.247,0,0,110.248,0,245.766   c0,135.517,110.247,245.773,245.765,245.773c31.803,0,62.124-6.266,90.047-17.318c-18.556-9.173-37.978-21.034-57.767-35.316   C267.519,440.662,256.783,441.794,245.765,441.794z" fill="#64b5f6"/>
</g>
<g>
</g>
<g>
</g>
<g>
</g>
<g>
</g>
<g>
</g>
<g>
</g>
<g>
</g>
<g>
</g>
<g>
</g>
<g>
</g>
<g>
</g>
<g>
</g>
<g>
</g>
<g>
</g>
<g>
</g>
</svg>
