<?xml version="1.0" encoding="iso-8859-1"?><!-- Generator: Adobe Illustrator 16.0.0, SVG Export Plug-In . SVG Version: 6.00 Build 0) --><!DOCTYPE svg PUBLIC "-//W3C//DTD SVG 1.1//EN" "http://www.w3.org/Graphics/SVG/1.1/DTD/svg11.dtd"><svg version="1.1" id="Layer_1" inkscape:version="0.48.2 r9819" sodipodi:docname="Samsung Galaxy S II logo in white.svg" xmlns:inkscape="http://www.inkscape.org/namespaces/inkscape" xmlns:sodipodi="http://sodipodi.sourceforge.net/DTD/sodipodi-0.dtd" xmlns:svg="http://www.w3.org/2000/svg" xmlns:rdf="http://www.w3.org/1999/02/22-rdf-syntax-ns#" xmlns:cc="http://creativecommons.org/ns#" xmlns:dc="http://purl.org/dc/elements/1.1/" xmlns="http://www.w3.org/2000/svg" xmlns:xlink="http://www.w3.org/1999/xlink" x="0px" y="0px" width="247.795px" height="92.551px" viewBox="0 0 247.795 92.551" style="enable-background:new 0 0 247.795 92.551;" xml:space="preserve"><sodipodi:namedview fit-margin-bottom="0" fit-margin-right="0" inkscape:pageshadow="2" inkscape:window-y="-8" inkscape:window-height="837" inkscape:window-x="-8" inkscape:current-layer="Layer_1" inkscape:pageopacity="0" inkscape:window-maximized="1" inkscape:window-width="1600" gridtolerance="10" showgrid="false" inkscape:cx="134.44015" inkscape:cy="7.8010821" bordercolor="#666666" pagecolor="#ffffff" objecttolerance="10" guidetolerance="10" inkscape:zoom="2.2426716" id="namedview179" borderopacity="1" fit-margin-left="0" fit-margin-top="0"></sodipodi:namedview><g id="g51" transform="translate(-346.871,-176.268)"><g id="g53"><g id="g55"><path id="path57" inkscape:connector-curvature="0" d="M347.034,244.062v-16.892c0-7.799,3.952-11.276,12.809-11.276	c3.396,0,7.688,0.424,10.432,1.028c0,0,0.117,0.024,0.25,0.053c-0.066,0.588-0.327,2.77-0.407,3.437	c-0.137-0.021-0.287-0.046-0.287-0.046c-2.565-0.411-6.371-0.903-9.93-0.903c-6.696,0-8.956,1.96-8.956,7.769v16.775	c0,5.033,1.382,7.763,8.673,7.763c1.785,0,4.766-0.188,7.291-0.728l0.358-0.077c0,0,0-12.572,0-13.42c0.667,0,3.244,0,3.909,0	c0,0.841,0,15.501,0,16.136c-0.096,0.026-0.205,0.059-0.205,0.059c-3.445,1.003-7.779,1.598-11.582,1.598	C350.73,255.335,347.034,251.963,347.034,244.062z"/><path id="path59" inkscape:connector-curvature="0" d="M412.001,244.062c0,0,0-27.294,0-28.181	c0.669,0.007,3.248,0.038,3.905,0.044c0,0.867,0,28.08,0,28.08c0,5.033,1.382,7.763,8.673,7.763c0,0,10.24,0,11.079,0	c0,0.645,0,2.843,0,3.481c-0.83,0.004-11.297,0.085-11.307,0.085C415.695,255.335,412.001,251.963,412.001,244.062z"/><path id="path61" inkscape:connector-curvature="0" d="M505.039,216.461c0,0,0.278,0,0.524,0	c-0.857,1.306-12.428,18.872-12.428,18.872s11.963,18.129,12.828,19.436c-1.137,0-3.936,0-4.305,0	c-0.264-0.396-10.678-16.261-10.678-16.261s-10.408,15.865-10.672,16.261c-0.369,0-3.164,0-4.303,0	c0.864-1.307,12.827-19.436,12.827-19.436s-11.569-17.566-12.431-18.872c1.135,0,3.929,0,4.305,0	c0.262,0.397,10.271,15.69,10.271,15.69s10.019-15.293,10.281-15.69C501.694,216.461,505.039,216.461,505.039,216.461z"/><path id="path63" inkscape:connector-curvature="0" d="M538.384,216.461c0,0,0.238,0,0.451,0	c-0.609,1.245-13.033,26.476-13.033,26.476s0,10.995,0,11.832c-0.668,0-3.242,0-3.908,0c0-0.837,0-11.832,0-11.832	s-12.424-25.23-13.035-26.476c0.998,0,3.654,0,4.088,0c0.236,0.498,10.875,22.42,10.875,22.42s10.686-21.924,10.93-22.42	C535.231,216.461,538.384,216.461,538.384,216.461z"/><path id="path65" inkscape:connector-curvature="0" d="M404.287,254.768c0.476,0,2.993,0,3.882,0	c-0.402-1.153-13.141-37.718-13.344-38.308c-0.093,0-0.203,0-0.203,0s-4.561,0-5.128,0c-0.204,0.59-12.942,37.153-13.347,38.308	c0.889,0,3.407,0,3.885,0c0.238-0.679,2.325-6.745,4.701-13.657h14.836C402.043,248.282,404.202,254.531,404.287,254.768z M385.956,237.544c3.071-8.936,6.175-17.989,6.175-17.989s3.126,9.058,6.205,17.989H385.956z"/><path id="path67" inkscape:connector-curvature="0" d="M468.558,254.768c0.479,0,2.998,0,3.884,0	c-0.402-1.153-13.139-37.718-13.344-38.308c-0.095,0-0.199,0-0.199,0s-4.562,0-5.133,0c-0.203,0.59-12.944,37.153-13.347,38.308	c0.886,0,3.405,0,3.887,0c0.24-0.679,2.324-6.745,4.702-13.657h14.832C466.314,248.282,468.473,254.531,468.558,254.768z M450.229,237.544c3.068-8.936,6.175-17.989,6.175-17.989s3.126,9.058,6.204,17.989H450.229z"/></g><g id="g69"><path id="path71" inkscape:connector-curvature="0" d="M351.163,189.726c-0.826-0.281-1.496-0.663-2.011-1.141	c-0.515-0.478-0.916-1.001-1.198-1.564c-0.283-0.569-0.485-1.173-0.599-1.818c-0.117-0.645-0.175-1.278-0.175-1.895v-0.541	c0-2.087,0.586-3.694,1.762-4.815c1.17-1.121,2.956-1.684,5.354-1.684h1.353c1.855,0,3.325,0.42,4.408,1.258	c1.083,0.837,1.625,2.21,1.625,4.118c0,0.386-0.104,0.715-0.31,0.985c-0.208,0.27-0.568,0.405-1.083,0.405	c-0.516,0-0.876-0.136-1.083-0.405c-0.206-0.271-0.31-0.601-0.31-0.985c0-0.979-0.294-1.682-0.889-2.107	c-0.592-0.426-1.38-0.64-2.358-0.64h-1.353c-1.546,0-2.657,0.305-3.326,0.909c-0.671,0.605-1.005,1.592-1.005,2.96v0.541	c0,1.031,0.18,1.861,0.541,2.49c0.361,0.635,0.979,1.105,1.855,1.412l5.993,2.128c1.418,0.518,2.489,1.335,3.21,2.455	c0.722,1.122,1.083,2.496,1.083,4.12v1.312c0,2.091-0.588,3.76-1.76,5.011c-1.173,1.25-2.958,1.876-5.355,1.876h-2.629	c-1.855,0-3.326-0.42-4.41-1.258c-1.081-0.836-1.623-2.21-1.623-4.118c0-0.388,0.102-0.714,0.308-0.983	c0.207-0.272,0.567-0.408,1.083-0.408c0.517,0,0.876,0.136,1.084,0.408c0.205,0.27,0.31,0.596,0.31,0.983	c0,0.98,0.295,1.683,0.89,2.107c0.589,0.425,1.377,0.64,2.357,0.64h2.629c1.546,0,2.653-0.369,3.325-1.104	c0.67-0.734,1.004-1.783,1.004-3.153v-1.312c0-0.979-0.181-1.806-0.541-2.477c-0.361-0.667-0.916-1.146-1.663-1.43	L351.163,189.726z"/><path id="path73" inkscape:connector-curvature="0" d="M374.44,183.618c1.856,0,3.318,0.534,4.39,1.605	c1.069,1.067,1.604,2.454,1.604,4.154v12.953c0,0.388-0.104,0.715-0.309,0.987c-0.207,0.271-0.567,0.407-1.082,0.407h-6.188	c-1.854,0-3.318-0.407-4.389-1.222c-1.071-0.809-1.604-2.066-1.604-3.769v-3.133c0-1.698,0.534-2.958,1.604-3.771	c1.071-0.811,2.534-1.219,4.389-1.219h4.872v-1.158c0-1.212-0.302-2.062-0.909-2.551c-0.605-0.49-1.397-0.736-2.378-0.736h-4.331	c-0.362,0-0.67-0.097-0.927-0.292c-0.26-0.192-0.388-0.521-0.388-0.983c0-0.466,0.128-0.793,0.388-0.986	c0.257-0.193,0.565-0.29,0.927-0.29h4.33V183.618z M377.727,201.171v-8.003h-4.872c-0.98,0-1.773,0.21-2.378,0.639	c-0.606,0.426-0.908,1.049-0.908,1.875v3.054c0,0.771,0.301,1.373,0.908,1.798c0.605,0.425,1.398,0.638,2.378,0.638H377.727z"/><path id="path75" inkscape:connector-curvature="0" d="M404.407,190.5c0-1.366-0.335-2.43-1.006-3.19	c-0.67-0.762-1.777-1.141-3.324-1.141h-2.167v16.549c0,0.387-0.094,0.717-0.289,0.987c-0.193,0.271-0.549,0.406-1.064,0.406	c-0.514,0-0.869-0.136-1.062-0.406c-0.194-0.271-0.29-0.601-0.29-0.987v-16.549h-6.497v16.549c0,0.387-0.096,0.717-0.292,0.987	c-0.193,0.271-0.547,0.406-1.063,0.406c-0.516,0-0.87-0.136-1.063-0.406s-0.291-0.601-0.291-0.987v-17.708	c0-0.387,0.098-0.716,0.291-0.986c0.194-0.272,0.548-0.405,1.063-0.405h12.721c2.397,0,4.169,0.625,5.317,1.876	c1.146,1.248,1.72,2.917,1.72,5.006v12.178c0,0.389-0.095,0.719-0.289,0.987c-0.192,0.271-0.547,0.406-1.063,0.406	c-0.515,0-0.869-0.134-1.064-0.406c-0.19-0.269-0.289-0.599-0.289-0.987V190.5H404.407z"/><path id="path77" inkscape:connector-curvature="0" d="M417.437,204.112c-1.701,0-3.048-0.357-4.041-1.066	c-0.992-0.708-1.488-1.835-1.488-3.382c0-0.388,0.095-0.714,0.288-0.987c0.193-0.269,0.548-0.403,1.064-0.403	c0.516,0,0.863,0.135,1.044,0.403c0.179,0.273,0.284,0.601,0.309,0.987c0.079,1.313,1.021,1.971,2.823,1.971h1.972	c0.981,0,1.773-0.226,2.378-0.676c0.606-0.45,0.909-1.062,0.909-1.834V197.5c0-0.59-0.168-1.075-0.503-1.451	c-0.334-0.374-0.799-0.637-1.392-0.793l-5.298-1.391c-1.058-0.283-1.875-0.799-2.456-1.546c-0.579-0.747-0.869-1.741-0.869-2.979	v-1.122c0-1.699,0.534-2.957,1.604-3.769c1.068-0.813,2.534-1.219,4.389-1.219h1.003c1.703,0,3.05,0.355,4.041,1.063	c0.992,0.71,1.49,1.837,1.49,3.383c0,0.387-0.096,0.717-0.291,0.987c-0.193,0.271-0.546,0.404-1.062,0.404	c-0.517,0-0.864-0.132-1.046-0.404c-0.18-0.271-0.285-0.601-0.308-0.987c-0.079-1.314-1.019-1.972-2.825-1.972h-1.003	c-0.98,0-1.772,0.228-2.378,0.675c-0.605,0.453-0.909,1.065-0.909,1.838v1.122c0,0.592,0.174,1.083,0.522,1.47	s0.817,0.656,1.41,0.811l5.259,1.354c1.084,0.284,1.907,0.802,2.476,1.548c0.566,0.747,0.853,1.74,0.853,2.978v1.625	c0,1.701-0.536,2.956-1.606,3.771c-1.07,0.811-2.533,1.217-4.389,1.217h-1.97V204.112z"/><path id="path79" inkscape:connector-curvature="0" d="M432.903,196.841c0,1.367,0.335,2.43,1.005,3.188	c0.671,0.761,1.78,1.142,3.327,1.142h4.407v-16.548c0-0.387,0.096-0.716,0.29-0.985c0.194-0.271,0.547-0.407,1.065-0.407	c0.514,0,0.868,0.136,1.062,0.407c0.194,0.271,0.292,0.6,0.292,0.985v17.708c0,0.388-0.099,0.715-0.292,0.987	c-0.193,0.271-0.548,0.407-1.062,0.407h-5.763c-2.397,0-4.17-0.626-5.316-1.875c-1.147-1.25-1.72-2.923-1.72-5.01V184.66	c0-0.385,0.097-0.715,0.29-0.984c0.192-0.271,0.547-0.409,1.063-0.409c0.516,0,0.869,0.138,1.063,0.409	c0.193,0.27,0.289,0.6,0.289,0.984L432.903,196.841L432.903,196.841z"/><path id="path81" inkscape:connector-curvature="0" d="M461.672,190.5c0-1.366-0.334-2.43-1.005-3.19	c-0.672-0.762-1.778-1.141-3.324-1.141h-4.409v16.549c0,0.387-0.096,0.717-0.289,0.987c-0.194,0.271-0.55,0.406-1.063,0.406	c-0.516,0-0.87-0.136-1.065-0.406c-0.19-0.271-0.287-0.601-0.287-0.987v-17.708c0-0.387,0.097-0.716,0.287-0.986	c0.195-0.272,0.55-0.405,1.065-0.405h5.762c2.396,0,4.169,0.625,5.316,1.876c1.146,1.248,1.721,2.917,1.721,5.006v12.178	c0,0.389-0.098,0.719-0.293,0.987c-0.19,0.271-0.545,0.406-1.063,0.406c-0.512,0-0.869-0.134-1.061-0.406	c-0.193-0.269-0.291-0.599-0.291-0.987L461.672,190.5L461.672,190.5z"/><path id="path83" inkscape:connector-curvature="0" d="M483.634,205.925c0,1.085-0.146,2.075-0.441,2.979	c-0.299,0.902-0.75,1.687-1.355,2.358c-0.604,0.671-1.354,1.191-2.242,1.566c-0.888,0.372-1.927,0.561-3.111,0.561h-3.559	c-0.359,0-0.67-0.097-0.929-0.292c-0.259-0.188-0.388-0.521-0.388-0.983c0-0.467,0.129-0.792,0.388-0.988	c0.259-0.191,0.569-0.291,0.929-0.291h3.559c1.547,0,2.672-0.464,3.382-1.391c0.711-0.929,1.065-2.104,1.065-3.521v-2.201h-4.408	c-2.396,0-4.172-0.626-5.316-1.875c-1.148-1.25-1.721-2.923-1.721-5.01v-5.761c0-1.083,0.147-2.075,0.444-2.979	c0.298-0.9,0.747-1.688,1.354-2.359c0.604-0.667,1.353-1.191,2.241-1.564c0.89-0.375,1.928-0.561,3.113-0.561h5.646	c0.516,0,0.869,0.133,1.062,0.405c0.194,0.271,0.287,0.6,0.287,0.986V205.925L483.634,205.925z M476.636,186.169	c-1.545,0-2.674,0.464-3.383,1.392c-0.707,0.929-1.062,2.103-1.062,3.52v5.761c0,1.367,0.336,2.43,1.008,3.188	c0.668,0.761,1.775,1.142,3.322,1.142h4.408v-15.002H476.636z"/></g><path id="path85" inkscape:connector-curvature="0" d="M580.267,235.111c-0.178,0.008-4.399,0.38-8.977,1.069	c-3.764,0.562-5.814,0.467-7.176,0.286c-2.874-0.49-4.814-1.625-5.492-3.444c-2.331-6.27,11.164-18.246,30.146-26.749	c1.994-0.893,3.959-1.709,5.897-2.453c-3.38,1.078-6.878,2.342-10.438,3.792c-21.322,8.678-36.612,20.604-34.158,26.641	c1.238,3.043,6.752,4.003,14.652,3.102c0.014-0.004,0.033-0.004,0.047-0.004c4.596-0.432,10.096-1.572,13.504-1.297	c3.32,0.41,5.563,1.581,6.301,3.564c2.328,6.271-11.168,18.245-30.148,26.751c-1.986,0.891-3.959,1.71-5.896,2.45	c3.38-1.072,6.877-2.344,10.439-3.79c21.32-8.675,36.611-20.604,34.156-26.644C591.985,235.582,587.201,234.545,580.267,235.111z"	/></g></g></svg>