<?xml version="1.0" encoding="iso-8859-1"?><!-- Generator: Adobe Illustrator 16.0.0, SVG Export Plug-In . SVG Version: 6.00 Build 0) --><!DOCTYPE svg PUBLIC "-//W3C//DTD SVG 1.1//EN" "http://www.w3.org/Graphics/SVG/1.1/DTD/svg11.dtd"><svg version="1.1" id="Layer_1" xmlns="http://www.w3.org/2000/svg" xmlns:xlink="http://www.w3.org/1999/xlink" x="0px" y="0px" width="192.756px" height="192.756px" viewBox="0 0 192.756 192.756" style="enable-background:new 0 0 192.756 192.756;" xml:space="preserve"><g><polygon style="fill-rule:evenodd;clip-rule:evenodd;fill:#FFFFFF;" points="0,0 192.756,0 192.756,192.756 0,192.756 0,0	"/><path style="fill-rule:evenodd;clip-rule:evenodd;" d="M19.783,109.273c0,2.205,1.717,3.059,3.665,3.059	c1.275,0,3.224-0.367,3.224-2.062c0-1.785-2.482-2.086-4.916-2.736c-2.46-0.651-4.942-1.6-4.942-4.709	c0-3.385,3.2-5.009,6.194-5.009c3.456,0,6.632,1.508,6.632,5.333h-3.524c-0.117-1.994-1.533-2.504-3.272-2.504	c-1.16,0-2.504,0.488-2.504,1.878c0,1.278,0.788,1.44,4.939,2.508c1.207,0.301,4.917,1.065,4.917,4.822	c0,3.035-2.388,5.312-6.888,5.312c-3.666,0-7.096-1.809-7.051-5.892H19.783L19.783,109.273z"/><path style="fill-rule:evenodd;clip-rule:evenodd;" d="M34.422,109.574c0.091,2.089,1.113,3.038,2.943,3.038	c1.322,0,2.391-0.81,2.598-1.551h2.901c-0.929,2.828-2.901,4.034-5.613,4.034c-3.781,0-6.125-2.597-6.125-6.31	c0-3.596,2.482-6.329,6.125-6.329c4.082,0,6.052,3.432,5.821,7.117H34.422L34.422,109.574L34.422,109.574z M39.779,107.488	c-0.302-1.669-1.021-2.551-2.621-2.551c-2.088,0-2.69,1.623-2.736,2.551H39.779L39.779,107.488z"/><path style="fill-rule:evenodd;clip-rule:evenodd;" d="M44.302,106.468c0.185-3.087,2.945-4.011,5.636-4.011	c2.389,0,5.266,0.534,5.266,3.405v6.242c0,1.089,0.114,2.18,0.417,2.663h-3.34c-0.117-0.368-0.208-0.763-0.233-1.156	c-1.043,1.09-2.573,1.484-4.036,1.484c-2.271,0-4.082-1.137-4.082-3.597c0-2.713,2.04-3.362,4.082-3.643	c2.02-0.299,3.896-0.229,3.896-1.574c0-1.414-0.974-1.622-2.134-1.622c-1.252,0-2.065,0.509-2.18,1.808H44.302L44.302,106.468	L44.302,106.468z M51.909,108.902c-0.557,0.486-1.717,0.511-2.735,0.696c-1.022,0.207-1.951,0.557-1.951,1.761	c0,1.231,0.953,1.529,2.02,1.529c2.576,0,2.667-2.036,2.667-2.755V108.902L51.909,108.902z"/><path style="fill-rule:evenodd;clip-rule:evenodd;" d="M68.525,114.005c0,1.971-0.696,5.31-6.217,5.31	c-2.366,0-5.125-1.113-5.287-3.848h3.271c0.299,1.229,1.298,1.646,2.458,1.646c1.831,0,2.666-1.252,2.642-2.968v-1.576h-0.045	c-0.72,1.251-2.156,1.855-3.595,1.855c-3.595,0-5.125-2.736-5.125-6.032c0-3.109,1.784-5.935,5.15-5.935	c1.574,0,2.781,0.534,3.57,1.924h0.045v-1.6h3.133V114.005L68.525,114.005L68.525,114.005z M65.392,108.624	c0-1.95-0.671-3.687-2.805-3.687c-1.853,0-2.667,1.623-2.667,3.408c0,1.719,0.648,3.597,2.667,3.597	C64.464,111.942,65.392,110.341,65.392,108.624L65.392,108.624z"/><path style="fill-rule:evenodd;clip-rule:evenodd;" d="M70.447,106.468c0.187-3.087,2.948-4.011,5.638-4.011	c2.389,0,5.263,0.534,5.263,3.405v6.242c0,1.089,0.118,2.18,0.417,2.663h-3.337c-0.117-0.368-0.207-0.763-0.233-1.156	c-1.042,1.09-2.574,1.484-4.036,1.484c-2.273,0-4.082-1.137-4.082-3.597c0-2.713,2.042-3.362,4.082-3.643	c2.019-0.299,3.896-0.229,3.896-1.574c0-1.414-0.974-1.622-2.134-1.622c-1.252,0-2.062,0.509-2.18,1.808H70.447L70.447,106.468	L70.447,106.468z M78.056,108.902c-0.557,0.486-1.717,0.511-2.735,0.696c-1.021,0.207-1.948,0.557-1.948,1.761	c0,1.231,0.95,1.529,2.017,1.529c2.574,0,2.667-2.036,2.667-2.755V108.902L78.056,108.902z"/><path style="fill-rule:evenodd;clip-rule:evenodd;" d="M87.499,102.781h2.41v2.202h-2.41v5.938c0,1.112,0.275,1.392,1.391,1.392	c0.347,0,0.671-0.023,1.02-0.094v2.575c-0.557,0.092-1.276,0.115-1.926,0.115c-2.018,0-3.779-0.468-3.779-2.854v-7.072h-1.996	v-2.202h1.996v-3.597h3.295V102.781L87.499,102.781z"/><path style="fill-rule:evenodd;clip-rule:evenodd;" d="M93.621,109.574c0.09,2.089,1.112,3.038,2.944,3.038	c1.322,0,2.386-0.81,2.597-1.551h2.898c-0.928,2.828-2.898,4.034-5.61,4.034c-3.782,0-6.125-2.597-6.125-6.31	c0-3.596,2.482-6.329,6.125-6.329c4.081,0,6.053,3.432,5.819,7.117H93.621L93.621,109.574L93.621,109.574z M98.979,107.488	c-0.303-1.669-1.023-2.551-2.625-2.551c-2.086,0-2.689,1.623-2.733,2.551H98.979L98.979,107.488z"/><path style="fill-rule:evenodd;clip-rule:evenodd;fill:#719996;" d="M138.555,85.266c-5.863,1.568-9.957,6.904-9.957,12.975	c0,7.405,6.023,13.433,13.432,13.433c5.193,0,9.973-3.047,12.176-7.755c0.371-0.798,0.025-1.75-0.775-2.124	c-0.797-0.374-1.75-0.03-2.121,0.77c-1.676,3.591-5.318,5.913-9.279,5.913c-5.645,0-10.236-4.591-10.236-10.236	c0-4.628,3.121-8.697,7.586-9.889c0.854-0.229,1.359-1.104,1.131-1.955C140.281,85.544,139.406,85.037,138.555,85.266	L138.555,85.266z"/><path style="fill-rule:evenodd;clip-rule:evenodd;fill:#719996;" d="M123.338,98.237c0,10.306,8.385,18.692,18.691,18.692	c3.857,0,7.564-1.171,10.719-3.382c0.725-0.508,0.9-1.504,0.391-2.226c-0.506-0.723-1.502-0.896-2.223-0.392	c-2.615,1.837-5.688,2.806-8.887,2.806c-8.543,0-15.496-6.953-15.496-15.499c0-8.543,6.953-15.496,15.496-15.496	c1.354,0,2.703,0.18,4.012,0.528c0.852,0.229,1.73-0.278,1.957-1.13s-0.277-1.728-1.131-1.956	c-1.578-0.421-3.207-0.635-4.838-0.635C131.723,79.548,123.338,87.932,123.338,98.237L123.338,98.237z"/><path style="fill-rule:evenodd;clip-rule:evenodd;fill:#719996;" d="M112.82,98.24c0,11.294,6.619,21.689,16.863,26.474	c0.801,0.371,1.75,0.026,2.123-0.771c0.373-0.8,0.029-1.751-0.77-2.124c-9.125-4.264-15.023-13.52-15.023-23.579	c0-14.346,11.67-26.019,26.016-26.019c11.762,0,22.096,7.93,25.131,19.284c0.227,0.854,1.104,1.359,1.955,1.13	c0.855-0.225,1.357-1.101,1.131-1.956c-3.406-12.746-15.012-21.651-28.217-21.651C125.924,69.028,112.82,82.133,112.82,98.24	L112.82,98.24z"/><path style="fill-rule:evenodd;clip-rule:evenodd;fill:#719996;" d="M118.078,98.237c0,13.209,10.746,23.952,23.951,23.952	c0.66,0,1.34-0.031,2.086-0.095c0.879-0.076,1.531-0.851,1.453-1.728c-0.074-0.881-0.848-1.53-1.727-1.455	c-0.652,0.055-1.248,0.085-1.812,0.085c-11.443,0-20.756-9.312-20.756-20.76c0-11.442,9.312-20.756,20.756-20.756	c5.543,0,10.758,2.162,14.678,6.084c0.621,0.623,1.635,0.623,2.26,0c0.623-0.627,0.623-1.639,0-2.261	c-4.523-4.525-10.539-7.013-16.938-7.013C128.824,74.291,118.078,85.034,118.078,98.237L118.078,98.237z"/><path style="fill-rule:evenodd;clip-rule:evenodd;fill:#719996;" d="M176.498,98.237c0-19.005-15.461-34.466-34.469-34.466	c-19.006,0-34.471,15.461-34.471,34.466c0,7.123,2.156,13.964,6.236,19.773c0.508,0.725,1.504,0.898,2.225,0.391	c0.723-0.507,0.896-1.5,0.391-2.226c-3.699-5.271-5.656-11.473-5.656-17.938c0-17.244,14.031-31.273,31.275-31.273	c17.246,0,31.273,14.03,31.277,31.273c0,2.896-0.404,5.791-1.217,8.622c-0.244,0.849,0.246,1.732,1.092,1.977	c0.848,0.245,1.734-0.244,1.979-1.093C176.059,104.622,176.498,101.429,176.498,98.237L176.498,98.237z"/></g></svg>