<?xml version="1.0" encoding="iso-8859-1"?><!-- Generator: Adobe Illustrator 16.0.0, SVG Export Plug-In . SVG Version: 6.00 Build 0) --><!DOCTYPE svg PUBLIC "-//W3C//DTD SVG 1.1//EN" "http://www.w3.org/Graphics/SVG/1.1/DTD/svg11.dtd"><svg version="1.1" id="svg2985" inkscape:version="0.48.2 r9819" sodipodi:docname="Skype_logo.svg" xmlns:rdf="http://www.w3.org/1999/02/22-rdf-syntax-ns#" xmlns:sodipodi="http://sodipodi.sourceforge.net/DTD/sodipodi-0.dtd" xmlns:dc="http://purl.org/dc/elements/1.1/" xmlns:inkscape="http://www.inkscape.org/namespaces/inkscape" xmlns:svg="http://www.w3.org/2000/svg" xmlns:cc="http://creativecommons.org/ns#" xmlns="http://www.w3.org/2000/svg" xmlns:xlink="http://www.w3.org/1999/xlink" x="0px" y="0px" width="744.095px" height="1052.363px" viewBox="-22.771 -50.692 744.095 1052.363" style="enable-background:new -22.771 -50.692 744.095 1052.363;" xml:space="preserve"><sodipodi:namedview id="namedview2987" inkscape:window-y="-8" inkscape:window-width="1600" fit-margin-bottom="0.1" inkscape:pageshadow="2" fit-margin-right="0.1" inkscape:window-maximized="1" inkscape:window-x="-8" inkscape:window-height="837" inkscape:pageopacity="0" inkscape:current-layer="g2995" fit-margin-left="0.1" objecttolerance="10" bordercolor="#666666" guidetolerance="10" inkscape:cx="162.3809" showgrid="false" borderopacity="1" pagecolor="#ffffff" inkscape:cy="186.15237" inkscape:zoom="1.04" gridtolerance="10" fit-margin-top="0.1"></sodipodi:namedview><g id="g2993" transform="matrix(1.25,0,0,-1.25,-0.4749225,1019.5073)" inkscape:groupmode="layer" inkscape:label="corporate_factsheet"><g id="g2995"><g><defs><rect id="SVGID_1_" x="-92.247" y="-90.967" width="744.095" height="1052.363"/></defs><clipPath id="SVGID_2_"><use xlink:href="#SVGID_1_" style="overflow:visible;"/></clipPath><g id="g2997" transform="translate(-17.836653,14.269323)" style="clip-path:url(#SVGID_2_);"><path id="path3003" inkscape:connector-curvature="0" style="fill:#00ADEF;" d="M444.973,695.469h50.017	c-1.545,13.08-11.316,22.685-24.024,22.685C456.668,718.154,448.075,709.35,444.973,695.469 M368.327,653.036	c18.157,0.206,22.639,18.403,22.639,31.695c0,16.818-7.424,30.865-22.639,31.071c-16.651,0.218-22.897-14.837-22.897-31.071	C345.43,670.054,350.925,653.036,368.327,653.036 M562.839,726.242c0,16.566-13.384,29.943-29.938,29.943	c-8.558,0-16.234-3.566-21.677-9.313c-12.667,8.803-28.014,13.961-44.62,13.961c-16.772,0-32.238-5.277-44.991-14.253	c-5.741,5.323-13.372,8.558-21.798,8.558c-6.251,0-12.083-1.809-17.023-4.906c-11.7,20.876-34.007,34.969-59.628,34.969	c-23.434,0-44.07-11.746-56.434-29.645c-10.315,10.601-24.74,17.189-40.716,17.189c-10.566,0-20.418-2.896-28.89-7.922	c-0.205,20.166-16.566,36.434-36.772,36.434c-20.337,0-36.812-16.48-36.812-36.772l0.086-1.425	c-3.944,0.584-7.968,0.922-12.078,0.922c-11.992,0-23.314-2.639-33.503-7.338c-5.741,3.062-12.244,4.825-19.205,4.825	c-22.347,0-40.544-18.157-40.544-40.55c0-11.866,5.158-22.473,13.252-29.897c-0.213-2.433-0.338-4.906-0.338-7.379	c0-44.362,35.976-80.292,80.338-80.292c17.229,0,33.211,5.449,46.285,14.677c11.786-16.108,30.784-26.628,52.249-26.628	c0.544,0,1.048,0.041,1.546,0.085c6.21-17.567,22.856-30.148,42.519-30.148c19.88,0,36.772,12.913,42.725,30.818	c6.84-12.959,20.377-21.762,36.016-21.762c19.542,0,35.856,13.795,39.795,32.158c2.81-0.372,5.701-0.63,8.598-0.63	c15.936,0,30.401,6.045,41.42,15.896c12.501-8.512,27.636-13.503,43.904-13.503c43.234,0,78.243,35.055,78.243,78.283	c0,5.329-0.503,10.567-1.551,15.598C554.699,702.43,562.839,713.369,562.839,726.242 M521.997,691.359	c0-9.771-2.937-12.284-12.536-12.284h-64.488c0-15.055,9.765-26.039,26.371-26.039c21.511,0,21.511,14.087,33.04,14.087	c6.84,0,11.74-5.873,11.74-11.151c0-17.189-27.584-25.198-44.78-25.198c-32.45,0-48.472,17.859-53.292,37.899	c-4.316-21.007-18.077-37.899-42.519-37.899c-13.08,0-22.844,5.278-28.128,14.459h-0.418v-38.117	c0-9.388-5.666-14.293-14.259-14.293c-8.603,0-14.259,4.905-14.259,14.293v106.337l-32.078-90.905	c-6.829-19.536-14.677-29.725-32.662-29.725c-12.702,0-17.991,6.251-17.991,13.125c0,7.636,5.495,11.534,13.131,11.534h2.931	c3.692,0,7.797,0.161,9.943,8.97l-29.691,84.654c-1.048,3.062-1.844,5.363-2.427,7.298c-0.675-0.882-1.425-1.677-2.312-2.604	l-21.088-22.095l29.731-39.874c0.962-1.339,2.93-4.488,2.93-9.181c0-7.253-5.867-13.876-13.498-13.876	c-7.046,0-10.778,3.515-12.913,6.623l-26.966,38.158l-9.977-8.805v-21.723c0-9.353-5.661-14.253-14.259-14.253	c-8.637,0-14.299,4.9-14.299,14.253v10.527c-5.112-16.857-24.19-24.78-42.598-24.78c-25.787,0-47.293,11.529-47.293,25.616	c0,6.245,3.52,11.906,11.528,11.906c12.324,0,13.503-17.607,34.591-17.607c10.148,0,16.605,4.527,16.605,10.355	c0,7.252-6.251,8.426-16.394,10.984l-16.812,4.07c-16.606,4.104-29.52,10.984-29.52,30.148	c0,23.223,23.062,31.861,42.805,31.861c21.677,0,43.607-8.637,43.607-21.717c0-6.663-4.528-12.496-11.947-12.496	c-11.156,0-11.534,13.085-29.519,13.085c-9.977,0-16.434-2.725-16.434-8.804c0-6.629,6.457-8.22,15.261-10.155l11.906-2.765	c13.715-3.102,29.605-8.512,34.213-22.095v89.182c0,9.347,5.662,14.253,14.299,14.253c8.598,0,14.259-4.905,14.259-14.253v-64.9	l31.655,35.175c2.937,3.143,6.669,5.49,10.944,5.49c4.654,0,9.599-3.017,11.992-7.379c2.306,4.448,6.92,7.379,12.284,7.379	c7.63,0,12.914-4.316,14.631-10.773l18.409-66.669h0.377l17.408,64.694c1.969,7.258,5.867,12.748,13.709,12.748	c6.749,0,10.647-3.349,12.708-6.789c1.712,4.402,5.53,6.789,11.695,6.789c8.426,0,12.913-4.734,12.913-13.498v-4.487h0.418	c4.7,12.112,16.228,17.985,30.063,17.985c20.378,0,38.575-12.788,43.486-39.497c5.53,24.15,24.105,39.497,52.159,39.497	C503.216,738.108,521.997,714.84,521.997,691.359 M530.841,736.053h5.58c0,0,0.041,0,4.276-12.365l3.984,12.365h5.53v-17.986	h-3.687c0,0-0.041,0-0.041,12.748l-4.408-12.748h-3.062c0,0-0.041,0-4.441,12.622v-12.622h-3.733v17.986H530.841z M514.069,732.745v3.309h14.716v-3.309h-5.363v-14.677h-3.984v14.677H514.069z"/></g></g></g></g></svg>