<?xml version="1.0" encoding="utf-8"?><!-- Generator: Adobe Illustrator 16.0.0, SVG Export Plug-In . SVG Version: 6.00 Build 0) --><!DOCTYPE svg PUBLIC "-//W3C//DTD SVG 1.1//EN" "http://www.w3.org/Graphics/SVG/1.1/DTD/svg11.dtd"><svg version="1.1" id="Layer_1" xmlns="http://www.w3.org/2000/svg" xmlns:xlink="http://www.w3.org/1999/xlink" x="0px" y="0px" width="44.004px" height="44.004px" viewBox="0 0 44.004 44.004" enable-background="new 0 0 44.004 44.004" xml:space="preserve"><path fill="#2E3B4E" d="M36.65,0H7.354C3.293,0,0,3.292,0,7.354V36.65c0,4.062,3.293,7.354,7.354,7.354H36.65	c4.062,0,7.354-3.292,7.354-7.354V7.354C44.005,3.292,40.713,0,36.65,0z M36.004,33.686c0,1.281-1.039,2.319-2.32,2.319H10.325	c-1.282,0-2.321-1.038-2.321-2.319v-23.36c0-1.282,1.039-2.321,2.321-2.321h23.358c1.281,0,2.32,1.039,2.32,2.321V33.686z"/><path fill="#2E3B4E" d="M17.333,28.003c-0.736,0-1.332-0.601-1.332-1.339V17.34c0-0.739,0.596-1.339,1.332-1.339h9.338	c0.738,0,1.332,0.6,1.332,1.339v9.324c0,0.738-0.594,1.339-1.332,1.339H17.333z"/></svg>