<?xml version="1.0" encoding="iso-8859-1"?><!-- Generator: Adobe Illustrator 16.0.0, SVG Export Plug-In . SVG Version: 6.00 Build 0) --><!DOCTYPE svg PUBLIC "-//W3C//DTD SVG 1.1//EN" "http://www.w3.org/Graphics/SVG/1.1/DTD/svg11.dtd"><svg version="1.1" id="svg3132" xmlns:svg="http://www.w3.org/2000/svg" xmlns="http://www.w3.org/2000/svg" xmlns:xlink="http://www.w3.org/1999/xlink" x="0px" y="0px" width="637.795px" height="637.801px" viewBox="0 0 637.795 637.801" style="enable-background:new 0 0 637.795 637.801;" xml:space="preserve"><g id="layer1" transform="translate(-121.1511,-167.6958)"><g id="_189263792" transform="matrix(4.675013,0,0,4.675013,-1353.75,-678.4329)"><rect id="_151141056" x="315.486" y="180.991" style="fill:#FF9900;" width="136.426" height="136.426"/><rect id="_151140504" x="383.697" y="249.205" style="fill:#DE8500;" width="68.215" height="68.004"/><rect id="_151140120" x="315.487" y="180.99" style="fill:#FFB13B;" width="68.215" height="68.215"/><g id="g107"><circle id="_151139416" style="fill:#FF9900;" cx="340.757" cy="249.099" r="25.063"/><circle id="_151137016" style="fill:#FF9900;" cx="353.365" cy="218.661" r="25.063"/><circle id="_151136448" style="fill:#FF9900;" cx="383.803" cy="206.053" r="25.063"/><circle id="_151135880" style="fill:#FF9900;" cx="414.241" cy="218.661" r="25.063"/><circle id="_151135312" style="fill:#FF9900;" cx="426.849" cy="249.099" r="25.063"/><circle id="_151134744" style="fill:#FF9900;" cx="414.241" cy="279.538" r="25.063"/><circle id="_151134176" style="fill:#FF9900;" cx="383.803" cy="292.146" r="25.063"/><circle id="_151038344" style="fill:#FF9900;" cx="353.365" cy="279.538" r="25.063"/></g><path id="_151038768" d="M401.634,206.051c0-9.844-7.986-17.831-17.831-17.831s-17.831,7.986-17.831,17.831	c-6.964-6.959-18.254-6.959-25.218,0c-6.959,6.964-6.959,18.254,0,25.218c-9.844,0-17.831,7.986-17.831,17.831	c0,9.844,7.986,17.831,17.831,17.831c-6.959,6.964-6.959,18.254,0,25.218c6.964,6.959,18.254,6.959,25.218,0	c0,9.844,7.986,17.831,17.831,17.831s17.831-7.986,17.831-17.831c6.964,6.959,18.253,6.959,25.218,0	c6.959-6.964,6.959-18.254,0-25.218c9.844,0,17.825-7.986,17.825-17.831c0-9.844-7.981-17.831-17.825-17.831	c6.959-6.964,6.959-18.254,0-25.218C419.887,199.092,408.598,199.092,401.634,206.051z"/><path id="_151037224" style="fill:#FFFFFF;" d="M390.626,212.879v19.744l13.963-13.963c0-2.467,0.942-4.94,2.825-6.823	c3.772-3.771,9.885-3.771,13.651,0c3.771,3.766,3.771,9.88,0,13.651c-1.883,1.883-4.356,2.825-6.823,2.825l-13.963,13.963h19.744	c1.747-1.747,4.159-2.83,6.828-2.83c5.328,0,9.648,4.325,9.648,9.653c0,5.328-4.32,9.653-9.648,9.653	c-2.669,0-5.081-1.082-6.828-2.83h-19.744l13.963,13.963c2.467,0,4.94,0.942,6.823,2.825c3.771,3.772,3.771,9.885,0,13.651	c-3.766,3.772-9.879,3.772-13.651,0c-1.883-1.883-2.825-4.356-2.825-6.823l-13.963-13.963v19.744	c1.747,1.747,2.83,4.159,2.83,6.828c0,5.328-4.326,9.648-9.653,9.648c-5.328,0-9.653-4.32-9.653-9.648	c0-2.669,1.082-5.081,2.83-6.828v-19.744l-13.963,13.963c0,2.467-0.942,4.94-2.825,6.823c-3.772,3.772-9.885,3.772-13.651,0	c-3.772-3.767-3.772-9.88,0-13.651c1.883-1.883,4.356-2.825,6.823-2.825l13.963-13.963h-19.744	c-1.747,1.747-4.159,2.83-6.828,2.83c-5.328,0-9.648-4.325-9.648-9.653c0-5.328,4.32-9.653,9.648-9.653	c2.669,0,5.081,1.083,6.828,2.83h19.744l-13.963-13.963c-2.467,0-4.94-0.941-6.823-2.825c-3.772-3.772-3.772-9.885,0-13.651	c3.767-3.771,9.879-3.771,13.651,0c1.883,1.883,2.825,4.356,2.825,6.823l13.963,13.963v-19.744	c-1.747-1.747-2.83-4.159-2.83-6.828c0-5.328,4.325-9.648,9.653-9.648c5.327,0,9.653,4.32,9.653,9.648	C393.456,208.72,392.373,211.132,390.626,212.879z"/><rect id="_151036536" x="322.929" y="249.203" width="121.742" height="60.77"/><rect id="_151035984" x="322.929" y="283.305" width="121.742" height="26.669"/><path id="_151164400" style="fill:#3F3F3F;" d="M335.689,254.84h97.215c3.983,0,7.236,3.253,7.236,7.236v24.407	c-37.569-4.648-74.817-11.073-111.687-10.479v-13.928C328.453,258.093,331.705,254.84,335.689,254.84L335.689,254.84z"/><polygon id="_151164136" style="fill:#FFFFFF;stroke:#000000;stroke-width:0.5035;" points="399.594,253.198 388.355,307.481	379.04,307.481 367.795,253.198 377.111,253.198 383.697,284.992 390.279,253.198	"/><path id="_151163752" style="fill:#FFFFFF;stroke:#000000;stroke-width:0.5035;" d="M415.496,275.682h15.902v15.897l0,0	c0,8.782-7.12,15.902-15.897,15.902c-8.782,0-15.902-7.12-15.902-15.902l0,0v-22.483h-0.005c0-8.777,7.12-15.897,15.902-15.897	c8.782,0,15.902,7.12,15.902,15.897h-9.316c0-3.636-2.951-6.581-6.586-6.581c-3.636,0-6.581,2.946-6.581,6.581v22.483l0,0	c0,3.636,2.946,6.586,6.581,6.586c3.635,0,6.586-2.951,6.586-6.581v-0.005v-6.581h-6.586V275.682L415.496,275.682z"/><path id="_151162704" style="fill:#FFFFFF;stroke:#000000;stroke-width:0.5035;" d="M340.654,280.339	c-2.875-2.88-4.658-6.853-4.658-11.244c0-8.782,7.12-15.897,15.902-15.897c8.777,0,15.897,7.115,15.897,15.897h-9.311	c0-3.635-2.951-6.586-6.586-6.586c-3.636,0-6.586,2.951-6.586,6.586c0,1.818,0.735,3.459,1.924,4.653h0.005	c1.193,1.193,2.84,1.928,4.658,1.928v0.005c4.391,0,8.364,1.778,11.239,4.658l0,0c2.88,2.875,4.658,6.853,4.658,11.239	c0,8.782-7.12,15.902-15.897,15.902c-8.782,0-15.902-7.12-15.902-15.902h9.315c0,3.641,2.951,6.586,6.586,6.586	c3.636,0,6.586-2.946,6.586-6.586c0-1.813-0.735-3.459-1.928-4.653l0,0c-1.193-1.188-2.84-1.929-4.658-1.929l0,0	C347.507,284.997,343.534,283.214,340.654,280.339L340.654,280.339L340.654,280.339z"/></g></g></svg>