<?xml version="1.0" encoding="UTF-8" standalone="no"?>
<!-- Generator: Adobe Illustrator 16.0.0, SVG Export Plug-In . SVG Version: 6.00 Build 0) -->

<svg
   xmlns:dc="http://purl.org/dc/elements/1.1/"
   xmlns:cc="http://creativecommons.org/ns#"
   xmlns:rdf="http://www.w3.org/1999/02/22-rdf-syntax-ns#"
   xmlns:svg="http://www.w3.org/2000/svg"
   xmlns="http://www.w3.org/2000/svg"
   xmlns:sodipodi="http://sodipodi.sourceforge.net/DTD/sodipodi-0.dtd"
   xmlns:inkscape="http://www.inkscape.org/namespaces/inkscape"
   version="1.1"
   id="Layer_1"
   x="0px"
   y="0px"
   width="175px"
   height="175px"
   viewBox="5.5 797.5 175 175"
   enable-background="new 5.5 797.5 175 175"
   xml:space="preserve"
   inkscape:version="0.91 r13725"
   sodipodi:docname="temp.svg"><metadata
     id="metadata19"><rdf:RDF><cc:Work
         rdf:about=""><dc:format>image/svg+xml</dc:format><dc:type
           rdf:resource="http://purl.org/dc/dcmitype/StillImage" /><dc:title></dc:title></cc:Work></rdf:RDF></metadata><defs
     id="defs17" /><sodipodi:namedview
     pagecolor="#ffffff"
     bordercolor="#666666"
     borderopacity="1"
     objecttolerance="10"
     gridtolerance="10"
     guidetolerance="10"
     inkscape:pageopacity="0"
     inkscape:pageshadow="2"
     inkscape:window-width="1920"
     inkscape:window-height="1017"
     id="namedview15"
     showgrid="false"
     inkscape:zoom="5.3942857"
     inkscape:cx="-31.796567"
     inkscape:cy="115.15073"
     inkscape:window-x="892"
     inkscape:window-y="165"
     inkscape:window-maximized="1"
     inkscape:current-layer="Layer_1" /><g
     id="outline"
     sodipodi:docname="twitter_bootstrap_logo.svg"
     inkscape:version="0.48.1 r9760"><g
       id="bg_1_"><linearGradient
         id="SVGID_1_"
         gradientUnits="userSpaceOnUse"
         x1="-64.9995"
         y1="1381.5"
         x2="-64.9995"
         y2="1206.5"
         gradientTransform="matrix(1 0 0 1 158 -409)"><stop
           offset="0"
           style="stop-color:#3BB1DC"
           id="stop6" /><stop
           offset="1"
           style="stop-color:#60F0FF"
           id="stop8" /></linearGradient><path
         fill="url(#SVGID_1_)"
         d="M151.333,799.216c7.292,0,14.183,2.861,19.388,8.062c5.204,5.205,8.062,12.097,8.062,19.389 v116.666c0,7.292-2.859,14.184-8.062,19.387c-5.205,5.205-12.097,8.064-19.388,8.064H34.667c-7.292,0-14.183-2.859-19.387-8.064 c-5.205-5.203-8.064-12.095-8.064-19.387V826.667c0-7.292,2.859-14.184,8.064-19.389c5.205-5.201,12.096-8.062,19.387-8.062 H151.333 M151.333,797.5H34.667C18.625,797.5,5.5,810.625,5.5,826.667v116.666c0,16.042,13.125,29.167,29.167,29.167h116.666 c16.042,0,29.167-13.125,29.167-29.167V826.667C180.5,810.625,167.375,797.5,151.333,797.5L151.333,797.5z"
         id="path10" /></g><g
       id="B_2_"
       enable-background="new "><path
         fill="#3BB1DC"
         d="M53.053,835.533h49.612c9.149,0,16.499,2.085,22.019,6.289c5.52,4.203,8.293,10.521,8.293,19.015 c0,5.147-1.258,9.552-3.773,13.212c-2.518,3.659-6.119,6.521-10.811,8.521v0.283c6.293,1.346,11.066,4.318,14.297,8.923 c3.231,4.633,4.861,10.408,4.861,17.387c0,4.003-0.715,7.75-2.145,11.209c-1.43,3.487-3.661,6.493-6.721,9.006 c-3.06,2.517-6.947,4.521-11.724,6.006c-4.774,1.488-10.438,2.231-17.013,2.231H53.053V835.533L53.053,835.533z M70.925,878.281 h29.167c4.29,0,7.863-1.201,10.723-3.66c2.86-2.459,4.289-5.948,4.289-10.525c0-5.146-1.287-8.775-3.858-10.862 c-2.573-2.089-6.291-3.146-11.152-3.146H70.925V878.281L70.925,878.281z M70.925,923.033h31.597c5.435,0,9.666-1.404,12.642-4.234 c3.001-2.802,4.519-6.806,4.519-11.953c0-5.061-1.488-8.921-4.519-11.667c-3.031-2.744-7.207-4.06-12.642-4.06H70.925V923.033z"
         id="path13" /></g></g><path
     style="fill:#ff0000"
     d="M 24.030679,172.45612 C 15.881126,170.84037 8.7351591,165.33141 5.0325459,157.81008 l -2.4372069,-4.95082 0,-65.640439 0,-65.640431 2.1695235,-4.284207 C 7.4413523,12.008859 12.775452,6.911238 18.376435,4.2860585 l 4.24009,-1.9873297 64.883475,0 64.88347,0 4.2401,1.9873297 c 5.60098,2.6251795 10.93507,7.7228005 13.61157,13.0081245 l 2.16952,4.284207 0,65.640431 0,65.640439 -2.43721,4.95082 c -3.84998,7.82069 -10.71758,13.01498 -19.37953,14.65768 -4.7701,0.90464 -121.99012,0.89385 -126.557241,-0.0116 z M 109.375,138.77476 c 10.16261,-2.94055 16.39266,-7.46464 20.18117,-14.65501 1.92605,-3.65553 2.06459,-4.5156 2.06459,-12.81678 0,-8.07818 -0.1812,-9.28482 -1.96605,-13.091917 -2.50066,-5.333941 -7.10787,-9.813081 -11.95256,-11.620311 l -3.79102,-1.414178 2.99961,-1.893567 c 7.72312,-4.875396 10.98749,-11.710394 10.49659,-21.977934 -0.26233,-5.486894 -0.64774,-7.059276 -2.56999,-10.484863 -2.83266,-5.048011 -8.0283,-9.113405 -14.35005,-11.228405 -4.55211,-1.522948 -6.43709,-1.628594 -33.92479,-1.901374 l -29.104873,-0.288829 0,51.662359 0,51.662349 28.73411,-0.33208 c 24.391813,-0.28191 29.406463,-0.52664 33.183263,-1.61946 z"
     id="path3347"
     inkscape:connector-curvature="0"
     transform="translate(5.5,797.5)" /><path
     style="fill:#ff0000"
     d=""
     id="path3349"
     inkscape:connector-curvature="0"
     transform="translate(5.5,797.5)" /><path
     style="fill:#ff0000"
     d="m 65.995763,66.811441 0,-13.718221 16.897963,0 c 16.049135,0 17.064162,0.08381 20.206564,1.668433 4.28624,2.161422 5.90126,5.316198 5.90279,11.530468 0.001,5.281201 -1.1103,7.978401 -4.44439,10.783852 -3.54104,2.979592 -6.668728,3.445116 -23.176275,3.449553 l -15.386652,0.0041 0,-13.71822 z"
     id="path3351"
     inkscape:connector-curvature="0"
     transform="translate(5.5,797.5)" /><path
     style="fill:#ff0000"
     d="m 65.995763,109.40288 0,-15.618308 18.723517,0.231655 18.72352,0.231654 3.52349,2.071186 c 4.72778,2.779087 6.7052,6.651263 6.7052,13.130083 0,7.72518 -3.15296,12.46824 -9.7832,14.71709 -1.62516,0.55123 -8.8036,0.85495 -20.20657,0.85495 l -17.685957,0 0,-15.61831 z"
     id="path3353"
     inkscape:connector-curvature="0"
     transform="translate(5.5,797.5)" /><path
     style="fill:#5fedfe;fill-opacity:0.99607843"
     d="M 0.13800513,36.370726 C 0.20706358,25.719733 0.22912682,25.118422 0.61352335,23.41098 3.2914713,11.515867 12.316878,2.7180847 24.095911,0.52082602 25.881494,0.18774383 28.218413,0.17501599 87.589026,0.17501599 l 61.639304,0 2.08141,0.42191775 C 162.95998,2.9585183 171.7255,11.629422 174.38077,23.418928 c 0.38234,1.697618 0.40493,2.31487 0.4739,12.951798 l 0.0724,11.169226 -0.73565,0 -0.73565,0 -0.0932,-10.705773 c -0.0534,-6.134857 -0.17383,-11.101523 -0.28212,-11.63268 -0.10393,-0.509799 -0.31404,-1.59428 -0.4669,-2.409958 -0.2782,-1.484495 -1.22893,-4.017176 -2.30136,-6.130671 -1.19637,-2.357743 -2.8799,-4.608715 -5.12917,-6.8579806 -3.08513,-3.0851304 -6.27859,-5.1627412 -9.92986,-6.460206 -0.7647,-0.2717322 -1.80747,-0.6522182 -2.31727,-0.8455242 -2.2258,-0.8439816 -1.84449,-0.8390924 -65.439615,-0.8390924 -64.581045,0 -63.119243,-0.020775 -65.717691,0.9339695 C 19.102893,3.5751839 17.921856,4.056194 16.762064,4.6351772 12.090316,6.9673742 7.1152745,11.880243 4.7743483,16.473085 3.8175701,18.350261 2.6392406,21.32896 2.4948624,22.235397 2.4136611,22.745196 2.2599472,23.540426 2.1532756,24.002575 1.7381852,25.800935 1.5720767,29.966033 1.5720767,38.575878 l 0,8.964074 -0.75324506,0 -0.75324505,0 0.07241854,-11.169226 z"
     id="path3361"
     inkscape:connector-curvature="0"
     transform="translate(5.5,797.5)" /><path
     style="fill:#5fedfe;fill-opacity:0.99607843"
     d="M 0.09054684,37.390323 C 0.09139403,31.737145 0.17561664,26.501551 0.28065863,25.572262 0.51858966,23.467325 1.3633955,20.266225 2.2162261,18.238099 6.0521616,9.1158159 13.721618,2.7607824 23.512375,0.59177193 l 1.881206,-0.41675594 62.102754,0 62.102755,0 1.91239,0.428299 c 11.27882,2.52600821 19.8062,10.65300801 22.54231,21.48389801 0.77374,3.062861 0.84985,4.424663 0.84985,15.205557 l 0,10.247182 -0.74152,0 -0.74153,0 -0.001,-3.846663 c -0.002,-5.012105 -0.16671,-15.116826 -0.2777,-17.008739 -0.27308,-4.654674 -2.1362,-9.61351 -5.13255,-13.660701 -1.31157,-1.771548 -3.97517,-4.4866881 -5.6711,-5.7808399 C 160.49747,5.8385454 157.93867,4.4079477 155.81721,3.5973297 154.74233,3.1866153 153.59039,2.7289434 153.25734,2.5802812 152.9243,2.4316191 151.58955,2.1849169 150.29124,2.0320543 146.83353,1.6249459 28.504495,1.6115615 24.930128,2.0178744 19.871226,2.5929404 14.168254,5.4950201 10.028834,9.6007171 6.9572379,12.647289 5.3748919,14.977024 3.6685103,18.965211 1.8478715,23.220443 1.574844,26.128146 1.5728853,41.283332 l -8.086e-4,6.25662 -0.74152545,0 -0.74152543,0 0.0015201,-10.149629 z"
     id="path3363"
     inkscape:connector-curvature="0"
     transform="translate(5.5,797.5)" /><path
     style="fill:#5fedfe;fill-opacity:0.99607843"
     d="M 0.13825249,36.278035 C 0.20723029,25.563905 0.23009115,24.932526 0.60824702,23.297555 2.6573521,14.438176 8.1795087,7.2170863 15.893325,3.3099082 19.170501,1.6499629 22.444545,0.6304029 25.671653,0.26486924 26.903642,0.1253222 45.868935,0.0818564 88.794005,0.12020163 l 61.361225,0.0548144 2.31727,0.62317337 c 1.2745,0.34274534 2.92183,0.86317144 3.66074,1.15650244 9.48128,3.7638504 15.98969,11.3849852 18.26949,21.3929942 0.35565,1.561253 0.38469,2.391879 0.45213,12.930349 l 0.0721,11.261917 -0.75316,0 -0.75317,0 -0.0151,-3.105137 c -0.008,-1.707826 -0.0849,-6.733978 -0.1702,-11.169227 -0.13473,-7.006681 -0.20476,-8.303309 -0.53405,-9.888447 -1.60227,-7.712887 -7.2926,-15.0455739 -14.48009,-18.659374 -2.79548,-1.4055377 -5.50662,-2.3520374 -7.51689,-2.624254 -1.51852,-0.2056282 -12.8,-0.2500648 -63.485977,-0.2500648 -68.765088,0 -63.051058,-0.1109003 -66.829979,1.2970638 C 13.395147,5.7460409 7.9387904,10.465855 4.8090735,16.616716 2.3272404,21.494285 1.9729537,23.177622 1.7537291,31.133702 1.6666367,34.294455 1.5901362,39.278896 1.5837279,42.210238 l -0.011651,5.329714 -0.75316436,0 -0.75316432,0 0.07250447,-11.261917 z"
     id="path3365"
     inkscape:connector-curvature="0"
     transform="translate(5.5,797.5)" /></svg>