<?xml version="1.0" encoding="iso-8859-1"?><!-- Generator: Adobe Illustrator 16.0.0, SVG Export Plug-In . SVG Version: 6.00 Build 0) --><!DOCTYPE svg PUBLIC "-//W3C//DTD SVG 1.1//EN" "http://www.w3.org/Graphics/SVG/1.1/DTD/svg11.dtd"><svg version="1.1" id="Layer_1" xmlns="http://www.w3.org/2000/svg" xmlns:xlink="http://www.w3.org/1999/xlink" x="0px" y="0px" width="192.756px" height="192.756px" viewBox="0 0 192.756 192.756" style="enable-background:new 0 0 192.756 192.756;" xml:space="preserve"><g><polygon style="fill-rule:evenodd;clip-rule:evenodd;fill:#FFFFFF;" points="0,0 192.756,0 192.756,192.756 0,192.756 0,0	"/><path style="fill-rule:evenodd;clip-rule:evenodd;" d="M114.207,75.841c3.355-3.883,7.154-7.39,11.182-10.577	c4.055-3.208,8.34-6.093,13.297-8.159c5.244-2.185,11.24-3.454,17.051-3.739c17.074,23.562,18.596,54.993,3.875,80.094	c0.434-11.598-0.289-21.546-2.271-29.928c-1.703-7.209-4.338-13.26-8.553-19.197l11.779-10.458	c-1.736-4.949-3.965-9.546-6.777-13.972c-3.404,0.892-6.541,2.065-9.49,4.628c-3.617,3.142-6.957,8.372-8.377,13.463	c0,14.161,0,28.322,0,42.483c0,4.694,0.855,9.303,2.963,13.762c2.283,4.834,6.035,9.491,10.342,12.937	c-24.189,25.165-62.77,29.783-92.215,11.037c-29.446-18.745-41.589-55.654-29.025-88.221c-0.345,8.704,0.935,17.651,4.228,25.788	c3.296,8.141,8.609,15.472,14.919,21.489l-9.723,13.008c10.148,17.651,27.671,29.829,47.754,33.186	c20.083,3.356,40.614-2.46,55.95-15.853l-30.021-12.656l-0.156-7.328l-17.62,16.684l-25.417-8.576H57.609	c3.476-2.98,6.652-7.844,6.781-11.795c0.117-3.574-2.261-6.402-5.565-8.648c-3.658-2.488-8.452-4.264-13.689-5.615	c4.176-0.212,8.482-0.39,12.178-0.737c2.436-0.229,4.607-0.532,5.335-1.529c0.604-0.826,0.215-2.13-0.856-3.319	c-1.829-2.029-5.647-3.729-8.96-5.217c-3.247-1.458-6.007-2.713-9.555-4.909c7.265-0.338,14.956-0.571,18.16-2.023	c1.441-0.653,1.974-1.553,2.371-2.911c0.733-2.508,1.001-6.579-0.298-9.995c-1.419-3.73-4.707-6.678-8.925-9.576	c-5.465-3.755-12.491-7.426-20.847-11.161c20.376-33.518,63.527-45.056,97.914-26.179c-10.336-0.247-18.219-0.004-26.148,1.671	c-8.049,1.7-16.142,4.875-23.861,11.358L71.307,33.15c-11.523,4.569-21.58,12.201-29.081,22.071l41.285,21.225l12.279-7.877	l-4.402,13.206v32.9c0.931,5.277,4.258,9.107,8.055,9.206c4.318,0.111,9.244-4.6,12.045-9.359V89.137L100.912,74.33L114.207,75.841	L114.207,75.841z M176.471,96.378c0-44.233-35.859-80.092-80.093-80.092c-44.234,0-80.092,35.858-80.092,80.092	s35.858,80.092,80.092,80.092C140.611,176.47,176.471,140.611,176.471,96.378L176.471,96.378z M20.215,52.561	c11.634-20.222,30.743-34.936,53.267-41.015c22.541-6.084,46.476-2.974,66.714,8.669c20.223,11.634,34.936,30.743,41.016,53.267	c6.084,22.541,2.973,46.477-8.67,66.714c-11.633,20.222-30.742,34.936-53.266,41.016c-22.542,6.083-46.477,2.974-66.714-8.67	c-20.222-11.634-34.936-30.742-41.016-53.267C5.462,96.733,8.572,72.799,20.215,52.561L20.215,52.561z"/></g></svg>