<?xml version="1.0" encoding="iso-8859-1"?><!-- Generator: Adobe Illustrator 16.0.0, SVG Export Plug-In . SVG Version: 6.00 Build 0) --><!DOCTYPE svg PUBLIC "-//W3C//DTD SVG 1.1//EN" "http://www.w3.org/Graphics/SVG/1.1/DTD/svg11.dtd"><svg version="1.1" id="Layer_1" xmlns="http://www.w3.org/2000/svg" xmlns:xlink="http://www.w3.org/1999/xlink" x="0px" y="0px" width="192.756px" height="192.756px" viewBox="0 0 192.756 192.756" style="enable-background:new 0 0 192.756 192.756;" xml:space="preserve"><g><polygon style="fill-rule:evenodd;clip-rule:evenodd;fill:#FFFFFF;" points="0,0 192.756,0 192.756,192.756 0,192.756 0,0	"/><path style="fill-rule:evenodd;clip-rule:evenodd;fill:#5C4835;" d="M69.47,106.602c-0.526,1.383-1.081,2.234-2.901,2.234	c-1.823,0-2.376-0.852-2.898-2.234l-5.394-13.879c-0.258-0.672-0.334-1.078-0.334-1.566c0-1.722,1.338-2.61,2.79-2.61	c1.487,0,2.124,1.076,2.378,1.896l3.42,10.596h0.075l3.418-10.596c0.263-0.82,0.893-1.896,2.379-1.896c0,0,5.187,0,5.263,0	c1.361,0,2.256,0.743,2.441,2.048c1.313-1.42,3.033-2.236,5.024-2.236c2.243,0,4.127,0.931,5.538,2.717	c1.481-1.716,3.845-2.717,5.68-2.717c4.364,0,7.329,2.534,7.329,7.217v10.284c0,1.783-1.115,2.977-2.668,2.977	c-1.561,0-2.668-1.193-2.668-2.977v-9.346c0-2.16-1.203-3.689-3.154-3.689c-1.981,0-3.182,1.53-3.182,3.689v9.346	c0,1.783-1.12,2.977-2.668,2.977c-1.561,0-2.665-1.193-2.665-2.977v-9.346c0-2.16-1.207-3.689-3.157-3.689	c-2.206,0-3.186,1.53-3.186,3.689v9.346c0,1.783-1.111,2.977-2.664,2.977c-1.56,0-2.669-1.193-2.669-2.977V92.495L69.47,106.602	L69.47,106.602z"/><path style="fill-rule:evenodd;clip-rule:evenodd;fill:#5C4835;" d="M105.51,91.267c-0.146-0.488-0.264-0.927-0.264-1.265	c0-0.638,0.451-1.456,1.568-1.456c0.705,0,1.373,0.256,1.824,1.681l4.203,13.556h0.074l4.129-13.072	c0.451-1.42,0.742-2.165,1.941-2.165c1.186,0,1.486,0.745,1.93,2.165l4.133,13.072h0.076l4.199-13.556	c0.451-1.425,1.121-1.681,1.82-1.681c1.121,0,1.562,0.817,1.562,1.455c0,0.334-0.111,0.777-0.26,1.264l-5.428,15.855	c-0.443,1.266-0.965,1.715-1.895,1.715c-0.898,0-1.451-0.449-1.854-1.715l-4.244-13.396h-0.074l-4.242,13.396	c-0.408,1.266-0.961,1.715-1.854,1.715c-0.934,0-1.451-0.449-1.902-1.715L105.51,91.267L105.51,91.267z"/><path style="fill-rule:evenodd;clip-rule:evenodd;fill:#5C4835;" d="M137.354,98.691c0-3.377,1.416-7.336,5.439-7.336	s5.441,3.958,5.441,7.336c0,3.365-1.418,7.332-5.441,7.332S137.354,102.057,137.354,98.691L137.354,98.691z M151.32,90.127	c0-1.14-0.898-1.581-1.529-1.581c-0.672,0-1.518,0.441-1.518,1.581v1.041h-0.08c-1.523-1.668-3.125-2.622-5.4-2.622	c-5.59,0-8.717,4.867-8.717,10.145c0,5.277,3.127,10.145,8.717,10.145c2.127,0,3.984-0.961,5.4-2.963h0.08v1.373	c0,1.148,0.846,1.59,1.518,1.59c0.631,0,1.529-0.441,1.529-1.59V90.127L151.32,90.127z"/><path style="fill-rule:evenodd;clip-rule:evenodd;fill:#5C4835;" d="M155.629,90.298c0-1.079,0.629-1.747,1.631-1.747	c1.004,0,1.645,0.667,1.645,1.747v1.684h0.076c0.74-1.534,2.568-3.43,4.465-3.43c1.146,0,1.822,0.743,1.822,1.675	s-0.676,1.526-2.051,1.789c-1.936,0.334-4.312,1.789-4.312,5.628v9.439c0,1.08-0.641,1.752-1.645,1.752	c-1.002,0-1.631-0.672-1.631-1.752V90.298L155.629,90.298z"/><path style="fill-rule:evenodd;clip-rule:evenodd;fill:#5C4835;" d="M169.438,97.508c0.109-3.039,1.555-6.301,5.617-6.152	c3.615,0,5.252,3.299,5.252,6.152H169.438L169.438,97.508z M181.76,99.967c1.41,0,1.824-0.6,1.824-1.748	c0-4.806-3.127-9.672-8.529-9.672c-5.549,0-8.9,4.755-8.9,10.153c0,5.271,2.76,10.137,9.088,10.137	c3.871,0,7.928-2.438,7.928-4.041c0-0.939-0.588-1.459-1.189-1.459c-1.227,0-2.346,2.688-6.707,2.688	c-3.678,0-5.836-2.652-5.836-6.057H181.76L181.76,99.967z"/><path style="fill-rule:evenodd;clip-rule:evenodd;fill:#698DBA;" d="M13.023,74.435c-1.749,0-3.175,1.426-3.175,3.175v23.496	c0,1.758,1.426,3.178,3.175,3.178h23.5c1.749,0,3.176-1.42,3.176-3.178V77.61c0-1.749-1.427-3.175-3.176-3.175H13.023	L13.023,74.435z M11.629,101.105V77.61c0-0.768,0.624-1.388,1.394-1.388h23.5c0.767,0,1.393,0.621,1.393,1.388v23.496	c0,0.773-0.626,1.398-1.393,1.398h-23.5C12.253,102.504,11.629,101.879,11.629,101.105L11.629,101.105z"/><path style="fill-rule:evenodd;clip-rule:evenodd;fill:#698DBA;" d="M20.038,81.459c-1.748,0-3.168,1.424-3.168,3.168v23.503	c0,1.748,1.42,3.172,3.168,3.172h23.5c1.753,0,3.174-1.424,3.174-3.172V84.627c0-1.744-1.421-3.168-3.174-3.168H20.038	L20.038,81.459z M18.646,108.131V84.627c0-0.769,0.625-1.388,1.391-1.388h23.5c0.771,0,1.391,0.62,1.391,1.388v23.503	c0,0.773-0.62,1.391-1.391,1.391h-23.5C19.272,109.521,18.646,108.904,18.646,108.131L18.646,108.131z"/><path style="fill-rule:evenodd;clip-rule:evenodd;fill:#698DBA;" d="M6.007,88.477c-1.752,0-3.173,1.426-3.173,3.172v23.5	c0,1.756,1.421,3.172,3.173,3.172h23.498c1.749,0,3.174-1.416,3.174-3.172v-23.5c0-1.746-1.425-3.172-3.174-3.172H6.007	L6.007,88.477z M4.613,115.148v-23.5c0-0.764,0.623-1.39,1.395-1.39h23.498c0.769,0,1.394,0.626,1.394,1.39v23.5	c0,0.768-0.625,1.395-1.394,1.395H6.007C5.235,116.543,4.613,115.916,4.613,115.148L4.613,115.148z"/><path style="fill-rule:evenodd;clip-rule:evenodd;fill:#5C4835;" d="M186.115,88.885v0.433h-1.031v2.958h-0.518v-2.958h-1.025	v-0.433H186.115L186.115,88.885z M189.41,92.276l-0.139-2.034c-0.021-0.274-0.006-0.594-0.016-0.931h-0.021	c-0.084,0.32-0.186,0.682-0.293,0.978l-0.697,1.938h-0.4l-0.682-1.985c-0.088-0.278-0.172-0.616-0.256-0.931h-0.021	c-0.008,0.323,0,0.615-0.021,0.923l-0.121,2.042h-0.498l0.258-3.391h0.688l0.654,1.832c0.084,0.259,0.156,0.536,0.24,0.857h0.021	c0.072-0.321,0.148-0.612,0.244-0.862l0.652-1.827h0.664l0.256,3.391H189.41L189.41,92.276z"/></g></svg>