<?xml version="1.0" encoding="iso-8859-1"?><!-- Generator: Adobe Illustrator 16.0.0, SVG Export Plug-In . SVG Version: 6.00 Build 0) --><!DOCTYPE svg PUBLIC "-//W3C//DTD SVG 1.1//EN" "http://www.w3.org/Graphics/SVG/1.1/DTD/svg11.dtd"><svg version="1.1" id="svg2" inkscape:output_extension="org.inkscape.output.svg.inkscape" sodipodi:version="0.32" inkscape:version="0.47 r22583" sodipodi:docname="Wi-Fi_Logo.svg" xmlns:rdf="http://www.w3.org/1999/02/22-rdf-syntax-ns#" xmlns:sodipodi="http://sodipodi.sourceforge.net/DTD/sodipodi-0.dtd" xmlns:dc="http://purl.org/dc/elements/1.1/" xmlns:inkscape="http://www.inkscape.org/namespaces/inkscape" xmlns:svg="http://www.w3.org/2000/svg" xmlns:cc="http://creativecommons.org/ns#" xmlns="http://www.w3.org/2000/svg" xmlns:xlink="http://www.w3.org/1999/xlink" x="0px" y="0px" width="303.931px" height="194.915px" viewBox="-0.001 0.041 303.931 194.915" style="enable-background:new -0.001 0.041 303.931 194.915;" xml:space="preserve"><defs><inkscape:perspective id="perspective10" inkscape:persp3d-origin="2065.0629 : 247.75183 : 1" sodipodi:type="inkscape:persp3d" inkscape:vp_x="1693.0157 : 423.14553 : 1" inkscape:vp_z="2437.1101 : 423.14553 : 1" inkscape:vp_y="6.1230318e-14 : 1000 : 0"></inkscape:perspective><inkscape:perspective id="perspective2447" inkscape:persp3d-origin="372.04724 : 350.78739 : 1" sodipodi:type="inkscape:persp3d" inkscape:vp_x="0 : 526.18109 : 1" inkscape:vp_z="744.09448 : 526.18109 : 1" inkscape:vp_y="0 : 1000 : 0"></inkscape:perspective></defs><sodipodi:namedview id="base" inkscape:window-y="-8" inkscape:window-width="1024" inkscape:pageshadow="2" inkscape:window-maximized="1" inkscape:window-x="-8" inkscape:window-height="514" inkscape:pageopacity="0.0" inkscape:document-units="px" inkscape:current-layer="layer1" objecttolerance="10" bordercolor="#666666" guidetolerance="10" inkscape:cx="93.448753" showgrid="false" borderopacity="1.0" pagecolor="#ffffff" inkscape:cy="208.87932" inkscape:zoom="1.9542857" gridtolerance="10000"></sodipodi:namedview><g id="layer1" transform="translate(-145.14287,-334.86218)" inkscape:groupmode="layer" inkscape:label="Layer 1"><path id="path3281" sodipodi:nodetypes="cccccccccccccccccccccccccsccsccssccsccsccscccccccccccccccccccccsssccccscccccsccccccccssscccccccccccc" d="	M425.271,376.224v2.178h3.726v10.26h2.367v-10.228h3.662v-2.241L425.271,376.224z M437.235,376.319v12.312h1.895v-9.502	l2.955,8.256l1.994-0.014l3.068-8.116v9.533h1.926v-12.5h-3.535l-2.494,8.786l-2.557-8.755H437.235z M145.143,450.312v-34.85	c0,0-0.379-15.026,14.647-30.052c15.026-15.026,29.295-13.384,29.295-13.384h19.698c0,0,24.749-37.123,73.741-37.123	c48.992,0,77.023,36.618,77.023,36.618h22.225c0,0,5.609-0.254,12.66,3.287c7.127,3.58,13.539,7.704,20.067,17.835	c6.546,10.161,7.425,17.48,7.425,22.819v38.133c0,7.95-0.758,14.142-14.142,27.526s-30.558,11.869-30.558,11.869H356.77	c0,0-25.549,36.826-73.489,36.826c-47.947,0-72.479-36.573-72.479-36.573h-22.728c0,0-15.026,0.884-29.547-13.638	C144.007,465.086,145.395,450.312,145.143,450.312z M169.26,400.183l14.142,60.988h15.531l6.945-35.103l6.692,35.103h15.91	l14.143-60.609h-16.92l-4.924,33.209l-6.945-33.335h-15.279l-6.944,33.714l-5.177-33.84L169.26,400.183z M250.615,417.245v43.872	h14.925v-43.872H250.615z M267.801,404.852c0,4.244-4.214,7.689-9.408,7.689c-5.192,0-9.407-3.445-9.407-7.689	s4.215-7.689,9.407-7.689C263.587,397.163,267.801,400.608,267.801,404.852z M271.419,484.362c0,0,18.634-14.141,18.634-35.187	v-35.459c0-5.701,2.923-13.778,11.668-22.523c8.745-8.746,16.452-10.131,21.8-10.131h55.54c9.44,0.131,16.776,4.088,23.519,10.402	c6.248,6.564,10.312,14.791,10.312,23.79v33.921c0,6.677-1.791,16.354-10.674,24.513c-8.884,8.16-15.729,10.674-22.795,10.674	H271.419z M373.996,417.29v43.871h14.926V417.29H373.996z M391.183,404.897c0,4.244-4.214,7.688-9.407,7.688	s-9.408-3.444-9.408-7.688s4.215-7.689,9.408-7.689S391.183,400.653,391.183,404.897z M311.22,460.845h16.734v-18.272h31.841	v-13.659h-31.932v-14.292h36.092V400.42h-52.826L311.22,460.845z"/><path id="path2814" style="fill:#FFFFFF;" d="M183.497,460.255c-0.448-1.335-13.575-58.5-13.575-59.115	c0-0.485,1.979-0.64,8.187-0.64c4.503,0,8.186,0.172,8.185,0.384c-0.004,0.648,4.627,31.001,4.938,32.365	c0.271,1.188,0.318,1.205,0.663,0.256c0.204-0.562,1.849-8.225,3.654-17.026l3.283-16.003l7.398,0.141l7.398,0.141l3.351,16.207	c1.843,8.914,3.492,16.348,3.664,16.52c0.411,0.411,0.489-0.037,3.053-17.504l2.197-14.967h8.088c4.449,0,8.089,0.146,8.089,0.325	c0,0.37-13.215,57.271-13.621,58.648c-0.236,0.801-1.067,0.895-7.87,0.895c-6.801,0-7.635-0.094-7.874-0.895	c-0.147-0.492-1.663-8.248-3.369-17.235c-1.706-8.987-3.208-16.446-3.337-16.576c-0.4-0.4-0.644,0.693-3.975,17.821l-3.234,16.629	l-7.538,0.143C185.494,460.874,183.665,460.754,183.497,460.255L183.497,460.255z"/><path id="path2816" style="fill:#FFFFFF;" d="M250.77,439.134v-21.748h7.164h7.164v21.748v21.746h-7.164h-7.164V439.134z"/><path id="path2818" style="fill:#FFFFFF;" d="M255.02,411.731c-0.899-0.275-2.434-1.253-3.41-2.175	c-3.388-3.195-2.849-7.712,1.244-10.421c1.771-1.171,2.733-1.434,5.286-1.441c11.802-0.033,12.578,13.618,0.817,14.386	C257.691,412.163,255.919,412.006,255.02,411.731z"/><path id="path2820" style="fill:#FFFFFF;" d="M276.464,479.901c6-6.279,9.773-12.395,12.213-19.788	c1.143-3.465,1.191-4.345,1.486-26.864c0.328-25.023,0.288-24.638,3.2-30.446c1.701-3.393,5.826-8.649,9.525-12.139	c4.095-3.863,8.245-6.493,12.868-8.156l3.325-1.197h31.726c34.91,0,34.395-0.04,41.447,3.265	c8.947,4.193,17.216,14.283,19.441,23.726c1.125,4.771,1.114,44.373-0.014,48.762c-2.334,9.086-8.82,17.199-18.26,22.84	c-7.166,4.281-2.631,4.004-65.244,4.004h-55.541L276.464,479.901z M388.928,439.134v-22.259h-7.676h-7.676v22.259v22.258h7.676	h7.676V439.134z M328.035,451.926v-8.954h16.119h16.118v-7.164v-7.164h-16.118h-16.119v-6.908v-6.908h18.166h18.165v-7.42v-7.419	h-26.944h-26.944l0.336,8.525c0.185,4.688,0.337,18.389,0.337,30.446v21.92h8.442h8.442V451.926L328.035,451.926z M385.484,412.24	c5.507-1.529,7.774-8.267,4.052-12.031c-4.336-4.382-11.795-4.259-15.596,0.258c-2.588,3.075-2.456,6.605,0.35,9.411	C376.93,412.518,381.221,413.424,385.484,412.24L385.484,412.24z"/></g></svg>