<?xml version="1.0" encoding="iso-8859-1"?><!-- Generator: Adobe Illustrator 16.0.0, SVG Export Plug-In . SVG Version: 6.00 Build 0) --><!DOCTYPE svg PUBLIC "-//W3C//DTD SVG 1.1//EN" "http://www.w3.org/Graphics/SVG/1.1/DTD/svg11.dtd"><svg version="1.1" id="Layer_1" xmlns="http://www.w3.org/2000/svg" xmlns:xlink="http://www.w3.org/1999/xlink" x="0px" y="0px" width="233.511px" height="153.95px" viewBox="0.001 8.049 233.511 153.95" style="enable-background:new 0.001 8.049 233.511 153.95;" xml:space="preserve"><g><g><path style="fill:#231F20;" d="M13.627,118.199v34.92h20.418v7.92H4.415v-42.84H13.627z"/><path style="fill:#231F20;" d="M38.797,130.889c0.938-2.739,2.288-5.13,4.05-7.171c1.76-2.038,3.921-3.639,6.482-4.8	c2.562-1.16,5.446-1.74,8.654-1.74c3.246,0,6.141,0.58,8.684,1.74c2.542,1.161,4.694,2.762,6.454,4.8	c1.761,2.041,3.11,4.432,4.049,7.171s1.408,5.711,1.408,8.909c0,3.12-0.47,6.03-1.408,8.73c-0.938,2.7-2.288,5.05-4.049,7.05	c-1.76,2.001-3.912,3.57-6.454,4.71c-2.543,1.14-5.438,1.71-8.684,1.71c-3.208,0-6.093-0.57-8.654-1.71s-4.724-2.709-6.482-4.71	c-1.762-2-3.11-4.35-4.05-7.05c-0.938-2.7-1.407-5.61-1.407-8.73C37.389,136.6,37.858,133.629,38.797,130.889z M47.218,145.049	c0.409,1.701,1.064,3.23,1.966,4.591c0.898,1.359,2.071,2.45,3.521,3.271c1.446,0.82,3.206,1.229,5.28,1.229	c2.073,0,3.833-0.409,5.28-1.229c1.446-0.819,2.62-1.91,3.521-3.271c0.899-1.359,1.555-2.89,1.966-4.591	c0.411-1.698,0.616-3.449,0.616-5.25c0-1.88-0.205-3.698-0.616-5.46c-0.411-1.76-1.065-3.33-1.966-4.71	c-0.899-1.38-2.073-2.479-3.521-3.3c-1.447-0.819-3.207-1.229-5.28-1.229c-2.074,0-3.834,0.409-5.28,1.229	c-1.448,0.82-2.621,1.92-3.521,3.3c-0.9,1.38-1.557,2.95-1.966,4.71c-0.411,1.762-0.616,3.58-0.616,5.46	C46.601,141.599,46.806,143.35,47.218,145.049z"/><path style="fill:#231F20;" d="M109.676,160.709c-1.994,0.859-4.011,1.29-6.044,1.29c-3.208,0-6.093-0.57-8.653-1.71	c-2.562-1.14-4.725-2.709-6.483-4.71c-1.761-2-3.109-4.35-4.049-7.05s-1.408-5.61-1.408-8.73c0-3.198,0.471-6.17,1.408-8.91	c0.938-2.738,2.288-5.129,4.049-7.17c1.76-2.039,3.921-3.639,6.483-4.8c2.562-1.16,5.445-1.74,8.653-1.74	c2.15,0,4.233,0.33,6.249,0.99c2.015,0.66,3.833,1.63,5.456,2.91s2.965,2.86,4.021,4.739c1.056,1.881,1.701,4.041,1.937,6.479	h-8.802c-0.548-2.398-1.604-4.199-3.168-5.399c-1.564-1.199-3.462-1.799-5.691-1.799c-2.073,0-3.834,0.409-5.279,1.229	c-1.448,0.82-2.621,1.92-3.521,3.3c-0.899,1.38-1.556,2.95-1.966,4.71c-0.411,1.762-0.616,3.58-0.616,5.46	c0,1.801,0.205,3.552,0.616,5.25c0.41,1.701,1.065,3.23,1.966,4.59c0.899,1.36,2.072,2.451,3.521,3.271	c1.445,0.82,3.206,1.229,5.279,1.229c3.052,0,5.407-0.788,7.07-2.368c1.662-1.58,2.63-3.87,2.904-6.87h-9.271v-7.021h17.604v23.16	h-5.868l-0.938-4.86C113.489,158.339,111.67,159.85,109.676,160.709z"/><path style="fill:#231F20;" d="M128.979,130.889c0.938-2.739,2.288-5.13,4.049-7.171c1.76-2.038,3.921-3.639,6.483-4.8	c2.562-1.16,5.445-1.74,8.653-1.74c3.246,0,6.142,0.58,8.685,1.74c2.542,1.161,4.693,2.762,6.454,4.8	c1.761,2.041,3.109,4.432,4.049,7.171c0.938,2.739,1.408,5.711,1.408,8.909c0,3.12-0.471,6.03-1.408,8.73	c-0.938,2.7-2.288,5.05-4.049,7.05c-1.761,2.001-3.912,3.57-6.454,4.71c-2.543,1.14-5.438,1.71-8.685,1.71	c-3.208,0-6.093-0.57-8.653-1.71c-2.562-1.14-4.725-2.709-6.483-4.71c-1.761-2-3.11-4.35-4.049-7.05	c-0.939-2.7-1.408-5.61-1.408-8.73C127.57,136.6,128.04,133.629,128.979,130.889z M137.398,145.049	c0.41,1.701,1.064,3.23,1.966,4.591c0.899,1.359,2.072,2.45,3.521,3.271c1.445,0.82,3.205,1.229,5.279,1.229	c2.073,0,3.833-0.409,5.28-1.229c1.447-0.819,2.62-1.91,3.521-3.271c0.899-1.359,1.556-2.89,1.967-4.591	c0.411-1.698,0.615-3.449,0.615-5.25c0-1.88-0.204-3.698-0.615-5.46c-0.411-1.76-1.066-3.33-1.967-4.71	c-0.899-1.38-2.072-2.479-3.521-3.3c-1.447-0.819-3.207-1.229-5.28-1.229c-2.074,0-3.834,0.409-5.279,1.229	c-1.448,0.82-2.621,1.92-3.521,3.3s-1.556,2.95-1.966,4.71c-0.411,1.762-0.616,3.58-0.616,5.46	C136.782,141.599,136.987,143.35,137.398,145.049z"/></g><g><path style="fill:#231F20;" d="M37.045,54.747L29.486,23.7h-0.125l-7.435,31.047h-9.934L0.188,9.135h9.808l7.061,31.048h0.125	l7.746-31.048h9.183l7.622,31.431h0.125l7.309-31.431h9.621L46.79,54.747H37.045z"/><path style="fill:#231F20;" d="M62.844,22.646c1-2.917,2.437-5.462,4.311-7.635c1.874-2.172,4.175-3.875,6.903-5.109	c2.727-1.235,5.799-1.854,9.214-1.854c3.457,0,6.538,0.618,9.246,1.854c2.706,1.235,4.997,2.938,6.871,5.109	c1.875,2.173,3.312,4.718,4.311,7.635c1,2.918,1.5,6.08,1.5,9.486c0,3.322-0.5,6.42-1.5,9.295	c-0.999,2.875-2.436,5.378-4.311,7.507c-1.874,2.13-4.165,3.801-6.871,5.015c-2.708,1.213-5.789,1.82-9.246,1.82	c-3.415,0-6.487-0.607-9.214-1.82c-2.729-1.214-5.029-2.885-6.903-5.015c-1.874-2.129-3.311-4.632-4.311-7.507	c-0.999-2.875-1.499-5.973-1.499-9.295C61.345,28.726,61.845,25.563,62.844,22.646z M71.809,37.722	c0.438,1.811,1.134,3.438,2.093,4.887c0.957,1.448,2.207,2.608,3.748,3.48c1.54,0.874,3.414,1.311,5.622,1.311	c2.207,0,4.081-0.437,5.623-1.311c1.54-0.872,2.789-2.032,3.748-3.48c0.957-1.447,1.654-3.076,2.093-4.887	c0.437-1.811,0.655-3.674,0.655-5.591c0-2.001-0.22-3.938-0.655-5.812c-0.438-1.874-1.136-3.545-2.093-5.016	c-0.959-1.469-2.208-2.64-3.748-3.514c-1.542-0.872-3.416-1.31-5.623-1.31c-2.208,0-4.082,0.438-5.622,1.31	c-1.541,0.874-2.791,2.044-3.748,3.514c-0.959,1.47-1.655,3.142-2.093,5.016c-0.438,1.875-0.656,3.812-0.656,5.812	C71.152,34.049,71.371,35.912,71.809,37.722z"/><path style="fill:#231F20;" d="M135.934,9.135c1.999,0,3.8,0.33,5.403,0.99c1.604,0.661,2.978,1.565,4.123,2.715	c1.146,1.15,2.021,2.481,2.623,3.993c0.604,1.512,0.906,3.142,0.906,4.887c0,2.684-0.553,5.006-1.655,6.964	c-1.104,1.959-2.904,3.449-5.403,4.472v0.128c1.208,0.341,2.207,0.862,2.999,1.565c0.791,0.702,1.437,1.532,1.937,2.491	c0.5,0.958,0.864,2.013,1.093,3.162c0.229,1.15,0.386,2.3,0.47,3.45c0.041,0.725,0.083,1.576,0.125,2.555	c0.041,0.98,0.113,1.98,0.219,3.002c0.104,1.022,0.271,1.991,0.5,2.907c0.229,0.916,0.572,1.693,1.03,2.332h-9.809	c-0.542-1.447-0.875-3.172-0.999-5.174c-0.125-2.001-0.312-3.918-0.562-5.75c-0.334-2.385-1.042-4.13-2.124-5.238	c-1.084-1.106-2.854-1.661-5.312-1.661h-9.808v17.823h-9.808V9.135H135.934z M132.436,29.769c2.249,0,3.936-0.512,5.061-1.533	c1.124-1.022,1.688-2.684,1.688-4.983c0-2.214-0.562-3.821-1.688-4.822c-1.125-1-2.812-1.502-5.061-1.502H121.69v12.841H132.436z"	/><path style="fill:#231F20;" d="M166.793,9.135v37.18h21.74v8.433h-31.548V9.135H166.793z"/><path style="fill:#231F20;" d="M213.271,9.135c2.873,0,5.549,0.47,8.026,1.405c2.479,0.938,4.622,2.343,6.436,4.216	c1.812,1.875,3.227,4.217,4.248,7.027c1.02,2.811,1.53,6.112,1.53,9.902c0,3.321-0.417,6.388-1.25,9.198	c-0.833,2.812-2.094,5.238-3.779,7.282c-1.688,2.044-3.79,3.652-6.311,4.823c-2.52,1.172-5.486,1.757-8.9,1.757H194.03V9.135	H213.271z M212.583,46.314c1.415,0,2.79-0.233,4.123-0.703c1.332-0.468,2.521-1.246,3.562-2.332s1.874-2.501,2.499-4.248	c0.625-1.746,0.938-3.875,0.938-6.388c0-2.301-0.219-4.376-0.656-6.229c-0.438-1.853-1.155-3.438-2.154-4.759	c-1-1.32-2.322-2.332-3.967-3.035c-1.646-0.703-3.677-1.054-6.092-1.054h-6.997v28.747L212.583,46.314L212.583,46.314z"/></g><g><path style="fill:#231F20;" d="M4.384,64.232L18.5,103.996h0.122l13.996-39.764H37l-16.126,44.431h-4.808L0.001,64.232H4.384z"/><path style="fill:#231F20;" d="M70.833,64.232v3.608H44.971v16.056h24.22v3.608h-24.22v17.548h26.167v3.609H40.833v-44.43H70.833z	"/><path style="fill:#231F20;" d="M106.888,73.1c-0.832-1.349-1.848-2.479-3.043-3.393c-1.197-0.912-2.517-1.606-3.955-2.084	c-1.44-0.477-2.951-0.716-4.533-0.716c-2.882,0-5.355,0.56-7.425,1.68c-2.068,1.12-3.764,2.604-5.081,4.45	c-1.318,1.846-2.292,3.931-2.921,6.254c-0.629,2.324-0.943,4.709-0.943,7.156c0,2.406,0.314,4.782,0.943,7.125	c0.629,2.344,1.603,4.438,2.921,6.285c1.317,1.846,3.013,3.329,5.081,4.449c2.068,1.119,4.543,1.68,7.425,1.68	c2.027,0,3.854-0.374,5.477-1.12c1.622-0.747,3.021-1.763,4.198-3.049c1.177-1.285,2.13-2.79,2.86-4.511	c0.729-1.722,1.195-3.578,1.398-5.57h4.14c-0.284,2.738-0.913,5.207-1.888,7.405c-0.974,2.198-2.23,4.065-3.771,5.601	c-1.543,1.535-3.357,2.718-5.447,3.547c-2.09,0.83-4.411,1.245-6.967,1.245c-3.408,0-6.4-0.633-8.978-1.898	c-2.576-1.265-4.716-2.956-6.42-5.07c-1.704-2.116-2.98-4.563-3.834-7.343c-0.852-2.779-1.276-5.704-1.276-8.774	s0.426-5.995,1.276-8.774c0.854-2.778,2.13-5.236,3.834-7.374c1.704-2.136,3.845-3.837,6.42-5.103	c2.576-1.265,5.568-1.898,8.978-1.898c2.068,0,4.086,0.312,6.055,0.934c1.967,0.623,3.752,1.546,5.354,2.77	c1.603,1.225,2.94,2.729,4.017,4.511c1.074,1.784,1.754,3.839,2.039,6.161h-4.139C108.317,75.973,107.719,74.448,106.888,73.1z"/><path style="fill:#231F20;" d="M149.515,64.232v3.608h-15.152v40.822h-4.139V67.841h-15.091v-3.608H149.515z"/><path style="fill:#231F20;" d="M152.557,77.673c0.853-2.778,2.13-5.236,3.834-7.374c1.704-2.136,3.843-3.837,6.42-5.103	c2.576-1.265,5.567-1.898,8.976-1.898s6.391,0.634,8.945,1.898c2.557,1.266,4.687,2.966,6.39,5.103	c1.704,2.138,2.982,4.596,3.834,7.374c0.853,2.78,1.278,5.705,1.278,8.774c0,3.07-0.427,5.995-1.278,8.773	c-0.852,2.78-2.13,5.228-3.834,7.344c-1.703,2.116-3.833,3.806-6.39,5.07c-2.556,1.266-5.537,1.898-8.945,1.898	c-3.407,0-6.398-0.633-8.976-1.898c-2.577-1.265-4.716-2.956-6.42-5.07c-1.704-2.116-2.981-4.563-3.834-7.344	c-0.853-2.778-1.277-5.703-1.277-8.773C151.279,83.378,151.705,80.453,152.557,77.673z M156.36,93.573	c0.628,2.344,1.602,4.438,2.921,6.285c1.317,1.846,3.012,3.329,5.081,4.449c2.069,1.119,4.543,1.68,7.424,1.68	c2.88,0,5.345-0.561,7.395-1.68c2.049-1.12,3.731-2.604,5.051-4.449c1.317-1.847,2.292-3.941,2.921-6.285	c0.629-2.343,0.943-4.719,0.943-7.125c0-2.447-0.314-4.833-0.943-7.156s-1.604-4.408-2.921-6.254	c-1.318-1.846-3.002-3.33-5.051-4.45c-2.05-1.12-4.515-1.68-7.395-1.68c-2.881,0-5.354,0.56-7.424,1.68s-3.764,2.604-5.081,4.45	c-1.319,1.846-2.293,3.931-2.921,6.254c-0.63,2.324-0.943,4.709-0.943,7.156C155.417,88.854,155.73,91.229,156.36,93.573z"/><path style="fill:#231F20;" d="M218.582,64.232c1.785,0,3.479,0.229,5.081,0.685c1.604,0.457,3.002,1.151,4.199,2.085	c1.196,0.934,2.149,2.138,2.86,3.609c0.709,1.473,1.063,3.205,1.063,5.196c0,2.821-0.71,5.269-2.13,7.343	c-1.42,2.075-3.529,3.401-6.328,3.982v0.124c1.419,0.208,2.596,0.592,3.529,1.151c0.933,0.56,1.693,1.276,2.281,2.147	c0.588,0.87,1.014,1.877,1.277,3.018c0.265,1.142,0.437,2.375,0.519,3.703c0.04,0.747,0.081,1.66,0.121,2.738	c0.04,1.079,0.122,2.168,0.244,3.267c0.12,1.1,0.312,2.137,0.577,3.111c0.264,0.976,0.617,1.732,1.064,2.271h-4.563	c-0.243-0.414-0.437-0.923-0.577-1.523c-0.144-0.602-0.244-1.224-0.306-1.867c-0.061-0.644-0.111-1.275-0.151-1.898	c-0.041-0.622-0.081-1.161-0.121-1.618c-0.082-1.575-0.213-3.143-0.396-4.697c-0.183-1.556-0.568-2.945-1.156-4.169	c-0.589-1.224-1.439-2.209-2.557-2.956c-1.116-0.747-2.646-1.078-4.594-0.996h-15.7v19.727h-4.138V64.232H218.582z M218.278,85.328c1.257,0,2.454-0.197,3.59-0.591c1.136-0.395,2.13-0.964,2.981-1.711c0.853-0.747,1.53-1.649,2.039-2.707	c0.507-1.059,0.761-2.271,0.761-3.641c0-2.737-0.771-4.895-2.312-6.472c-1.542-1.576-3.895-2.365-7.059-2.365h-15.457v17.486	H218.278z"/></g><g><path style="fill:#231F20;" d="M169.485,158.063h2.636v3.401h-2.636V158.063z"/><path style="fill:#231F20;" d="M186.969,147.184c-0.733-0.707-1.759-1.061-3.076-1.061c-0.941,0-1.77,0.203-2.479,0.609	c-0.712,0.407-1.303,0.941-1.772,1.604c-0.471,0.663-0.827,1.417-1.067,2.264c-0.24,0.846-0.36,1.706-0.36,2.584	c0,0.877,0.12,1.737,0.36,2.583s0.597,1.6,1.067,2.263c0.471,0.664,1.062,1.199,1.772,1.604c0.711,0.406,1.538,0.609,2.479,0.609	c0.605,0,1.182-0.117,1.727-0.353c0.544-0.235,1.024-0.562,1.443-0.979c0.418-0.417,0.764-0.915,1.036-1.492	c0.271-0.578,0.438-1.209,0.502-1.894h1.978c-0.271,2.012-0.994,3.578-2.166,4.702c-1.172,1.123-2.679,1.685-4.52,1.685	c-1.235,0-2.328-0.229-3.28-0.688c-0.952-0.46-1.753-1.087-2.4-1.879c-0.648-0.792-1.142-1.718-1.476-2.775	c-0.335-1.061-0.502-2.188-0.502-3.386c0-1.198,0.167-2.327,0.502-3.388c0.334-1.059,0.826-1.983,1.476-2.775	c0.647-0.791,1.448-1.423,2.4-1.895c0.952-0.471,2.045-0.706,3.28-0.706c1.735,0,3.206,0.472,4.41,1.412	c1.201,0.942,1.919,2.364,2.148,4.27h-1.978C188.202,148.863,187.699,147.89,186.969,147.184z"/><path style="fill:#231F20;" d="M203.462,145.129c0.951,0.472,1.752,1.104,2.4,1.895c0.648,0.792,1.141,1.718,1.476,2.775	c0.334,1.061,0.502,2.188,0.502,3.388c0,1.198-0.168,2.325-0.502,3.386c-0.335,1.059-0.826,1.984-1.476,2.776	s-1.449,1.418-2.4,1.878c-0.952,0.459-2.046,0.688-3.279,0.688c-1.235,0-2.328-0.229-3.28-0.688	c-0.952-0.46-1.753-1.086-2.4-1.878c-0.648-0.792-1.142-1.719-1.476-2.776c-0.335-1.061-0.502-2.188-0.502-3.386	c0-1.198,0.167-2.327,0.502-3.388c0.334-1.059,0.826-1.983,1.476-2.775c0.647-0.791,1.448-1.423,2.4-1.895	c0.952-0.471,2.045-0.706,3.28-0.706C201.416,144.423,202.51,144.658,203.462,145.129z M197.702,146.733	c-0.712,0.407-1.303,0.941-1.772,1.604c-0.471,0.663-0.827,1.417-1.067,2.264c-0.24,0.846-0.36,1.706-0.36,2.584	c0,0.877,0.12,1.737,0.36,2.583s0.597,1.6,1.067,2.263c0.471,0.664,1.062,1.199,1.772,1.604c0.711,0.406,1.538,0.609,2.479,0.609	c0.94,0,1.768-0.203,2.479-0.609c0.711-0.405,1.303-0.94,1.773-1.604c0.471-0.663,0.826-1.417,1.066-2.263s0.36-1.706,0.36-2.583	c0-0.878-0.12-1.738-0.36-2.584c-0.24-0.847-0.597-1.601-1.066-2.264c-0.471-0.663-1.062-1.197-1.773-1.604	c-0.712-0.406-1.538-0.609-2.479-0.609C199.24,146.124,198.413,146.327,197.702,146.733z"/><path style="fill:#231F20;" d="M212.611,144.904v2.792h0.094c0.522-1.026,1.208-1.829,2.057-2.407	c0.848-0.577,1.931-0.866,3.249-0.866c1.065,0,2.033,0.269,2.902,0.804c0.867,0.534,1.448,1.348,1.741,2.438	c0.481-1.092,1.193-1.904,2.135-2.438c0.942-0.535,1.945-0.804,3.014-0.804c3.577,0,5.366,1.938,5.366,5.811v11.232h-1.978	v-11.138c0-1.369-0.282-2.412-0.847-3.129c-0.565-0.717-1.561-1.075-2.982-1.075c-0.858,0-1.569,0.166-2.134,0.497	c-0.565,0.332-1.017,0.776-1.351,1.332c-0.335,0.557-0.569,1.193-0.706,1.91s-0.203,1.46-0.203,2.229v9.372h-1.979v-11.232	c0-0.558-0.058-1.086-0.173-1.589s-0.304-0.941-0.564-1.316c-0.263-0.374-0.611-0.668-1.052-0.882	c-0.439-0.214-0.973-0.321-1.601-0.321c-0.837,0-1.564,0.155-2.183,0.465c-0.616,0.312-1.119,0.738-1.507,1.284	c-0.387,0.546-0.675,1.188-0.863,1.926c-0.188,0.738-0.281,1.546-0.281,2.425v9.242h-1.979v-16.562H212.611z"/></g></g></svg>