<?xml version="1.0" encoding="iso-8859-1"?><!-- Generator: Adobe Illustrator 16.0.0, SVG Export Plug-In . SVG Version: 6.00 Build 0) --><!DOCTYPE svg PUBLIC "-//W3C//DTD SVG 1.1//EN" "http://www.w3.org/Graphics/SVG/1.1/DTD/svg11.dtd"><svg version="1.1" id="Layer_1" xmlns="http://www.w3.org/2000/svg" xmlns:xlink="http://www.w3.org/1999/xlink" x="0px" y="0px" width="233.511px" height="153.951px" viewBox="0 0 233.511 153.951" style="enable-background:new 0 0 233.511 153.951;" xml:space="preserve"><g><g><path style="fill:#0082C6;" d="M13.626,110.149v34.92h20.418v7.92H4.414v-42.84H13.626z"/><path style="fill:#0082C6;" d="M38.796,122.839c0.938-2.738,2.288-5.129,4.049-7.17c1.76-2.039,3.921-3.638,6.483-4.799	c2.562-1.159,5.445-1.739,8.653-1.739c3.246,0,6.142,0.58,8.685,1.739c2.542,1.161,4.693,2.761,6.454,4.799	c1.761,2.041,3.109,4.432,4.049,7.17c0.938,2.74,1.408,5.711,1.408,8.91c0,3.121-0.471,6.031-1.408,8.73	c-0.938,2.7-2.288,5.051-4.049,7.051s-3.912,3.57-6.454,4.709c-2.543,1.141-5.438,1.711-8.685,1.711	c-3.208,0-6.093-0.57-8.653-1.711c-2.562-1.139-4.725-2.709-6.483-4.709c-1.761-2-3.11-4.351-4.049-7.051	c-0.938-2.699-1.408-5.609-1.408-8.73C37.388,128.55,37.857,125.58,38.796,122.839z M47.216,137	c0.411,1.701,1.064,3.229,1.966,4.59c0.899,1.361,2.072,2.451,3.521,3.271c1.445,0.82,3.206,1.229,5.279,1.229	s3.833-0.407,5.28-1.229c1.447-0.82,2.62-1.909,3.521-3.271c0.899-1.358,1.557-2.889,1.967-4.59	c0.411-1.699,0.615-3.449,0.615-5.25c0-1.879-0.204-3.699-0.615-5.459c-0.41-1.76-1.066-3.33-1.967-4.711	c-0.899-1.379-2.072-2.479-3.521-3.299c-1.448-0.82-3.207-1.23-5.28-1.23c-2.074,0-3.834,0.41-5.279,1.23	c-1.448,0.819-2.621,1.92-3.521,3.299c-0.9,1.381-1.555,2.951-1.966,4.711s-0.616,3.58-0.616,5.459	C46.6,133.55,46.805,135.3,47.216,137z"/><path style="fill:#0082C6;" d="M109.675,152.66c-1.995,0.858-4.011,1.291-6.044,1.291c-3.208,0-6.093-0.57-8.654-1.711	c-2.562-1.14-4.724-2.709-6.482-4.709c-1.762-2-3.11-4.351-4.05-7.052c-0.938-2.698-1.407-5.608-1.407-8.729	c0-3.199,0.47-6.17,1.407-8.91c0.938-2.737,2.288-5.129,4.05-7.17c1.76-2.039,3.921-3.638,6.482-4.799	c2.562-1.159,5.446-1.739,8.654-1.739c2.149,0,4.232,0.33,6.249,0.989c2.014,0.66,3.833,1.63,5.456,2.91s2.964,2.86,4.02,4.739	c1.058,1.881,1.701,4.041,1.938,6.479h-8.803c-0.548-2.397-1.604-4.199-3.168-5.399c-1.563-1.199-3.462-1.8-5.69-1.8	c-2.074,0-3.834,0.41-5.28,1.23c-1.448,0.819-2.621,1.92-3.521,3.299c-0.9,1.381-1.556,2.951-1.967,4.711	c-0.41,1.76-0.615,3.58-0.615,5.459c0,1.801,0.205,3.551,0.615,5.25c0.411,1.701,1.065,3.229,1.967,4.59	c0.898,1.361,2.071,2.451,3.521,3.271c1.446,0.819,3.206,1.229,5.28,1.229c3.051,0,5.407-0.789,7.07-2.368	c1.661-1.58,2.63-3.869,2.903-6.869h-9.271v-7.021h17.603v23.16h-5.868l-0.938-4.859	C113.488,150.291,111.669,151.8,109.675,152.66z"/><path style="fill:#0082C6;" d="M128.978,122.839c0.938-2.738,2.288-5.129,4.049-7.17c1.761-2.039,3.921-3.638,6.483-4.799	c2.562-1.159,5.446-1.739,8.654-1.739c3.246,0,6.141,0.58,8.684,1.739c2.542,1.161,4.694,2.761,6.454,4.799	c1.761,2.041,3.11,4.432,4.049,7.17c0.938,2.74,1.408,5.711,1.408,8.91c0,3.121-0.47,6.031-1.408,8.73	c-0.938,2.7-2.288,5.051-4.049,7.051c-1.76,2-3.912,3.57-6.454,4.709c-2.543,1.141-5.438,1.711-8.684,1.711	c-3.208,0-6.094-0.57-8.654-1.711c-2.562-1.139-4.724-2.709-6.483-4.709c-1.761-2-3.109-4.351-4.049-7.051	c-0.938-2.699-1.408-5.609-1.408-8.73C127.569,128.55,128.039,125.58,128.978,122.839z M137.397,137	c0.411,1.701,1.065,3.229,1.966,4.59c0.899,1.361,2.072,2.451,3.521,3.271c1.446,0.82,3.206,1.229,5.28,1.229	c2.072,0,3.833-0.407,5.279-1.229c1.447-0.82,2.62-1.909,3.521-3.271c0.898-1.358,1.556-2.889,1.966-4.59	c0.411-1.699,0.616-3.449,0.616-5.25c0-1.879-0.205-3.699-0.616-5.459c-0.41-1.76-1.066-3.33-1.966-4.711	c-0.9-1.379-2.073-2.479-3.521-3.299c-1.447-0.82-3.207-1.23-5.279-1.23c-2.074,0-3.834,0.41-5.28,1.23	c-1.448,0.819-2.621,1.92-3.521,3.299c-0.899,1.381-1.555,2.951-1.966,4.711s-0.616,3.58-0.616,5.459	C136.781,133.55,136.986,135.3,137.397,137z"/></g><g><path style="fill:#0082C6;" d="M37.044,46.697l-7.56-31.047H29.36l-7.435,31.047h-9.934L0.187,1.086h9.809l7.06,31.047h0.125	l7.746-31.047h9.184l7.621,31.43h0.125l7.31-31.43h9.621L46.789,46.697H37.044z"/><path style="fill:#0082C6;" d="M62.844,14.597c1-2.917,2.437-5.462,4.311-7.634s4.176-3.875,6.903-5.11	C76.783,0.617,79.856,0,83.271,0c3.457,0,6.538,0.617,9.246,1.853c2.707,1.235,4.997,2.938,6.872,5.11	c1.874,2.172,3.311,4.717,4.31,7.634c1,2.918,1.5,6.08,1.5,9.487c0,3.321-0.5,6.42-1.5,9.295c-0.999,2.874-2.436,5.377-4.31,7.506	c-1.875,2.13-4.165,3.801-6.872,5.015c-2.708,1.214-5.789,1.82-9.246,1.82c-3.415,0-6.486-0.605-9.214-1.82	c-2.729-1.214-5.029-2.885-6.903-5.015c-1.874-2.129-3.311-4.632-4.311-7.506c-0.999-2.875-1.499-5.974-1.499-9.295	C61.345,20.677,61.845,17.515,62.844,14.597z M71.809,29.674c0.438,1.811,1.134,3.439,2.093,4.887	c0.957,1.447,2.207,2.609,3.748,3.48c1.54,0.874,3.414,1.311,5.622,1.311c2.207,0,4.081-0.437,5.623-1.311	c1.54-0.871,2.789-2.033,3.748-3.48c0.957-1.447,1.655-3.076,2.093-4.887c0.438-1.811,0.655-3.674,0.655-5.59	c0-2.002-0.218-3.939-0.655-5.814c-0.438-1.873-1.136-3.545-2.093-5.014c-0.959-1.47-2.208-2.641-3.748-3.514	c-1.542-0.873-3.416-1.311-5.623-1.311c-2.208,0-4.082,0.438-5.622,1.311c-1.541,0.873-2.791,2.044-3.748,3.514	c-0.959,1.469-1.654,3.141-2.093,5.014c-0.438,1.875-0.656,3.812-0.656,5.814C71.152,26,71.371,27.863,71.809,29.674z"/><path style="fill:#0082C6;" d="M135.934,1.086c1.999,0,3.801,0.33,5.404,0.99c1.603,0.66,2.977,1.564,4.123,2.715	c1.145,1.15,2.02,2.481,2.623,3.992c0.604,1.513,0.905,3.142,0.905,4.887c0,2.684-0.553,5.006-1.654,6.964	c-1.104,1.96-2.905,3.45-5.404,4.472v0.128c1.208,0.341,2.207,0.862,2.999,1.565c0.791,0.702,1.437,1.533,1.937,2.491	s0.864,2.013,1.095,3.162c0.228,1.149,0.384,2.3,0.468,3.45c0.041,0.725,0.083,1.575,0.125,2.555	c0.041,0.98,0.114,1.98,0.219,3.002s0.271,1.992,0.5,2.907c0.229,0.916,0.572,1.692,1.03,2.331h-9.808	c-0.542-1.447-0.874-3.172-0.999-5.174s-0.312-3.918-0.562-5.75c-0.334-2.385-1.042-4.13-2.124-5.238	c-1.084-1.106-2.854-1.66-5.311-1.66h-9.809v17.822h-9.808V1.086H135.934z M132.436,21.72c2.249,0,3.937-0.511,5.062-1.533	c1.124-1.022,1.687-2.683,1.687-4.983c0-2.213-0.562-3.821-1.687-4.822c-1.125-1-2.812-1.502-5.062-1.502H121.69v12.84H132.436z"	/><path style="fill:#0082C6;" d="M166.794,1.086v37.18h21.74v8.432h-31.549V1.086H166.794z"/><path style="fill:#0082C6;" d="M213.271,1.086c2.873,0,5.549,0.469,8.027,1.405c2.478,0.938,4.623,2.343,6.435,4.216	c1.812,1.875,3.228,4.217,4.248,7.027c1.021,2.811,1.53,6.111,1.53,9.902c0,3.321-0.417,6.388-1.249,9.199	c-0.834,2.811-2.093,5.238-3.78,7.281c-1.687,2.045-3.79,3.652-6.31,4.824c-2.521,1.172-5.487,1.756-8.901,1.756H194.03V1.086	H213.271z M212.584,38.266c1.415,0,2.79-0.234,4.123-0.703c1.332-0.469,2.52-1.246,3.561-2.332s1.874-2.501,2.499-4.248	c0.625-1.746,0.938-3.875,0.938-6.388c0-2.3-0.22-4.376-0.656-6.229c-0.438-1.854-1.155-3.438-2.155-4.759	s-2.322-2.332-3.967-3.035c-1.646-0.703-3.676-1.055-6.091-1.055h-6.997v28.748L212.584,38.266L212.584,38.266z"/></g><g><path style="fill:#0082C6;" d="M4.382,56.183l14.117,39.765h0.122l13.995-39.765h4.383l-16.126,44.432h-4.809L0,56.183H4.382z"/><path style="fill:#0082C6;" d="M70.832,56.183v3.609H44.97v16.055h24.22v3.609H44.97v17.549h26.167v3.609H40.832V56.183H70.832z"	/><path style="fill:#0082C6;" d="M106.887,65.051c-0.832-1.348-1.847-2.479-3.043-3.392c-1.196-0.912-2.516-1.607-3.955-2.085	c-1.44-0.477-2.951-0.716-4.533-0.716c-2.882,0-5.354,0.561-7.425,1.681c-2.068,1.12-3.763,2.604-5.081,4.449	c-1.318,1.847-2.292,3.931-2.921,6.254c-0.629,2.324-0.943,4.709-0.943,7.155c0,2.406,0.314,4.783,0.943,7.125	c0.629,2.346,1.603,4.439,2.921,6.285c1.318,1.848,3.013,3.329,5.081,4.449c2.069,1.12,4.543,1.682,7.425,1.682	c2.027,0,3.854-0.375,5.478-1.121c1.622-0.746,3.021-1.763,4.198-3.049c1.177-1.285,2.13-2.789,2.859-4.512	c0.73-1.722,1.196-3.578,1.399-5.57h4.139c-0.284,2.738-0.913,5.207-1.887,7.405c-0.975,2.199-2.231,4.066-3.772,5.601	c-1.543,1.535-3.356,2.719-5.446,3.548c-2.091,0.829-4.411,1.245-6.968,1.245c-3.408,0-6.399-0.633-8.977-1.898	c-2.576-1.265-4.716-2.955-6.42-5.07c-1.704-2.117-2.981-4.563-3.833-7.344c-0.854-2.779-1.278-5.704-1.278-8.773	s0.426-5.994,1.278-8.774c0.852-2.778,2.129-5.236,3.833-7.374c1.704-2.136,3.844-3.837,6.42-5.103	c2.576-1.265,5.567-1.897,8.977-1.897c2.068,0,4.086,0.311,6.056,0.933c1.967,0.623,3.752,1.546,5.354,2.77	c1.604,1.225,2.941,2.729,4.017,4.512c1.074,1.784,1.756,3.838,2.039,6.16h-4.139C108.316,67.924,107.718,66.399,106.887,65.051z"	/><path style="fill:#0082C6;" d="M149.515,56.183v3.609h-15.152v40.822h-4.138V59.792h-15.092v-3.609H149.515z"/><path style="fill:#0082C6;" d="M152.557,69.624c0.854-2.778,2.13-5.236,3.834-7.374c1.704-2.136,3.844-3.837,6.42-5.103	c2.576-1.265,5.568-1.897,8.977-1.897c3.407,0,6.39,0.633,8.944,1.897c2.558,1.266,4.688,2.967,6.391,5.103	c1.703,2.138,2.981,4.596,3.834,7.374c0.853,2.78,1.277,5.705,1.277,8.773c0,3.07-0.426,5.996-1.277,8.774	c-0.853,2.779-2.131,5.228-3.834,7.343c-1.703,2.116-3.833,3.808-6.391,5.071c-2.556,1.267-5.537,1.897-8.944,1.897	s-6.399-0.633-8.977-1.897c-2.576-1.265-4.716-2.955-6.42-5.071c-1.704-2.115-2.98-4.562-3.834-7.343	c-0.852-2.778-1.277-5.704-1.277-8.774C151.279,75.329,151.705,72.404,152.557,69.624z M156.36,85.522	c0.628,2.346,1.603,4.439,2.921,6.285c1.317,1.848,3.013,3.329,5.081,4.449c2.069,1.12,4.543,1.682,7.425,1.682	c2.881,0,5.345-0.562,7.395-1.682c2.048-1.12,3.731-2.603,5.051-4.449c1.317-1.846,2.291-3.939,2.921-6.285	c0.628-2.343,0.942-4.719,0.942-7.125c0-2.446-0.314-4.832-0.942-7.155c-0.63-2.323-1.604-4.407-2.921-6.254	c-1.318-1.846-3.003-3.329-5.051-4.449c-2.05-1.12-4.514-1.681-7.395-1.681c-2.882,0-5.354,0.561-7.425,1.681	c-2.069,1.12-3.764,2.604-5.081,4.449c-1.318,1.847-2.293,3.931-2.921,6.254c-0.63,2.324-0.942,4.709-0.942,7.155	C155.417,80.806,155.73,83.181,156.36,85.522z"/><path style="fill:#0082C6;" d="M218.583,56.183c1.785,0,3.479,0.229,5.081,0.685c1.603,0.457,3.002,1.151,4.198,2.085	c1.196,0.934,2.149,2.137,2.86,3.609c0.709,1.473,1.064,3.205,1.064,5.196c0,2.821-0.71,5.269-2.131,7.343	c-1.42,2.075-3.528,3.402-6.327,3.982v0.124c1.419,0.209,2.596,0.592,3.528,1.151c0.934,0.561,1.693,1.275,2.282,2.146	c0.587,0.871,1.014,1.877,1.277,3.018c0.264,1.143,0.436,2.377,0.518,3.703c0.04,0.746,0.081,1.659,0.121,2.737	c0.04,1.08,0.122,2.169,0.244,3.269c0.121,1.1,0.312,2.137,0.578,3.11c0.263,0.976,0.618,1.732,1.063,2.271h-4.562	c-0.244-0.414-0.438-0.923-0.578-1.524c-0.144-0.602-0.244-1.224-0.305-1.867c-0.062-0.643-0.112-1.274-0.152-1.897	c-0.041-0.622-0.081-1.16-0.121-1.617c-0.082-1.576-0.213-3.144-0.396-4.698c-0.184-1.555-0.569-2.945-1.156-4.17	c-0.589-1.223-1.44-2.209-2.557-2.956c-1.116-0.746-2.646-1.077-4.595-0.995h-15.7v19.728h-4.138V56.183H218.583z M218.279,77.278	c1.258,0,2.454-0.196,3.591-0.591c1.136-0.395,2.13-0.965,2.98-1.712c0.854-0.746,1.531-1.648,2.039-2.707	c0.507-1.058,0.761-2.271,0.761-3.64c0-2.738-0.771-4.895-2.312-6.472c-1.542-1.576-3.896-2.365-7.06-2.365h-15.457v17.486	L218.279,77.278L218.279,77.278z"/></g><g><path style="fill:#0082C6;" d="M169.484,150.015h2.637v3.402h-2.637V150.015z"/><path style="fill:#0082C6;" d="M186.967,139.134c-0.733-0.707-1.758-1.059-3.076-1.059c-0.941,0-1.769,0.203-2.479,0.609	c-0.713,0.405-1.304,0.94-1.773,1.604c-0.471,0.662-0.827,1.416-1.067,2.262c-0.239,0.847-0.359,1.707-0.359,2.584	s0.12,1.738,0.359,2.584c0.24,0.847,0.598,1.601,1.067,2.263c0.471,0.664,1.062,1.198,1.773,1.604	c0.711,0.406,1.537,0.608,2.479,0.608c0.606,0,1.182-0.116,1.728-0.352c0.544-0.236,1.023-0.562,1.442-0.98	c0.418-0.415,0.764-0.913,1.036-1.491c0.271-0.578,0.439-1.209,0.502-1.894h1.979c-0.272,2.013-0.994,3.578-2.166,4.701	c-1.173,1.123-2.68,1.687-4.521,1.687c-1.235,0-2.328-0.23-3.28-0.689c-0.952-0.461-1.753-1.086-2.399-1.879	c-0.649-0.791-1.143-1.717-1.477-2.774c-0.335-1.062-0.502-2.188-0.502-3.388c0-1.196,0.167-2.325,0.502-3.387	c0.334-1.06,0.826-1.983,1.477-2.774c0.646-0.791,1.447-1.425,2.399-1.896c0.952-0.472,2.045-0.705,3.28-0.705	c1.736,0,3.206,0.471,4.41,1.412c1.202,0.94,1.919,2.362,2.148,4.268h-1.978C188.201,140.813,187.698,139.841,186.967,139.134z"/><path style="fill:#0082C6;" d="M203.46,137.08c0.951,0.471,1.752,1.104,2.399,1.896c0.648,0.791,1.142,1.717,1.477,2.774	c0.334,1.062,0.502,2.188,0.502,3.387c0,1.199-0.168,2.326-0.502,3.388c-0.335,1.059-0.827,1.983-1.477,2.774	c-0.647,0.793-1.448,1.418-2.399,1.879c-0.953,0.459-2.046,0.689-3.28,0.689c-1.235,0-2.328-0.23-3.28-0.689	c-0.952-0.461-1.753-1.086-2.399-1.879c-0.649-0.791-1.143-1.717-1.477-2.774c-0.335-1.062-0.502-2.188-0.502-3.388	c0-1.196,0.167-2.325,0.502-3.387c0.334-1.06,0.826-1.983,1.477-2.774c0.646-0.791,1.447-1.425,2.399-1.896	c0.952-0.472,2.045-0.705,3.28-0.705C201.414,136.375,202.507,136.608,203.46,137.08z M197.699,138.685	c-0.712,0.406-1.303,0.941-1.772,1.605c-0.471,0.662-0.827,1.416-1.067,2.262c-0.239,0.846-0.359,1.707-0.359,2.584	s0.12,1.738,0.359,2.584c0.24,0.846,0.598,1.6,1.067,2.262c0.471,0.664,1.062,1.199,1.772,1.605	c0.712,0.406,1.538,0.609,2.479,0.609s1.768-0.203,2.479-0.609c0.712-0.406,1.304-0.941,1.773-1.605	c0.471-0.662,0.826-1.416,1.067-2.262c0.239-0.846,0.359-1.707,0.359-2.584s-0.12-1.738-0.359-2.584	c-0.241-0.846-0.598-1.6-1.067-2.262c-0.471-0.664-1.062-1.199-1.773-1.605c-0.712-0.405-1.537-0.608-2.479-0.608	S198.411,138.279,197.699,138.685z"/><path style="fill:#0082C6;" d="M212.609,136.854v2.793h0.095c0.521-1.026,1.208-1.83,2.056-2.407	c0.848-0.576,1.931-0.865,3.249-0.865c1.065,0,2.034,0.269,2.903,0.803c0.866,0.535,1.447,1.349,1.74,2.439	c0.481-1.093,1.193-1.904,2.136-2.439c0.941-0.534,1.945-0.803,3.013-0.803c3.578,0,5.367,1.937,5.367,5.81v11.233h-1.979v-11.139	c0-1.369-0.282-2.412-0.847-3.13c-0.565-0.717-1.561-1.073-2.982-1.073c-0.856,0-1.568,0.166-2.134,0.496	c-0.564,0.332-1.016,0.776-1.35,1.332c-0.335,0.557-0.57,1.192-0.706,1.909c-0.138,0.718-0.204,1.461-0.204,2.23v9.373h-1.979	v-11.234c0-0.557-0.058-1.086-0.173-1.588c-0.115-0.504-0.304-0.94-0.563-1.315c-0.264-0.375-0.612-0.669-1.053-0.884	c-0.438-0.213-0.973-0.319-1.601-0.319c-0.837,0-1.564,0.153-2.182,0.465c-0.618,0.312-1.119,0.738-1.508,1.283	c-0.387,0.547-0.675,1.188-0.862,1.926c-0.188,0.738-0.282,1.547-0.282,2.424v9.244h-1.978v-16.562h1.822V136.854z"/></g></g></svg>